<svg width="138" height="69" viewBox="0 0 138 69" fill="none" xmlns="http://www.w3.org/2000/svg">
<path d="M41.6988 67.5116C40.6547 66.8905 40.1743 65.6941 39.7031 64.5251L33.06 47.3463L33.0046 47.2002H29.7616L30.898 50.141L24.8925 65.7946C23.9593 67.5846 22.8783 67.676 22.8321 67.6851L22.6104 67.6942V68.5892H28.8654V67.6668L28.6251 67.676C28.6159 67.676 26.6295 67.7673 26.2506 66.443C26.1305 66.0138 26.1582 65.4932 26.3338 64.9178L27.9599 60.6528H34.9725L36.6541 65.0366C36.7557 65.2832 36.8112 65.4932 36.8389 65.7307C36.9313 66.3426 36.8296 66.8175 36.5248 67.1463C36.0073 67.7125 35.0465 67.676 35.0465 67.676L34.8062 67.6668V68.5892H42.3917V67.7216L42.0591 67.6577C41.9482 67.6303 41.8281 67.5846 41.6988 67.5116ZM28.3572 59.63L31.4524 51.5657L34.3073 58.9359L34.566 59.63H28.3572Z" fill="url(#paint0_linear_124_681)"/>
<path d="M41.6988 67.5116C40.6547 66.8905 40.1743 65.6941 39.7031 64.5251L33.06 47.3463L33.0046 47.2002H29.7616L30.898 50.141L24.8925 65.7946C23.9593 67.5846 22.8783 67.676 22.8321 67.6851L22.6104 67.6942V68.5892H28.8654V67.6668L28.6251 67.676C28.6159 67.676 26.6295 67.7673 26.2506 66.443C26.1305 66.0138 26.1582 65.4932 26.3338 64.9178L27.9599 60.6528H34.9725L36.6541 65.0366C36.7557 65.2832 36.8112 65.4932 36.8389 65.7307C36.9313 66.3426 36.8296 66.8175 36.5248 67.1463C36.0073 67.7125 35.0465 67.676 35.0465 67.676L34.8062 67.6668V68.5892H42.3917V67.7216L42.0591 67.6577C41.9482 67.6303 41.8281 67.5846 41.6988 67.5116ZM28.3572 59.63L31.4524 51.5657L34.3073 58.9359L34.566 59.63H28.3572Z" fill="url(#paint1_linear_124_681)"/>
<path d="M117.468 67.4852C116.424 66.8641 115.943 65.6678 115.472 64.4988L108.829 47.32L108.774 47.1738H105.521L106.658 50.1146L100.652 65.7682C99.7191 67.5582 98.6288 67.6496 98.5919 67.6496L98.3701 67.6587V68.5537H104.625V67.6313L104.385 67.6404C104.376 67.6404 102.389 67.7318 102.01 66.4075C101.89 65.9783 101.918 65.4577 102.094 64.8823L103.72 60.6173H110.732L112.414 65.0011C112.516 65.2476 112.571 65.4577 112.599 65.6951C112.691 66.307 112.589 66.7819 112.285 67.1107C111.767 67.677 110.806 67.6404 110.806 67.6404L110.566 67.6313V68.5537H118.151V67.6861L117.819 67.6222C117.708 67.6039 117.588 67.5582 117.468 67.4852ZM104.117 59.6036L107.212 51.5393L110.067 58.9095L110.326 59.6036H104.117Z" fill="url(#paint2_linear_124_681)"/>
<path d="M117.468 67.4852C116.424 66.8641 115.943 65.6678 115.472 64.4988L108.829 47.32L108.774 47.1738H105.521L106.658 50.1146L100.652 65.7682C99.7191 67.5582 98.6288 67.6496 98.5919 67.6496L98.3701 67.6587V68.5537H104.625V67.6313L104.385 67.6404C104.376 67.6404 102.389 67.7318 102.01 66.4075C101.89 65.9783 101.918 65.4577 102.094 64.8823L103.72 60.6173H110.732L112.414 65.0011C112.516 65.2476 112.571 65.4577 112.599 65.6951C112.691 66.307 112.589 66.7819 112.285 67.1107C111.767 67.677 110.806 67.6404 110.806 67.6404L110.566 67.6313V68.5537H118.151V67.6861L117.819 67.6222C117.708 67.6039 117.588 67.5582 117.468 67.4852ZM104.117 59.6036L107.212 51.5393L110.067 58.9095L110.326 59.6036H104.117Z" fill="url(#paint3_linear_124_681)"/>
<path d="M54.4843 47.1348H45.9287V48.0024L46.1689 47.9841C46.1874 47.9841 47.9336 47.9385 48.3217 49.3084C48.3679 49.4819 48.4048 49.6646 48.4048 49.8198C48.4048 55.1808 48.4048 60.5509 48.4048 65.9118C49.4212 66.7886 50.4467 67.6562 51.4631 68.5329V60.0485H54.0223C54.1332 60.0303 57.6534 60.0851 59.917 57.8749C61.1274 56.7059 61.7464 55.0894 61.7464 53.1167C61.7557 47.5275 55.7131 47.1439 54.4843 47.1348ZM58.4387 53.8108C58.4387 58.8887 54.5028 59.0257 54.0501 59.0257H51.4723V49.9203C51.4723 49.7741 51.4723 49.6828 51.5093 49.5641C51.7218 48.0754 53.4033 48.0754 53.9577 48.1028H54.0408C55.2697 48.1028 56.2767 48.4682 57.0066 49.1896C57.9583 50.1486 58.4665 51.7194 58.448 53.7378V53.8108H58.4387Z" fill="url(#paint4_linear_124_681)"/>
<path d="M54.4843 47.1348H45.9287V48.0024L46.1689 47.9841C46.1874 47.9841 47.9336 47.9385 48.3217 49.3084C48.3679 49.4819 48.4048 49.6646 48.4048 49.8198C48.4048 55.1808 48.4048 60.5509 48.4048 65.9118C49.4212 66.7886 50.4467 67.6562 51.4631 68.5329V60.0485H54.0223C54.1332 60.0303 57.6534 60.0851 59.917 57.8749C61.1274 56.7059 61.7464 55.0894 61.7464 53.1167C61.7557 47.5275 55.7131 47.1439 54.4843 47.1348ZM58.4387 53.8108C58.4387 58.8887 54.5028 59.0257 54.0501 59.0257H51.4723V49.9203C51.4723 49.7741 51.4723 49.6828 51.5093 49.5641C51.7218 48.0754 53.4033 48.0754 53.9577 48.1028H54.0408C55.2697 48.1028 56.2767 48.4682 57.0066 49.1896C57.9583 50.1486 58.4665 51.7194 58.448 53.7378V53.8108H58.4387Z" fill="url(#paint5_linear_124_681)"/>
<path d="M71.4012 66.3508C71.355 66.1864 71.355 65.9946 71.355 65.8394C71.3366 60.4784 71.3273 55.1175 71.3088 49.7656C70.2833 48.8889 69.267 48.0213 68.2414 47.1445V53.5923C68.2414 57.6746 68.2599 61.757 68.2599 65.8394C68.2599 66.0038 68.2229 66.1955 68.2137 66.3508C67.8071 67.7299 66.1071 67.6751 66.024 67.6751L65.793 67.6568V68.5244H73.8127V67.6568L73.5725 67.6751C73.5725 67.6842 71.7893 67.7481 71.4012 66.3508Z" fill="url(#paint6_linear_124_681)"/>
<path d="M71.4012 66.3508C71.355 66.1864 71.355 65.9946 71.355 65.8394C71.3366 60.4784 71.3273 55.1175 71.3088 49.7656C70.2833 48.8889 69.267 48.0213 68.2414 47.1445V53.5923C68.2414 57.6746 68.2599 61.757 68.2599 65.8394C68.2599 66.0038 68.2229 66.1955 68.2137 66.3508C67.8071 67.7299 66.1071 67.6751 66.024 67.6751L65.793 67.6568V68.5244H73.8127V67.6568L73.5725 67.6751C73.5725 67.6842 71.7893 67.7481 71.4012 66.3508Z" fill="url(#paint7_linear_124_681)"/>
<path d="M77.8428 53.7932H79.0069V53.5649C79.0069 49.8661 80.208 48.1491 82.795 48.1491H84.8647C84.8647 54.0672 84.8647 59.9852 84.8647 65.9033C85.8902 66.78 86.9065 67.6477 87.9229 68.5244V48.1583H89.9648C92.5518 48.1583 93.7529 49.8752 93.7529 53.574V53.8023H94.917V47.1445H77.8428V53.7932Z" fill="url(#paint8_linear_124_681)"/>
<path d="M77.8428 53.7932H79.0069V53.5649C79.0069 49.8661 80.208 48.1491 82.795 48.1491H84.8647C84.8647 54.0672 84.8647 59.9852 84.8647 65.9033C85.8902 66.78 86.9065 67.6477 87.9229 68.5244V48.1583H89.9648C92.5518 48.1583 93.7529 49.8752 93.7529 53.574V53.8023H94.917V47.1445H77.8428V53.7932Z" fill="url(#paint9_linear_124_681)"/>
<path d="M136.843 61.7664V61.9947C136.843 65.6935 135.633 67.4196 133.036 67.4196H129.941C129.47 67.4378 127.945 67.383 127.742 66.0222C127.724 65.9766 127.724 65.8578 127.724 65.7848C127.724 60.4056 127.724 55.0355 127.724 49.6563C126.707 48.7795 125.682 47.9119 124.666 47.0352V65.7665C124.555 67.6387 122.494 67.5748 122.402 67.5931L122.171 67.5748V68.4424H137.998V61.7664H136.843Z" fill="url(#paint10_linear_124_681)"/>
<path d="M136.843 61.7664V61.9947C136.843 65.6935 135.633 67.4196 133.036 67.4196H129.941C129.47 67.4378 127.945 67.383 127.742 66.0222C127.724 65.9766 127.724 65.8578 127.724 65.7848C127.724 60.4056 127.724 55.0355 127.724 49.6563C126.707 48.7795 125.682 47.9119 124.666 47.0352V65.7665C124.555 67.6387 122.494 67.5748 122.402 67.5931L122.171 67.5748V68.4424H137.998V61.7664H136.843Z" fill="url(#paint11_linear_124_681)"/>
<path d="M17.5547 60.99H16.3166L16.3074 61.2092C16.3074 61.2458 16.1411 64.908 14.2193 66.5154C13.8682 66.8076 13.4432 67.0177 13.0274 67.2277L12.9166 67.2825C12.4638 67.4835 11.9742 67.6479 11.4752 67.7848C10.4774 68.0223 9.54421 68.0132 8.69419 67.7574C8.00125 67.5565 7.35449 67.2003 6.71698 66.6615C6.23654 66.2597 5.79305 65.7117 5.32185 64.9445C4.95227 64.2961 4.63814 63.6112 4.38867 62.9445C4.3702 62.8714 4.34248 62.8075 4.31476 62.7435C4.29628 62.707 4.2778 62.6705 4.26856 62.6065C3.59409 60.5973 3.35387 58.4785 3.55714 56.314C4.14845 49.7293 7.17895 48.2681 8.07516 47.9849C9.71052 47.574 11.3551 47.7384 12.7872 48.4233C13.7851 48.8708 14.5519 49.501 15.0693 50.2955C15.2079 50.5147 15.3465 50.7339 15.4574 50.9531C15.7253 51.4919 15.9378 52.1221 16.1041 52.8892C16.1596 53.282 16.215 53.6838 16.252 54.0582V54.3688H17.4346L17.4069 51.1084L17.4993 47.1538H16.409L16.3998 47.373C16.3813 47.8662 16.2242 48.7247 15.8731 48.9165C15.8269 48.9439 15.6976 49.0169 15.365 48.8252C15.3188 48.816 15.2726 48.7795 15.2079 48.7247C13.6095 47.4187 11.7616 46.7246 9.84911 46.7246H9.29475C9.20236 46.7246 0 47.0351 0 58.2319C0 63.2002 2.55929 68.9995 9.75672 68.9995H9.84911C11.7894 68.9995 13.7296 68.278 15.3188 66.972C15.596 66.762 15.8177 66.6889 15.9748 66.762C16.3351 66.9264 16.5014 67.8031 16.5199 68.3237L16.5291 68.5429H17.6194L17.5639 64.5975V60.99H17.5547Z" fill="url(#paint12_linear_124_681)"/>
<path d="M17.5547 60.99H16.3166L16.3074 61.2092C16.3074 61.2458 16.1411 64.908 14.2193 66.5154C13.8682 66.8076 13.4432 67.0177 13.0274 67.2277L12.9166 67.2825C12.4638 67.4835 11.9742 67.6479 11.4752 67.7848C10.4774 68.0223 9.54421 68.0132 8.69419 67.7574C8.00125 67.5565 7.35449 67.2003 6.71698 66.6615C6.23654 66.2597 5.79305 65.7117 5.32185 64.9445C4.95227 64.2961 4.63814 63.6112 4.38867 62.9445C4.3702 62.8714 4.34248 62.8075 4.31476 62.7435C4.29628 62.707 4.2778 62.6705 4.26856 62.6065C3.59409 60.5973 3.35387 58.4785 3.55714 56.314C4.14845 49.7293 7.17895 48.2681 8.07516 47.9849C9.71052 47.574 11.3551 47.7384 12.7872 48.4233C13.7851 48.8708 14.5519 49.501 15.0693 50.2955C15.2079 50.5147 15.3465 50.7339 15.4574 50.9531C15.7253 51.4919 15.9378 52.1221 16.1041 52.8892C16.1596 53.282 16.215 53.6838 16.252 54.0582V54.3688H17.4346L17.4069 51.1084L17.4993 47.1538H16.409L16.3998 47.373C16.3813 47.8662 16.2242 48.7247 15.8731 48.9165C15.8269 48.9439 15.6976 49.0169 15.365 48.8252C15.3188 48.816 15.2726 48.7795 15.2079 48.7247C13.6095 47.4187 11.7616 46.7246 9.84911 46.7246H9.29475C9.20236 46.7246 0 47.0351 0 58.2319C0 63.2002 2.55929 68.9995 9.75672 68.9995H9.84911C11.7894 68.9995 13.7296 68.278 15.3188 66.972C15.596 66.762 15.8177 66.6889 15.9748 66.762C16.3351 66.9264 16.5014 67.8031 16.5199 68.3237L16.5291 68.5429H17.6194L17.5639 64.5975V60.99H17.5547Z" fill="url(#paint13_linear_124_681)"/>
<path d="M56.3604 21.6721C59.2338 21.6721 62.1072 21.6721 64.9806 21.6721C64.842 21.3251 64.7127 20.9781 64.5741 20.6401H56.7669C56.6375 20.9781 56.4989 21.3251 56.3604 21.6721Z" fill="#A15D40"/>
<path d="M56.3604 21.6721C59.2338 21.6721 62.1072 21.6721 64.9806 21.6721C64.842 21.3251 64.7127 20.9781 64.5741 20.6401H56.7669C56.6375 20.9781 56.4989 21.3251 56.3604 21.6721Z" fill="url(#paint14_linear_124_681)"/>
<path d="M93.3541 35.6727C92.578 35.2069 91.9128 34.5494 91.3676 33.8279C90.3698 32.5219 90.0464 31.499 90.0464 31.499C89.5845 30.3026 87.3301 24.8686 83.9208 16.6856C85.8056 13.0599 87.6719 9.43418 89.5567 5.80846C91.0258 2.99556 92.4025 1.32426 94.047 1.02287C94.121 1.01374 94.2041 1.00461 94.2873 1.00461C94.3612 1.00461 94.4259 0.995475 94.4905 0.995475C94.4905 0.666694 94.4905 0.337914 94.4905 0C94.3427 0 94.1949 0 94.047 0.0091328H86.1012V1.03201C86.3599 1.04114 86.6002 1.0594 86.8589 1.06854C87.7643 1.1964 88.4018 1.45212 88.7806 1.90875C88.7806 1.90875 89.1779 2.39279 89.1687 3.15995C89.1595 3.99103 86.5632 9.26066 83.3941 15.4527C81.5278 10.9776 79.3565 5.7628 76.9636 0.0182656H71.4846C71.8173 0.803686 72.1499 1.58911 72.4733 2.35626C72.7966 3.11428 73.1108 3.87231 73.4341 4.63033C75.7717 10.1739 78.0538 15.7267 80.3729 21.2703C80.2712 21.4712 80.1604 21.6721 80.0587 21.8731C78.3495 25.1152 76.6679 28.2843 75.2728 30.9237C72.6211 23.9371 70.6254 18.8684 69.064 14.8773C67.6873 11.3155 65.7286 6.2651 63.3171 0.0273984H57.8012C58.5219 1.87222 59.2426 3.71705 59.9632 5.56187L55.0664 18.7131L50.0956 32.1566C48.2293 35.8828 45.9287 35.9924 45.9287 35.9924V36.8691H56.6094V35.9924C56.6094 35.9924 52.6087 36.2115 51.8049 33.3164C51.5924 32.4854 51.5924 31.4625 51.9712 30.1474L54.3734 23.6266C54.9832 21.9918 55.5838 20.3479 56.1843 18.7131L60.5268 7.01399C62.0513 10.9137 63.5666 14.8043 65.091 18.7131L65.8117 20.6219C65.9595 20.9872 66.1166 21.3525 66.2644 21.7178L66.9759 23.6266C68.6851 28.0468 70.3852 32.4488 72.0852 36.86L73.4803 36.8508C73.8776 36.0746 74.2749 35.2983 74.6815 34.522C75.051 33.8096 75.4298 33.0881 75.7994 32.3666C75.7994 32.3575 75.8086 32.3575 75.8086 32.3392C77.407 29.2706 78.987 26.202 80.5854 23.1242C80.687 22.9233 80.7886 22.7315 80.8903 22.5306C82.0452 25.2979 83.2186 28.056 84.4012 30.8141C84.4566 30.9419 84.6137 31.4534 84.7338 32.1383C85.011 33.7822 84.4197 34.7503 83.6436 35.2891C82.4979 36.1111 80.881 36.038 80.881 36.038V36.86H94.4905V36.038L94.1579 36.0015C93.8992 35.9284 93.622 35.8188 93.3541 35.6727Z" fill="#A15D40"/>
<path d="M93.3541 35.6727C92.578 35.2069 91.9128 34.5494 91.3676 33.8279C90.3698 32.5219 90.0464 31.499 90.0464 31.499C89.5845 30.3026 87.3301 24.8686 83.9208 16.6856C85.8056 13.0599 87.6719 9.43418 89.5567 5.80846C91.0258 2.99556 92.4025 1.32426 94.047 1.02287C94.121 1.01374 94.2041 1.00461 94.2873 1.00461C94.3612 1.00461 94.4259 0.995475 94.4905 0.995475C94.4905 0.666694 94.4905 0.337914 94.4905 0C94.3427 0 94.1949 0 94.047 0.0091328H86.1012V1.03201C86.3599 1.04114 86.6002 1.0594 86.8589 1.06854C87.7643 1.1964 88.4018 1.45212 88.7806 1.90875C88.7806 1.90875 89.1779 2.39279 89.1687 3.15995C89.1595 3.99103 86.5632 9.26066 83.3941 15.4527C81.5278 10.9776 79.3565 5.7628 76.9636 0.0182656H71.4846C71.8173 0.803686 72.1499 1.58911 72.4733 2.35626C72.7966 3.11428 73.1108 3.87231 73.4341 4.63033C75.7717 10.1739 78.0538 15.7267 80.3729 21.2703C80.2712 21.4712 80.1604 21.6721 80.0587 21.8731C78.3495 25.1152 76.6679 28.2843 75.2728 30.9237C72.6211 23.9371 70.6254 18.8684 69.064 14.8773C67.6873 11.3155 65.7286 6.2651 63.3171 0.0273984H57.8012C58.5219 1.87222 59.2426 3.71705 59.9632 5.56187L55.0664 18.7131L50.0956 32.1566C48.2293 35.8828 45.9287 35.9924 45.9287 35.9924V36.8691H56.6094V35.9924C56.6094 35.9924 52.6087 36.2115 51.8049 33.3164C51.5924 32.4854 51.5924 31.4625 51.9712 30.1474L54.3734 23.6266C54.9832 21.9918 55.5838 20.3479 56.1843 18.7131L60.5268 7.01399C62.0513 10.9137 63.5666 14.8043 65.091 18.7131L65.8117 20.6219C65.9595 20.9872 66.1166 21.3525 66.2644 21.7178L66.9759 23.6266C68.6851 28.0468 70.3852 32.4488 72.0852 36.86L73.4803 36.8508C73.8776 36.0746 74.2749 35.2983 74.6815 34.522C75.051 33.8096 75.4298 33.0881 75.7994 32.3666C75.7994 32.3575 75.8086 32.3575 75.8086 32.3392C77.407 29.2706 78.987 26.202 80.5854 23.1242C80.687 22.9233 80.7886 22.7315 80.8903 22.5306C82.0452 25.2979 83.2186 28.056 84.4012 30.8141C84.4566 30.9419 84.6137 31.4534 84.7338 32.1383C85.011 33.7822 84.4197 34.7503 83.6436 35.2891C82.4979 36.1111 80.881 36.038 80.881 36.038V36.86H94.4905V36.038L94.1579 36.0015C93.8992 35.9284 93.622 35.8188 93.3541 35.6727Z" fill="url(#paint15_linear_124_681)"/>
<path d="M45.9286 20.6396H0V21.6625H45.9286V20.6396Z" fill="url(#paint16_linear_124_681)"/>
<path d="M45.9286 20.6396H0V21.6625H45.9286V20.6396Z" fill="url(#paint17_linear_124_681)"/>
<path d="M138 20.6406H94.501V21.6635H138V20.6406Z" fill="url(#paint18_linear_124_681)"/>
<path d="M138 20.6406H94.501V21.6635H138V20.6406Z" fill="url(#paint19_linear_124_681)"/>
<defs>
<linearGradient id="paint0_linear_124_681" x1="32.5016" y1="26.2182" x2="32.5016" y2="68.5497" gradientUnits="userSpaceOnUse">
<stop offset="0.0891892" stop-color="#AE6E56"/>
<stop offset="0.1151" stop-color="#C99179"/>
<stop offset="0.1416" stop-color="#DFAC95"/>
<stop offset="0.1684" stop-color="#EFC0A9"/>
<stop offset="0.195" stop-color="#F8CCB5"/>
<stop offset="0.2216" stop-color="#FBD0B9"/>
<stop offset="0.2635" stop-color="#F6CAB3"/>
<stop offset="0.3198" stop-color="#E9BAA2"/>
<stop offset="0.3324" stop-color="#E5B59D"/>
<stop offset="0.3355" stop-color="#E0AE96"/>
<stop offset="0.3492" stop-color="#CC957B"/>
<stop offset="0.365" stop-color="#BC8065"/>
<stop offset="0.3834" stop-color="#B07054"/>
<stop offset="0.4062" stop-color="#A76449"/>
<stop offset="0.4382" stop-color="#A25E42"/>
<stop offset="0.527" stop-color="#A15C40"/>
<stop offset="0.586" stop-color="#B96F50"/>
<stop offset="0.6559" stop-color="#CF7F5F"/>
<stop offset="0.7237" stop-color="#DC8A68"/>
<stop offset="0.7865" stop-color="#E08D6B"/>
<stop offset="0.7888" stop-color="#DD8B69"/>
<stop offset="0.8077" stop-color="#C7795A"/>
<stop offset="0.8298" stop-color="#B66C4E"/>
<stop offset="0.8571" stop-color="#AA6346"/>
<stop offset="0.8949" stop-color="#A35D41"/>
<stop offset="0.9944" stop-color="#A15C40"/>
</linearGradient>
<linearGradient id="paint1_linear_124_681" x1="32.501" y1="47.2002" x2="32.501" y2="68.5892" gradientUnits="userSpaceOnUse">
<stop stop-color="white"/>
<stop offset="1" stop-color="#E2E2E2"/>
</linearGradient>
<linearGradient id="paint2_linear_124_681" x1="108.265" y1="26.1874" x2="108.265" y2="68.5189" gradientUnits="userSpaceOnUse">
<stop offset="0.0891892" stop-color="#AE6E56"/>
<stop offset="0.1151" stop-color="#C99179"/>
<stop offset="0.1416" stop-color="#DFAC95"/>
<stop offset="0.1684" stop-color="#EFC0A9"/>
<stop offset="0.195" stop-color="#F8CCB5"/>
<stop offset="0.2216" stop-color="#FBD0B9"/>
<stop offset="0.2635" stop-color="#F6CAB3"/>
<stop offset="0.3198" stop-color="#E9BAA2"/>
<stop offset="0.3324" stop-color="#E5B59D"/>
<stop offset="0.3355" stop-color="#E0AE96"/>
<stop offset="0.3492" stop-color="#CC957B"/>
<stop offset="0.365" stop-color="#BC8065"/>
<stop offset="0.3834" stop-color="#B07054"/>
<stop offset="0.4062" stop-color="#A76449"/>
<stop offset="0.4382" stop-color="#A25E42"/>
<stop offset="0.527" stop-color="#A15C40"/>
<stop offset="0.586" stop-color="#B96F50"/>
<stop offset="0.6559" stop-color="#CF7F5F"/>
<stop offset="0.7237" stop-color="#DC8A68"/>
<stop offset="0.7865" stop-color="#E08D6B"/>
<stop offset="0.7888" stop-color="#DD8B69"/>
<stop offset="0.8077" stop-color="#C7795A"/>
<stop offset="0.8298" stop-color="#B66C4E"/>
<stop offset="0.8571" stop-color="#AA6346"/>
<stop offset="0.8949" stop-color="#A35D41"/>
<stop offset="0.9944" stop-color="#A15C40"/>
</linearGradient>
<linearGradient id="paint3_linear_124_681" x1="108.261" y1="47.1738" x2="108.261" y2="68.5537" gradientUnits="userSpaceOnUse">
<stop stop-color="white"/>
<stop offset="1" stop-color="#E2E2E2"/>
</linearGradient>
<linearGradient id="paint4_linear_124_681" x1="53.8451" y1="26.1255" x2="53.8451" y2="68.4933" gradientUnits="userSpaceOnUse">
<stop offset="0.0891892" stop-color="#AE6E56"/>
<stop offset="0.1151" stop-color="#C99179"/>
<stop offset="0.1416" stop-color="#DFAC95"/>
<stop offset="0.1684" stop-color="#EFC0A9"/>
<stop offset="0.195" stop-color="#F8CCB5"/>
<stop offset="0.2216" stop-color="#FBD0B9"/>
<stop offset="0.2635" stop-color="#F6CAB3"/>
<stop offset="0.3198" stop-color="#E9BAA2"/>
<stop offset="0.3324" stop-color="#E5B59D"/>
<stop offset="0.3355" stop-color="#E0AE96"/>
<stop offset="0.3492" stop-color="#CC957B"/>
<stop offset="0.365" stop-color="#BC8065"/>
<stop offset="0.3834" stop-color="#B07054"/>
<stop offset="0.4062" stop-color="#A76449"/>
<stop offset="0.4382" stop-color="#A25E42"/>
<stop offset="0.527" stop-color="#A15C40"/>
<stop offset="0.586" stop-color="#B96F50"/>
<stop offset="0.6559" stop-color="#CF7F5F"/>
<stop offset="0.7237" stop-color="#DC8A68"/>
<stop offset="0.7865" stop-color="#E08D6B"/>
<stop offset="0.7888" stop-color="#DD8B69"/>
<stop offset="0.8077" stop-color="#C7795A"/>
<stop offset="0.8298" stop-color="#B66C4E"/>
<stop offset="0.8571" stop-color="#AA6346"/>
<stop offset="0.8949" stop-color="#A35D41"/>
<stop offset="0.9944" stop-color="#A15C40"/>
</linearGradient>
<linearGradient id="paint5_linear_124_681" x1="53.8376" y1="47.1348" x2="53.8376" y2="68.5329" gradientUnits="userSpaceOnUse">
<stop stop-color="white"/>
<stop offset="1" stop-color="#E2E2E2"/>
</linearGradient>
<linearGradient id="paint6_linear_124_681" x1="69.8038" y1="26.15" x2="69.8038" y2="68.4865" gradientUnits="userSpaceOnUse">
<stop offset="0.0891892" stop-color="#AE6E56"/>
<stop offset="0.1151" stop-color="#C99179"/>
<stop offset="0.1416" stop-color="#DFAC95"/>
<stop offset="0.1684" stop-color="#EFC0A9"/>
<stop offset="0.195" stop-color="#F8CCB5"/>
<stop offset="0.2216" stop-color="#FBD0B9"/>
<stop offset="0.2635" stop-color="#F6CAB3"/>
<stop offset="0.3198" stop-color="#E9BAA2"/>
<stop offset="0.3324" stop-color="#E5B59D"/>
<stop offset="0.3355" stop-color="#E0AE96"/>
<stop offset="0.3492" stop-color="#CC957B"/>
<stop offset="0.365" stop-color="#BC8065"/>
<stop offset="0.3834" stop-color="#B07054"/>
<stop offset="0.4062" stop-color="#A76449"/>
<stop offset="0.4382" stop-color="#A25E42"/>
<stop offset="0.527" stop-color="#A15C40"/>
<stop offset="0.586" stop-color="#B96F50"/>
<stop offset="0.6559" stop-color="#CF7F5F"/>
<stop offset="0.7237" stop-color="#DC8A68"/>
<stop offset="0.7865" stop-color="#E08D6B"/>
<stop offset="0.7888" stop-color="#DD8B69"/>
<stop offset="0.8077" stop-color="#C7795A"/>
<stop offset="0.8298" stop-color="#B66C4E"/>
<stop offset="0.8571" stop-color="#AA6346"/>
<stop offset="0.8949" stop-color="#A35D41"/>
<stop offset="0.9944" stop-color="#A15C40"/>
</linearGradient>
<linearGradient id="paint7_linear_124_681" x1="69.8028" y1="47.1445" x2="69.8028" y2="68.5244" gradientUnits="userSpaceOnUse">
<stop stop-color="white"/>
<stop offset="1" stop-color="#E2E2E2"/>
</linearGradient>
<linearGradient id="paint8_linear_124_681" x1="86.3851" y1="26.1262" x2="86.3851" y2="68.494" gradientUnits="userSpaceOnUse">
<stop offset="0.0891892" stop-color="#AE6E56"/>
<stop offset="0.1151" stop-color="#C99179"/>
<stop offset="0.1416" stop-color="#DFAC95"/>
<stop offset="0.1684" stop-color="#EFC0A9"/>
<stop offset="0.195" stop-color="#F8CCB5"/>
<stop offset="0.2216" stop-color="#FBD0B9"/>
<stop offset="0.2635" stop-color="#F6CAB3"/>
<stop offset="0.3198" stop-color="#E9BAA2"/>
<stop offset="0.3324" stop-color="#E5B59D"/>
<stop offset="0.3355" stop-color="#E0AE96"/>
<stop offset="0.3492" stop-color="#CC957B"/>
<stop offset="0.365" stop-color="#BC8065"/>
<stop offset="0.3834" stop-color="#B07054"/>
<stop offset="0.4062" stop-color="#A76449"/>
<stop offset="0.4382" stop-color="#A25E42"/>
<stop offset="0.527" stop-color="#A15C40"/>
<stop offset="0.586" stop-color="#B96F50"/>
<stop offset="0.6559" stop-color="#CF7F5F"/>
<stop offset="0.7237" stop-color="#DC8A68"/>
<stop offset="0.7865" stop-color="#E08D6B"/>
<stop offset="0.7888" stop-color="#DD8B69"/>
<stop offset="0.8077" stop-color="#C7795A"/>
<stop offset="0.8298" stop-color="#B66C4E"/>
<stop offset="0.8571" stop-color="#AA6346"/>
<stop offset="0.8949" stop-color="#A35D41"/>
<stop offset="0.9944" stop-color="#A15C40"/>
</linearGradient>
<linearGradient id="paint9_linear_124_681" x1="86.3799" y1="47.1445" x2="86.3799" y2="68.5244" gradientUnits="userSpaceOnUse">
<stop stop-color="white"/>
<stop offset="1" stop-color="#E2E2E2"/>
</linearGradient>
<linearGradient id="paint10_linear_124_681" x1="130.084" y1="26.0298" x2="130.084" y2="68.3983" gradientUnits="userSpaceOnUse">
<stop offset="0.0891892" stop-color="#AE6E56"/>
<stop offset="0.1151" stop-color="#C99179"/>
<stop offset="0.1416" stop-color="#DFAC95"/>
<stop offset="0.1684" stop-color="#EFC0A9"/>
<stop offset="0.195" stop-color="#F8CCB5"/>
<stop offset="0.2216" stop-color="#FBD0B9"/>
<stop offset="0.2635" stop-color="#F6CAB3"/>
<stop offset="0.3198" stop-color="#E9BAA2"/>
<stop offset="0.3324" stop-color="#E5B59D"/>
<stop offset="0.3355" stop-color="#E0AE96"/>
<stop offset="0.3492" stop-color="#CC957B"/>
<stop offset="0.365" stop-color="#BC8065"/>
<stop offset="0.3834" stop-color="#B07054"/>
<stop offset="0.4062" stop-color="#A76449"/>
<stop offset="0.4382" stop-color="#A25E42"/>
<stop offset="0.527" stop-color="#A15C40"/>
<stop offset="0.586" stop-color="#B96F50"/>
<stop offset="0.6559" stop-color="#CF7F5F"/>
<stop offset="0.7237" stop-color="#DC8A68"/>
<stop offset="0.7865" stop-color="#E08D6B"/>
<stop offset="0.7888" stop-color="#DD8B69"/>
<stop offset="0.8077" stop-color="#C7795A"/>
<stop offset="0.8298" stop-color="#B66C4E"/>
<stop offset="0.8571" stop-color="#AA6346"/>
<stop offset="0.8949" stop-color="#A35D41"/>
<stop offset="0.9944" stop-color="#A15C40"/>
</linearGradient>
<linearGradient id="paint11_linear_124_681" x1="130.084" y1="47.0352" x2="130.084" y2="68.4424" gradientUnits="userSpaceOnUse">
<stop stop-color="white"/>
<stop offset="1" stop-color="#E2E2E2"/>
</linearGradient>
<linearGradient id="paint12_linear_124_681" x1="8.80663" y1="24.8702" x2="8.80663" y2="68.9594" gradientUnits="userSpaceOnUse">
<stop offset="0.0891892" stop-color="#AE6E56"/>
<stop offset="0.1151" stop-color="#C99179"/>
<stop offset="0.1416" stop-color="#DFAC95"/>
<stop offset="0.1684" stop-color="#EFC0A9"/>
<stop offset="0.195" stop-color="#F8CCB5"/>
<stop offset="0.2216" stop-color="#FBD0B9"/>
<stop offset="0.2635" stop-color="#F6CAB3"/>
<stop offset="0.3198" stop-color="#E9BAA2"/>
<stop offset="0.3324" stop-color="#E5B59D"/>
<stop offset="0.3355" stop-color="#E0AE96"/>
<stop offset="0.3492" stop-color="#CC957B"/>
<stop offset="0.365" stop-color="#BC8065"/>
<stop offset="0.3834" stop-color="#B07054"/>
<stop offset="0.4062" stop-color="#A76449"/>
<stop offset="0.4382" stop-color="#A25E42"/>
<stop offset="0.527" stop-color="#A15C40"/>
<stop offset="0.586" stop-color="#B96F50"/>
<stop offset="0.6559" stop-color="#CF7F5F"/>
<stop offset="0.7237" stop-color="#DC8A68"/>
<stop offset="0.7865" stop-color="#E08D6B"/>
<stop offset="0.7888" stop-color="#DD8B69"/>
<stop offset="0.8077" stop-color="#C7795A"/>
<stop offset="0.8298" stop-color="#B66C4E"/>
<stop offset="0.8571" stop-color="#AA6346"/>
<stop offset="0.8949" stop-color="#A35D41"/>
<stop offset="0.9944" stop-color="#A15C40"/>
</linearGradient>
<linearGradient id="paint13_linear_124_681" x1="8.80969" y1="46.7246" x2="8.80969" y2="68.9995" gradientUnits="userSpaceOnUse">
<stop stop-color="white"/>
<stop offset="1" stop-color="#E2E2E2"/>
</linearGradient>
<linearGradient id="paint14_linear_124_681" x1="70.2096" y1="0" x2="70.2096" y2="36.8691" gradientUnits="userSpaceOnUse">
<stop stop-color="white"/>
<stop offset="1" stop-color="#E2E2E2"/>
</linearGradient>
<linearGradient id="paint15_linear_124_681" x1="70.2096" y1="0" x2="70.2096" y2="36.8691" gradientUnits="userSpaceOnUse">
<stop stop-color="white"/>
<stop offset="1" stop-color="#E2E2E2"/>
</linearGradient>
<linearGradient id="paint16_linear_124_681" x1="22.9672" y1="4.11866" x2="22.9672" y2="34.2535" gradientUnits="userSpaceOnUse">
<stop offset="0.0891892" stop-color="#AE6E56"/>
<stop offset="0.1151" stop-color="#C99179"/>
<stop offset="0.1416" stop-color="#DFAC95"/>
<stop offset="0.1684" stop-color="#EFC0A9"/>
<stop offset="0.195" stop-color="#F8CCB5"/>
<stop offset="0.2216" stop-color="#FBD0B9"/>
<stop offset="0.2635" stop-color="#F6CAB3"/>
<stop offset="0.3198" stop-color="#E9BAA2"/>
<stop offset="0.3324" stop-color="#E5B59D"/>
<stop offset="0.3355" stop-color="#E0AE96"/>
<stop offset="0.3492" stop-color="#CC957B"/>
<stop offset="0.365" stop-color="#BC8065"/>
<stop offset="0.3834" stop-color="#B07054"/>
<stop offset="0.4062" stop-color="#A76449"/>
<stop offset="0.4382" stop-color="#A25E42"/>
<stop offset="0.527" stop-color="#A15C40"/>
<stop offset="0.586" stop-color="#B96F50"/>
<stop offset="0.6559" stop-color="#CF7F5F"/>
<stop offset="0.7237" stop-color="#DC8A68"/>
<stop offset="0.7865" stop-color="#E08D6B"/>
<stop offset="0.7888" stop-color="#DD8B69"/>
<stop offset="0.8077" stop-color="#C7795A"/>
<stop offset="0.8298" stop-color="#B66C4E"/>
<stop offset="0.8571" stop-color="#AA6346"/>
<stop offset="0.8949" stop-color="#A35D41"/>
<stop offset="0.9944" stop-color="#A15C40"/>
</linearGradient>
<linearGradient id="paint17_linear_124_681" x1="22.9643" y1="20.6396" x2="22.9643" y2="21.6625" gradientUnits="userSpaceOnUse">
<stop stop-color="white"/>
<stop offset="1" stop-color="#E2E2E2"/>
</linearGradient>
<linearGradient id="paint18_linear_124_681" x1="116.249" y1="3.576" x2="116.249" y2="34.0026" gradientUnits="userSpaceOnUse">
<stop offset="0.0891892" stop-color="#AE6E56"/>
<stop offset="0.1151" stop-color="#C99179"/>
<stop offset="0.1416" stop-color="#DFAC95"/>
<stop offset="0.1684" stop-color="#EFC0A9"/>
<stop offset="0.195" stop-color="#F8CCB5"/>
<stop offset="0.2216" stop-color="#FBD0B9"/>
<stop offset="0.2635" stop-color="#F6CAB3"/>
<stop offset="0.3198" stop-color="#E9BAA2"/>
<stop offset="0.3324" stop-color="#E5B59D"/>
<stop offset="0.3355" stop-color="#E0AE96"/>
<stop offset="0.3492" stop-color="#CC957B"/>
<stop offset="0.365" stop-color="#BC8065"/>
<stop offset="0.3834" stop-color="#B07054"/>
<stop offset="0.4062" stop-color="#A76449"/>
<stop offset="0.4382" stop-color="#A25E42"/>
<stop offset="0.527" stop-color="#A15C40"/>
<stop offset="0.586" stop-color="#B96F50"/>
<stop offset="0.6559" stop-color="#CF7F5F"/>
<stop offset="0.7237" stop-color="#DC8A68"/>
<stop offset="0.7865" stop-color="#E08D6B"/>
<stop offset="0.7888" stop-color="#DD8B69"/>
<stop offset="0.8077" stop-color="#C7795A"/>
<stop offset="0.8298" stop-color="#B66C4E"/>
<stop offset="0.8571" stop-color="#AA6346"/>
<stop offset="0.8949" stop-color="#A35D41"/>
<stop offset="0.9944" stop-color="#A15C40"/>
</linearGradient>
<linearGradient id="paint19_linear_124_681" x1="116.25" y1="20.6406" x2="116.25" y2="21.6635" gradientUnits="userSpaceOnUse">
<stop stop-color="white"/>
<stop offset="1" stop-color="#E2E2E2"/>
</linearGradient>
</defs>
</svg>
