<svg width="10" height="20" viewBox="0 0 10 20" fill="none" xmlns="http://www.w3.org/2000/svg">
<path fill-rule="evenodd" clip-rule="evenodd" d="M9.39347 1.6343L9.41072 3.25948L8.23019 3.28072C6.4452 3.31294 6.4357 3.32262 6.4357 5.10779V6.23975H7.95443C8.78973 6.23975 9.47315 6.24841 9.47315 6.25899C9.47315 6.26958 9.40045 6.96986 9.31159 7.81522C9.22272 8.66051 9.15002 9.40727 9.15002 9.47468C9.15002 9.59109 9.08248 9.59716 7.79286 9.59716H6.4357V14.375V19.1529H4.43228H2.42886V14.375V9.59716H1.49177H0.554688V7.91846V6.23975H1.48428H2.41386L2.4454 4.73861C2.48121 3.03918 2.54835 2.67503 2.97605 1.86189C3.50773 0.851055 4.48179 0.209919 5.73522 0.0458579C5.96057 0.0163515 6.87193 -0.00398673 7.76055 0.000661986L9.37621 0.00918451L9.39347 1.6343Z" fill="white"/>
<path fill-rule="evenodd" clip-rule="evenodd" d="M9.39347 1.6343L9.41072 3.25948L8.23019 3.28072C6.4452 3.31294 6.4357 3.32262 6.4357 5.10779V6.23975H7.95443C8.78973 6.23975 9.47315 6.24841 9.47315 6.25899C9.47315 6.26958 9.40045 6.96986 9.31159 7.81522C9.22272 8.66051 9.15002 9.40727 9.15002 9.47468C9.15002 9.59109 9.08248 9.59716 7.79286 9.59716H6.4357V14.375V19.1529H4.43228H2.42886V14.375V9.59716H1.49177H0.554688V7.91846V6.23975H1.48428H2.41386L2.4454 4.73861C2.48121 3.03918 2.54835 2.67503 2.97605 1.86189C3.50773 0.851055 4.48179 0.209919 5.73522 0.0458579C5.96057 0.0163515 6.87193 -0.00398673 7.76055 0.000661986L9.37621 0.00918451L9.39347 1.6343Z" fill="white"/>
</svg>
