<svg width="17" height="17" viewBox="0 0 17 17" fill="none" xmlns="http://www.w3.org/2000/svg">
<path fill-rule="evenodd" clip-rule="evenodd" d="M13.2367 0.240592C15.0793 0.793828 16.4002 2.15519 16.8694 3.98448C17.0064 4.51836 17.0064 12.5632 16.8694 13.0971C16.386 14.9817 14.9827 16.384 13.0967 16.867C12.5624 17.0039 4.51157 17.0039 3.97729 16.867C2.13158 16.3944 0.752158 15.0468 0.226201 13.2027C0.12245 12.839 0.111348 12.3877 0.111348 8.54078C0.111348 3.88496 0.1017 4.01696 0.509302 3.09605C1.13425 1.68397 2.55101 0.512391 3.97722 0.228179C4.17712 0.188294 4.40015 0.143258 4.47285 0.12807C4.54554 0.112882 6.4636 0.106939 8.73522 0.114797C12.3934 0.127476 12.9079 0.141871 13.2367 0.240592ZM4.25907 1.9071C3.69042 2.0601 3.24337 2.32682 2.78092 2.78899C2.30802 3.26147 2.04997 3.70007 1.89507 4.29431C1.74684 4.8628 1.74916 12.2274 1.89765 12.7972C2.0542 13.3977 2.3667 13.9176 2.83378 14.3541C3.3037 14.7934 3.72267 15.0308 4.28735 15.1778C4.85626 15.3259 12.2263 15.3236 12.7966 15.1752C13.3975 15.0187 13.9177 14.7065 14.3546 14.2397C14.7943 13.7702 15.0318 13.3515 15.1789 12.7872C15.325 12.2267 15.325 4.85481 15.1789 4.29431C15.0318 3.73004 14.7943 3.31139 14.3546 2.84182C13.9177 2.37509 13.3975 2.06281 12.7966 1.90638C12.2447 1.76275 4.79309 1.76335 4.25907 1.9071ZM13.1988 3.13362C13.5588 3.22416 13.9282 3.60537 13.9937 3.95384C14.0931 4.48323 13.6874 5.11828 13.1902 5.21146C12.6421 5.31421 12.1735 5.07919 11.9586 4.59384C11.7021 4.01446 11.9882 3.3757 12.6011 3.15911C12.927 3.04395 12.8548 3.04705 13.1988 3.13362ZM9.49095 4.28183C10.7034 4.5385 11.8725 5.44852 12.4231 6.56437C12.7941 7.31604 12.9204 7.92666 12.8799 8.7721C12.8248 9.92274 12.4324 10.7881 11.5768 11.6461C10.7568 12.4684 9.71649 12.896 8.53102 12.8981C7.33795 12.9001 6.33488 12.4795 5.46284 11.6114C4.59695 10.7494 4.17547 9.74406 4.17547 8.54078C4.17547 7.33882 4.59642 6.33391 5.46244 5.46853C6.547 4.38484 7.98134 3.96229 9.49095 4.28183ZM7.58966 6.05789C6.83427 6.37426 6.44404 6.74392 6.10735 7.46204C5.94644 7.80522 5.92668 7.92336 5.92668 8.54078C5.92668 9.18323 5.94214 9.26676 6.13722 9.67822C6.40036 10.2333 6.84656 10.6763 7.41355 10.9453C7.8088 11.1329 7.89854 11.1491 8.53697 11.1491C9.17937 11.1491 9.26369 11.1335 9.67367 10.9395C10.237 10.6728 10.6706 10.2396 10.9375 9.67663C11.1317 9.26696 11.1473 9.1827 11.1473 8.54078C11.1473 7.89886 11.1317 7.8146 10.9375 7.40492C10.6706 6.84198 10.237 6.40873 9.67367 6.14201C9.28794 5.95943 9.14989 5.93011 8.60305 5.91446C8.06123 5.89888 7.92246 5.91855 7.58966 6.05789Z" fill="white"/>
<path fill-rule="evenodd" clip-rule="evenodd" d="M13.2367 0.240592C15.0793 0.793828 16.4002 2.15519 16.8694 3.98448C17.0064 4.51836 17.0064 12.5632 16.8694 13.0971C16.386 14.9817 14.9827 16.384 13.0967 16.867C12.5624 17.0039 4.51157 17.0039 3.97729 16.867C2.13158 16.3944 0.752158 15.0468 0.226201 13.2027C0.12245 12.839 0.111348 12.3877 0.111348 8.54078C0.111348 3.88496 0.1017 4.01696 0.509302 3.09605C1.13425 1.68397 2.55101 0.512391 3.97722 0.228179C4.17712 0.188294 4.40015 0.143258 4.47285 0.12807C4.54554 0.112882 6.4636 0.106939 8.73522 0.114797C12.3934 0.127476 12.9079 0.141871 13.2367 0.240592ZM4.25907 1.9071C3.69042 2.0601 3.24337 2.32682 2.78092 2.78899C2.30802 3.26147 2.04997 3.70007 1.89507 4.29431C1.74684 4.8628 1.74916 12.2274 1.89765 12.7972C2.0542 13.3977 2.3667 13.9176 2.83378 14.3541C3.3037 14.7934 3.72267 15.0308 4.28735 15.1778C4.85626 15.3259 12.2263 15.3236 12.7966 15.1752C13.3975 15.0187 13.9177 14.7065 14.3546 14.2397C14.7943 13.7702 15.0318 13.3515 15.1789 12.7872C15.325 12.2267 15.325 4.85481 15.1789 4.29431C15.0318 3.73004 14.7943 3.31139 14.3546 2.84182C13.9177 2.37509 13.3975 2.06281 12.7966 1.90638C12.2447 1.76275 4.79309 1.76335 4.25907 1.9071ZM13.1988 3.13362C13.5588 3.22416 13.9282 3.60537 13.9937 3.95384C14.0931 4.48323 13.6874 5.11828 13.1902 5.21146C12.6421 5.31421 12.1735 5.07919 11.9586 4.59384C11.7021 4.01446 11.9882 3.3757 12.6011 3.15911C12.927 3.04395 12.8548 3.04705 13.1988 3.13362ZM9.49095 4.28183C10.7034 4.5385 11.8725 5.44852 12.4231 6.56437C12.7941 7.31604 12.9204 7.92666 12.8799 8.7721C12.8248 9.92274 12.4324 10.7881 11.5768 11.6461C10.7568 12.4684 9.71649 12.896 8.53102 12.8981C7.33795 12.9001 6.33488 12.4795 5.46284 11.6114C4.59695 10.7494 4.17547 9.74406 4.17547 8.54078C4.17547 7.33882 4.59642 6.33391 5.46244 5.46853C6.547 4.38484 7.98134 3.96229 9.49095 4.28183ZM7.58966 6.05789C6.83427 6.37426 6.44404 6.74392 6.10735 7.46204C5.94644 7.80522 5.92668 7.92336 5.92668 8.54078C5.92668 9.18323 5.94214 9.26676 6.13722 9.67822C6.40036 10.2333 6.84656 10.6763 7.41355 10.9453C7.8088 11.1329 7.89854 11.1491 8.53697 11.1491C9.17937 11.1491 9.26369 11.1335 9.67367 10.9395C10.237 10.6728 10.6706 10.2396 10.9375 9.67663C11.1317 9.26696 11.1473 9.1827 11.1473 8.54078C11.1473 7.89886 11.1317 7.8146 10.9375 7.40492C10.6706 6.84198 10.237 6.40873 9.67367 6.14201C9.28794 5.95943 9.14989 5.93011 8.60305 5.91446C8.06123 5.89888 7.92246 5.91855 7.58966 6.05789Z" fill="white"/>
</svg>
