<svg width="14" height="14" viewBox="0 0 14 14" fill="none" xmlns="http://www.w3.org/2000/svg">
<path d="M2.4164 0.0481479C2.5828 0.110541 5.10261 2.61414 5.21658 2.83037C5.39567 3.17013 5.35913 3.23252 4.41479 4.19952C3.93282 4.69307 3.49981 5.17301 3.45252 5.26607C3.25446 5.65561 3.29562 6.12445 3.56295 6.52509C4.43075 7.82557 6.71622 10.0491 7.7696 10.6177C8.01022 10.7477 8.48314 10.7596 8.76175 10.6428C8.8804 10.593 9.28587 10.231 9.81248 9.7046C10.6829 8.83455 10.8171 8.74132 11.0987 8.8112C11.277 8.85543 13.828 11.4009 13.9469 11.6532C14.1063 11.9915 13.9296 12.2738 13.1034 13.0014C12.2211 13.7782 11.2389 14.1085 10.2259 13.9688C8.87016 13.7818 6.64336 12.6688 5.03126 11.3723C4.42804 10.8872 2.94992 9.39384 2.47237 8.78707C1.39592 7.41928 0.457031 5.67859 0.116057 4.41847C-0.103879 3.60579 -0.0103844 2.75499 0.389419 1.93006C0.606185 1.48273 0.698016 1.36344 1.30393 0.742068C1.67442 0.362158 2.0273 0.0415008 2.08821 0.0294617C2.14906 0.0174227 2.21491 0.00438912 2.2345 0.000463346C2.25409 -0.00346242 2.33595 0.017998 2.4164 0.0481479Z" fill="white"/>
<path d="M2.4164 0.0481479C2.5828 0.110541 5.10261 2.61414 5.21658 2.83037C5.39567 3.17013 5.35913 3.23252 4.41479 4.19952C3.93282 4.69307 3.49981 5.17301 3.45252 5.26607C3.25446 5.65561 3.29562 6.12445 3.56295 6.52509C4.43075 7.82557 6.71622 10.0491 7.7696 10.6177C8.01022 10.7477 8.48314 10.7596 8.76175 10.6428C8.8804 10.593 9.28587 10.231 9.81248 9.7046C10.6829 8.83455 10.8171 8.74132 11.0987 8.8112C11.277 8.85543 13.828 11.4009 13.9469 11.6532C14.1063 11.9915 13.9296 12.2738 13.1034 13.0014C12.2211 13.7782 11.2389 14.1085 10.2259 13.9688C8.87016 13.7818 6.64336 12.6688 5.03126 11.3723C4.42804 10.8872 2.94992 9.39384 2.47237 8.78707C1.39592 7.41928 0.457031 5.67859 0.116057 4.41847C-0.103879 3.60579 -0.0103844 2.75499 0.389419 1.93006C0.606185 1.48273 0.698016 1.36344 1.30393 0.742068C1.67442 0.362158 2.0273 0.0415008 2.08821 0.0294617C2.14906 0.0174227 2.21491 0.00438912 2.2345 0.000463346C2.25409 -0.00346242 2.33595 0.017998 2.4164 0.0481479Z" fill="url(#paint0_linear_903_56)"/>
<defs>
<linearGradient id="paint0_linear_903_56" x1="14" y1="14" x2="0" y2="14" gradientUnits="userSpaceOnUse">
<stop stop-color="#D3AA90"/>
<stop offset="1" stop-color="#BE8D71"/>
</linearGradient>
</defs>
</svg>
