<svg width="21" height="41" viewBox="0 0 21 41" fill="none" xmlns="http://www.w3.org/2000/svg">
<g id="Component 4">
<path id="mouse" fill-rule="evenodd" clip-rule="evenodd" d="M7.4017 6.29675C5.52429 6.69214 3.91255 7.62476 2.56025 9.09803C1.08341 10.7071 0.260139 12.6219 0.058623 14.9168C0.00576637 15.5185 -0.0122878 17.736 0.00830174 21.1121C0.0384946 26.0669 0.0494806 26.4117 0.198524 27.0886C1.01972 30.818 3.4592 33.4411 7.0503 34.4561C7.77493 34.6609 7.82525 34.6641 10.4364 34.6675C13.2457 34.6711 13.381 34.6577 14.6234 34.2543C16.9117 33.5114 18.9567 31.6865 20.0599 29.4032C20.3544 28.7937 20.7101 27.6894 20.8627 26.9111C20.9871 26.2766 21 25.6662 21 20.4242C21 14.0917 21.0002 14.096 20.5273 12.6257C19.4795 9.3686 16.6694 6.83908 13.451 6.25604C12.4378 6.07247 8.33553 6.10009 7.4017 6.29675ZM9.82174 9.56382V11.6331L9.40703 11.8304C8.50355 12.2601 7.98474 13.1057 7.90768 14.2745L7.86266 14.957L4.60775 14.9779L1.35292 14.9987L1.40808 14.5397C1.4385 14.2872 1.54637 13.7828 1.64793 13.4187C2.6214 9.92912 5.62232 7.52443 9.03427 7.50009L9.82174 7.4945V9.56382ZM13.3942 7.64567C14.9307 7.97681 16.1969 8.68563 17.3225 9.84476C18.0564 10.6005 18.5953 11.3856 18.9711 12.2466C19.2484 12.8819 19.5455 13.9347 19.6183 14.5397L19.6734 14.9987L16.4186 14.9779L13.1637 14.957L13.1187 14.2745C13.0416 13.1057 12.5228 12.2601 11.6193 11.8304L11.2046 11.6331V9.56382V7.4945L11.9537 7.49554C12.3828 7.49618 12.998 7.56027 13.3942 7.64567ZM11.1309 13.1056C11.3595 13.2312 11.5214 13.3994 11.6423 13.6369C11.8105 13.9673 11.8192 14.0662 11.8192 15.6311C11.8192 17.1801 11.809 17.2988 11.6464 17.6335C11.1946 18.5633 9.88159 18.5839 9.38283 17.6691C9.21842 17.3675 9.20959 17.2662 9.20836 15.6679C9.2072 14.0632 9.21542 13.9682 9.38406 13.6369C9.59141 13.2296 10.0773 12.9218 10.5132 12.9218C10.6689 12.9218 10.9469 13.0045 11.1309 13.1056ZM7.91483 17.0521C7.94302 17.6563 7.98236 17.8186 8.20692 18.2554C8.66104 19.1388 9.37876 19.6257 10.3192 19.6884C11.4213 19.7619 12.2802 19.2734 12.8078 18.273C13.0475 17.8184 13.0833 17.6752 13.1118 17.0558L13.1441 16.3538H16.4382H19.7324L19.7317 20.6437C19.7314 23.0032 19.697 25.3327 19.6555 25.8205C19.3722 29.1447 17.3335 31.8589 14.3161 32.929C13.3362 33.2765 12.6427 33.354 10.5132 33.354C8.38362 33.354 7.69019 33.2765 6.71026 32.929C3.69567 31.8599 1.65393 29.1417 1.3709 25.8205C1.32933 25.3327 1.29499 23.0032 1.29469 20.6437L1.29399 16.3538H4.58816H7.88225L7.91483 17.0521Z" fill="url(#paint0_linear_124_746)"/>
<path id="arr-bottom" fill-rule="evenodd" clip-rule="evenodd" d="M7.92194 36.2244C7.37571 36.4819 7.09675 37.1489 7.31171 37.6833C7.47865 38.0983 9.76355 40.6601 10.0638 40.7689C10.3708 40.88 10.6557 40.88 10.9627 40.7689C11.2629 40.6601 13.5478 38.0983 13.7147 37.6833C13.9297 37.1489 13.6507 36.4819 13.1045 36.2244C12.8076 36.0844 12.584 36.0711 10.5132 36.0711C8.44244 36.0711 8.2188 36.0844 7.92194 36.2244ZM10.5132 39.3799C10.5888 39.3799 12.2004 37.5711 12.2022 37.4843C12.2029 37.4513 11.4428 37.4244 10.5132 37.4244C9.58362 37.4244 8.82358 37.4513 8.82427 37.4843C8.82604 37.5711 10.4376 39.3799 10.5132 39.3799Z" fill="url(#paint1_linear_124_746)"/>
<path id="arr-top" fill-rule="evenodd" clip-rule="evenodd" d="M10.0059 0.106031C9.70752 0.240995 7.52518 2.68767 7.34603 3.08809C7.27319 3.25091 7.21273 3.45356 7.21158 3.53848C7.20797 3.81894 7.52357 4.373 7.78109 4.53838C8.0221 4.69313 8.1534 4.70104 10.485 4.70104C13.2816 4.70104 13.3204 4.69321 13.6419 4.06149C13.8498 3.65309 13.8565 3.48293 13.6802 3.08554C13.493 2.66341 11.3162 0.238442 11.0021 0.102121C10.6853 -0.0353973 10.3155 -0.033961 10.0059 0.106031ZM12.2155 3.30431L11.3932 2.3665C10.9409 1.85067 10.5449 1.4287 10.5131 1.4287C10.4814 1.4287 10.0854 1.85067 9.63307 2.3665L8.81072 3.30431L9.66196 3.32689C10.1301 3.33926 10.8962 3.33926 11.3643 3.32689L12.2155 3.30431Z" fill="url(#paint2_linear_124_746)"/>
</g>
<defs>
<linearGradient id="paint0_linear_124_746" x1="21" y1="40.8522" x2="0" y2="40.8522" gradientUnits="userSpaceOnUse">
<stop stop-color="#D3AA90"/>
<stop offset="1" stop-color="#BE8D71"/>
</linearGradient>
<linearGradient id="paint1_linear_124_746" x1="21" y1="40.8522" x2="-9.25499e-08" y2="40.8522" gradientUnits="userSpaceOnUse">
<stop stop-color="#D3AA90"/>
<stop offset="1" stop-color="#BE8D71"/>
</linearGradient>
<linearGradient id="paint2_linear_124_746" x1="21" y1="40.8522" x2="1.84396e-07" y2="40.8522" gradientUnits="userSpaceOnUse">
<stop stop-color="#D3AA90"/>
<stop offset="1" stop-color="#BE8D71"/>
</linearGradient>
</defs>
</svg>
