<svg width="19" height="19" viewBox="0 0 19 19" fill="none" xmlns="http://www.w3.org/2000/svg">
<path fill-rule="evenodd" clip-rule="evenodd" d="M4.27646 0.714021C3.62079 1.08852 1.61617 3.38477 1.04495 4.41565C0.909641 4.65983 0.904388 4.68372 0.930137 4.93528C1.01674 5.77999 1.39509 6.99311 1.9174 8.10071C2.49316 9.32173 3.46677 10.7826 4.57478 12.0881C5.13983 12.7539 6.46411 14.0707 7.12201 14.6211C9.50291 16.6126 11.9009 17.8583 14.062 18.2262C14.2564 18.2593 14.4698 18.2864 14.5363 18.2864C14.7646 18.2864 15.3936 17.8851 16.3433 17.1335C17.5698 16.163 18.5349 15.2153 18.7004 14.819C18.8327 14.502 18.5728 14.2032 17.621 13.5781C16.2405 12.6714 14.9548 11.9543 14.3472 11.7519C14.0628 11.6573 14.0406 11.6554 13.8982 11.7143C13.7062 11.7937 13.5795 11.9147 13.0314 12.5421C12.7847 12.8244 12.503 13.132 12.4053 13.2257L12.2277 13.3961L11.9732 13.3309C11.1439 13.1183 10.0238 12.5378 9.09375 11.8386C8.68232 11.5293 7.98948 10.8639 7.6065 10.4103C6.88465 9.55525 6.19993 8.32065 5.92493 7.37831L5.8351 7.07041L6.05073 6.85134C6.16932 6.73085 6.46335 6.46681 6.70413 6.2646C7.25947 5.79823 7.46084 5.59143 7.5375 5.40872C7.59397 5.2741 7.5925 5.24378 7.51791 5.00425C7.29493 4.28798 5.6654 1.56587 5.07656 0.925868C4.74914 0.57 4.59842 0.530125 4.27646 0.714021ZM10.465 1.23128V1.86295L10.6541 1.86327C11.4829 1.86469 12.5838 2.12999 13.4386 2.53434C14.8987 3.22495 16.0017 4.29548 16.7131 5.7122C17.1589 6.59997 17.3484 7.26836 17.4379 8.2685L17.4865 8.81134H18.1147H18.743V8.63787C18.743 8.33451 18.6655 7.66122 18.5788 7.21242C18.3432 5.99175 17.6873 4.599 16.907 3.66266C15.4811 1.95158 13.5705 0.911418 11.388 0.658157C11.1105 0.625942 10.7893 0.599609 10.6742 0.599609H10.465V1.23128ZM10.465 4.37831V5.00994L10.7793 5.03596C11.7078 5.11278 12.5138 5.49601 13.1912 6.1826C13.8351 6.83531 14.1937 7.60678 14.2708 8.50537L14.2971 8.81134H14.9281H15.5591V8.6486C15.5591 8.10398 15.3149 7.13907 15.0391 6.59374C14.5536 5.63391 13.6919 4.76955 12.7534 4.30093C12.1617 4.0055 11.4987 3.82406 10.8274 3.77376L10.465 3.74664V4.37831Z" fill="#1D1D1D"/>
</svg>
