<svg width="20" height="21" viewBox="0 0 20 21" fill="none" xmlns="http://www.w3.org/2000/svg">
<path fill-rule="evenodd" clip-rule="evenodd" d="M9.47538 0.870696C8.35809 0.985042 7.50561 1.18202 6.62694 1.52896C5.39897 2.01384 4.40031 2.65771 3.43595 3.58641C1.5957 5.35853 0.586495 7.59248 0.479378 10.131C0.410279 11.7693 0.824989 13.5508 1.61112 14.9922C1.70545 15.1653 1.78265 15.3302 1.78261 15.3587C1.78261 15.3873 1.40766 16.5103 0.94939 17.8543C0.491159 19.1983 0.116211 20.3281 0.116211 20.3648C0.116211 20.4456 0.272546 20.5994 0.354589 20.5994C0.387026 20.5994 1.56617 20.2349 2.97485 19.7893C4.38353 19.3437 5.561 18.9791 5.59142 18.9791C5.62184 18.9791 5.84549 19.0731 6.08841 19.188C6.88318 19.5638 7.87262 19.859 8.83593 20.0077C9.46236 20.1044 10.9608 20.105 11.5875 20.0088C13.7161 19.682 15.622 18.7337 17.111 17.2605C18.0233 16.3579 18.7586 15.2637 19.2359 14.099C19.5408 13.3548 19.7377 12.6198 19.8869 11.6686C19.9525 11.2498 19.9526 9.7613 19.8871 9.29601C19.5612 6.98453 18.526 4.98687 16.8546 3.44428C15.3932 2.09551 13.6212 1.25451 11.5875 0.944419C11.1978 0.885009 9.80933 0.836555 9.47538 0.870696ZM11.4227 2.94821C13.7011 3.3287 15.6679 4.65348 16.8523 6.60526C17.347 7.42061 17.7388 8.53259 17.8684 9.4889C17.9299 9.94289 17.9308 11.0175 17.87 11.4564C17.7672 12.1977 17.4577 13.198 17.1292 13.8501C16.3732 15.3513 15.0152 16.6658 13.5019 17.3613C12.4917 17.8256 11.593 18.0395 10.483 18.0799C8.95813 18.1354 7.53573 17.7735 6.24389 17.0015C6.05519 16.8887 5.87642 16.8091 5.81759 16.8116C5.76182 16.814 5.14943 16.9961 4.45669 17.2162C3.76396 17.4364 3.19276 17.6134 3.18737 17.6097C3.18195 17.606 3.36072 17.0609 3.58461 16.3984C3.80845 15.736 3.99137 15.1472 3.99102 15.0901C3.99064 15.0277 3.8886 14.8326 3.73497 14.6005C3.03046 13.5364 2.60959 12.2765 2.52111 10.9669C2.48433 10.422 2.51646 9.68511 2.59656 9.23815C3.03526 6.78971 4.56416 4.75876 6.80133 3.65253C7.6354 3.24013 8.47226 3.00569 9.57227 2.87626C9.85389 2.84312 11.0786 2.89076 11.4227 2.94821ZM7.18887 5.99627C6.58679 6.09086 6.31659 6.20262 6.03322 6.47433C5.34173 7.13729 5.14296 8.4444 5.56425 9.55858C5.9649 10.6182 7.31033 12.3614 8.42591 13.2664C9.50941 14.1454 10.7486 14.7279 12.1688 15.0258C12.5455 15.1048 13.2389 15.1044 13.541 15.025C14.1189 14.8731 14.8145 14.3749 15.0402 13.9512C15.2452 13.5662 15.3401 12.7464 15.2087 12.4936C15.1583 12.3966 14.9998 12.3052 14.2496 11.9407C13.7553 11.7006 13.2345 11.4586 13.0923 11.4031C12.6176 11.2176 12.4993 11.2617 12.0825 11.7791C11.5851 12.3966 11.4962 12.498 11.4533 12.4975C11.4312 12.4973 11.2774 12.4381 11.1116 12.366C10.4781 12.0907 9.593 11.4104 8.95983 10.7122C8.68936 10.414 8.25462 9.84444 8.25462 9.78835C8.25462 9.7696 8.37301 9.6181 8.51772 9.45168C8.88492 9.0294 9.00886 8.79307 9.00409 8.52445C9.00091 8.34529 8.93592 8.16209 8.58682 7.34782C8.35937 6.81737 8.12735 6.31705 8.07119 6.23599C7.89289 5.97875 7.67578 5.91977 7.18887 5.99627Z" fill="#1D1D1D"/>
</svg>
