<svg width="21" height="15" viewBox="0 0 21 15" fill="none" xmlns="http://www.w3.org/2000/svg">
<path fill-rule="evenodd" clip-rule="evenodd" d="M13.6697 0.387404C17.5463 0.528247 18.3739 0.676397 19.1045 1.3602C19.7062 1.92338 19.9554 2.67421 20.1303 4.45024C20.238 5.54454 20.2392 9.04652 20.1321 10.1822C19.9707 11.8947 19.8128 12.5455 19.4373 13.0456C18.9143 13.7421 18.3949 14.0028 17.2411 14.1478C14.1381 14.5379 5.13365 14.5005 2.73388 14.0875C1.50316 13.8757 0.724031 13.1413 0.461594 11.9459C0.160821 10.5756 0.0293199 7.6813 0.166802 5.45805C0.326694 2.87224 0.51252 2.13276 1.17941 1.42716C1.75124 0.822153 2.29374 0.652083 4.10134 0.511304C6.31672 0.338652 10.749 0.281331 13.6697 0.387404ZM8.16159 7.37921V10.4052L8.46595 10.2307C12.3338 8.0135 13.3822 7.40535 13.3822 7.37921C13.3822 7.35307 12.3338 6.74491 8.46595 4.52771L8.16159 4.35323V7.37921Z" fill="white"/>
</svg>
