<svg width="52" height="52" viewBox="0 0 52 52" fill="none" xmlns="http://www.w3.org/2000/svg">
<path fill-rule="evenodd" clip-rule="evenodd" d="M0.283223 0.328771L0.0192024 0.594323V9.58576V18.5772L0.283223 18.8427L0.547136 19.1084H3.72527H6.90331L6.87577 27.7311L6.84824 36.3536L5.34263 36.8C3.53062 37.3371 2.67199 37.7783 1.84637 38.5962C1.1439 39.2922 0.749748 39.9157 0.355922 40.9542C0.0968491 41.6377 0.0824382 41.7958 0.0423243 44.3984L0.000274658 47.1261L0.273759 47.4013L0.547136 47.6764H2.906H5.26487L5.33413 48.0475C5.46802 48.7659 6.12501 49.8926 6.77199 50.5136C8.83695 52.4955 11.8499 52.4955 13.9148 50.5136C14.5618 49.8926 15.2188 48.7659 15.3527 48.0475L15.422 47.6764H25.8297H36.2375L36.3068 48.0475C36.4407 48.7659 37.0977 49.8926 37.7446 50.5136C39.8096 52.4955 42.8226 52.4955 44.8875 50.5136C45.5345 49.8926 46.1915 48.7659 46.3254 48.0475L46.3946 47.6764H47.9026C48.7723 47.6764 49.598 47.6206 49.8533 47.5448C50.4441 47.3691 51.335 46.4727 51.5095 45.8783C51.715 45.1782 51.6865 38.8516 51.4737 37.943C51.2098 36.8163 50.7065 35.9153 49.8661 35.0653C49.0439 34.2336 48.2792 33.7785 47.0354 33.3805L46.2481 33.1286L45.1297 30.9069C43.4609 27.592 42.4382 26.4392 40.1869 25.3354C38.1617 24.3424 38.29 24.3567 31.422 24.3567C24.7942 24.3567 24.6933 24.3656 23.0306 25.0946C20.9557 26.0042 20.1381 26.8099 17.3071 30.7342C16.0592 32.464 15.029 33.8929 15.0179 33.9094C15.0068 33.9259 14.4223 34.1094 13.7191 34.3173C13.0159 34.525 12.3559 34.7218 12.2523 34.7543C12.0742 34.8105 12.0641 34.3902 12.0641 26.961V19.1084H15.2415H18.419L18.6829 18.8427L18.9469 18.5772V9.58576V0.594323L18.6829 0.328771L18.419 0.0631104H9.48307H0.547136L0.283223 0.328771ZM34.1661 0.187338C32.3529 0.420967 30.0995 1.18505 28.4896 2.11178C26.1843 3.439 24.0227 5.61406 22.7037 7.93369C21.7462 9.61757 21.0219 11.8274 20.7799 13.8032C20.4288 16.6705 21.0094 20.0637 22.2802 22.57L22.4893 22.9825L23.2186 22.5979C23.6196 22.3863 23.9631 22.2012 23.9818 22.1865C24.0006 22.1719 23.8972 21.9238 23.7521 21.635C23.3656 20.8665 22.872 19.4023 22.6451 18.3509C22.3697 17.0754 22.367 14.2275 22.64 12.9654C23.8515 7.36319 27.9123 3.26943 33.4654 2.05215C34.7331 1.77427 37.5516 1.77578 38.8426 2.05486C40.508 2.4151 42.2699 3.13698 43.6015 4.00484C44.541 4.6171 44.8781 4.89661 45.8659 5.88177C50.5447 10.5479 51.2355 17.892 47.5174 23.4369C47.2181 23.8833 46.5414 24.6976 46.0138 25.2463L45.0544 26.2442L45.5782 26.8962C45.8662 27.2547 46.1321 27.5483 46.1692 27.5485C46.3674 27.5497 48.379 25.2574 48.9896 24.3345C50.8195 21.5687 51.5815 18.9738 51.5725 15.5374C51.5656 12.815 51.1562 11.0627 49.9651 8.65676C47.0613 2.79113 40.6461 -0.64795 34.1661 0.187338ZM17.2262 9.58576V17.377H9.48307H1.73991V9.58576V1.7945H9.48307H17.2262V9.58576ZM5.45329 3.78344L5.18131 4.0571V9.85142V15.6456H6.04166H6.90202V13.0582V10.4707L9.07978 10.434L11.2575 10.3973L11.9352 10.0276C12.6904 9.61563 13.0162 9.27573 13.4369 8.46111C13.6794 7.99147 13.7227 7.77029 13.7247 6.98867C13.7269 6.1457 13.6964 6.01174 13.3602 5.38443C12.9639 4.64502 12.511 4.20774 11.7448 3.82521C11.2844 3.59526 11.1046 3.57989 8.49141 3.5458L5.72527 3.50977L5.45329 3.78344ZM29.9609 9.38081C24.5105 14.8651 24.109 15.2945 24.109 15.6394C24.109 15.9577 24.2288 16.1302 24.9634 16.8693C25.7031 17.6136 25.8333 17.8019 25.9336 18.2727C26.2143 19.5895 27.1127 20.6993 28.3914 21.3089C29.0411 21.6186 29.2076 21.6514 30.1315 21.6514C31.0554 21.6514 31.2219 21.6186 31.8716 21.3089C32.7274 20.9009 33.4485 20.2616 33.7957 19.6029L34.0487 19.1231L34.5075 19.5486C35.3186 20.301 35.3441 20.288 37.7262 17.9025L39.7949 15.8309L39.8576 16.1982C39.9479 16.7281 40.4557 20.8114 40.4557 21.0084C40.4557 21.0996 40.5746 21.2937 40.7197 21.4398C40.974 21.6958 41.0371 21.7055 42.4404 21.7055H43.8971V22.5712V23.4369H44.7575H45.6178V19.1084V14.7799H44.7575H43.8971V17.377V19.9741H42.9971H42.0971L42.0421 19.6224C42.0118 19.429 41.85 18.1393 41.6826 16.7564L41.3781 14.242L42.6536 12.9427L43.929 11.6434L43.8591 10.7275C43.7136 8.82395 42.984 7.25953 41.5853 5.85212C40.1844 4.44255 38.632 3.71061 36.7316 3.56355L35.8129 3.49256L29.9609 9.38081ZM11.2702 5.53452C11.8344 5.95882 12.0104 6.30456 12.0104 6.98867C12.0104 7.67279 11.8344 8.01853 11.2702 8.44283C10.9994 8.64659 10.7968 8.66888 8.93782 8.69961L6.90202 8.73316V6.98867V5.24419L8.93782 5.27773C10.7968 5.30847 10.9994 5.33076 11.2702 5.53452ZM37.9284 5.54848C40.1293 6.23649 41.7649 8.17078 42.1199 10.5056C42.1822 10.9159 42.1576 10.9662 41.6473 11.4716C41.169 11.9451 41.1006 11.9814 41.0352 11.7962C40.4808 10.2272 39.882 9.24468 38.9191 8.32412C37.9565 7.40367 37.1756 6.94149 35.6779 6.40563C35.4939 6.33983 35.5299 6.27101 36.0005 5.78968C36.5027 5.27622 36.5527 5.25144 36.9605 5.3142C37.1971 5.35056 37.6327 5.45607 37.9284 5.54848ZM35.3474 8.14557C37.5333 8.82893 39.1919 10.7909 39.5378 13.1026L39.6026 13.5355L37.45 15.6968L35.2974 17.8581L33.7547 16.319C31.8358 14.4047 31.8799 14.4153 30.6837 15.5784C29.641 16.5924 29.3061 16.7676 28.4108 16.7671C27.6173 16.7667 27.0548 16.53 26.5325 15.977L26.2136 15.6392L30.0815 11.7434L33.9493 7.84744L34.3795 7.91248C34.6161 7.94819 35.0516 8.05315 35.3474 8.14557ZM32.3119 17.352C32.6989 17.7508 32.7048 17.7695 32.5786 18.1907C32.4044 18.7713 31.505 19.6702 30.9256 19.8425C29.949 20.1329 29.1232 19.9278 28.3847 19.2115C27.7982 18.6428 27.7468 18.478 28.1754 18.5413C29.0335 18.668 30.5125 18.123 31.3304 17.3789C31.5879 17.1447 31.8249 16.9511 31.8573 16.9486C31.8896 16.9461 32.0942 17.1277 32.3119 17.352ZM10.3434 27.2166V35.3248L9.77882 35.488C9.46823 35.5777 9.08118 35.6838 8.91846 35.7238L8.62272 35.7965V27.4524V19.1084H9.48307H10.3434V27.2166ZM38.036 26.2912C39.5847 26.7485 41.0219 27.6977 41.9922 28.9042C42.3001 29.287 42.9703 30.4649 43.6348 31.791L44.7575 34.031V35.4035C44.7575 37.1281 44.868 37.5148 45.5604 38.2115C46.2615 38.9169 46.6284 39.0194 48.4533 39.0194H49.9196V42.2165V45.4138L49.6556 45.6793C49.4006 45.936 49.3408 45.945 47.8931 45.945H46.3946L46.3254 45.5738C46.1915 44.8554 45.5345 43.7287 44.8875 43.1078C42.8226 41.1259 39.8096 41.1259 37.7446 43.1078C37.0977 43.7287 36.4407 44.8554 36.3068 45.5738L36.2375 45.945H25.8297H15.422L15.3527 45.5738C15.2188 44.8554 14.5618 43.7287 13.9148 43.1078C11.8499 41.1259 8.83695 41.1259 6.77199 43.1078C6.12501 43.7287 5.46802 44.8554 5.33413 45.5738L5.26487 45.945H3.50244H1.73991V45.0508V44.1565L2.30451 44.0236C3.26983 43.7962 4.35957 43.1835 5.06957 42.4691C6.08705 41.4453 6.60423 40.4073 6.8362 38.9236L6.96106 38.1246L10.8838 36.9627C13.0413 36.3236 15.0809 35.7213 15.4164 35.624L16.0263 35.4473L18.4215 32.131C19.7389 30.3069 21.0964 28.5409 21.4382 28.2064C22.1432 27.5166 22.9404 26.9999 23.9033 26.6085C25.2586 26.0577 25.4572 26.0439 31.6371 26.0733C36.7627 26.0977 37.4612 26.1215 38.036 26.2912ZM24.7367 27.9713C23.9635 28.2222 23.5238 28.4986 22.9652 29.0844C22.3153 29.7659 18.9469 35.2216 18.9469 35.5928C18.9469 35.7653 19.0584 36.0031 19.211 36.1567L19.4749 36.4223H30.9919H42.5088L42.7728 36.1567C42.9179 36.0106 43.0368 35.7653 43.0368 35.6114C43.0368 35.4575 42.3848 34.0254 41.5882 32.4289C40.2384 29.7242 40.0955 29.4851 39.4947 28.9254C39.1019 28.5594 38.607 28.2261 38.228 28.0721L37.6058 27.8195L31.4758 27.7965C25.7955 27.7752 25.3011 27.788 24.7367 27.9713ZM30.1315 32.0938V34.6909H25.776C23.3804 34.6909 21.4204 34.6654 21.4204 34.6342C21.4204 34.4208 24.1217 30.2866 24.4046 30.0671C25.0532 29.5637 25.4011 29.5066 27.8462 29.5015L30.1315 29.4968V32.0938ZM37.4505 29.6612C38.3592 29.9838 38.5467 30.2227 39.7014 32.5289L40.7838 34.6909H36.3181H31.8522V32.0938V29.4968H34.4197C36.4419 29.4968 37.0857 29.5317 37.4505 29.6612ZM47.8315 35.6103C48.2752 35.8719 49.3819 36.9984 49.3819 37.1886C49.3819 37.2432 48.8474 37.288 48.194 37.288C47.0762 37.288 46.9905 37.2723 46.7422 37.0224C46.5059 36.7846 46.4782 36.6659 46.4782 35.891V35.0252L46.9317 35.1862C47.1812 35.2747 47.5861 35.4656 47.8315 35.6103ZM24.9694 39.0194V39.8851H26.6901H28.4108V39.0194V38.1537H26.6901H24.9694V39.0194ZM39.5954 39.0194V39.8851H41.3161H43.0368V39.0194V38.1537H41.3161H39.5954V39.0194ZM5.05989 39.1361C4.79136 40.3388 3.93412 41.4173 2.78824 41.9941C1.80013 42.4915 1.73743 42.4874 1.86132 41.9327C2.12986 40.7299 2.98709 39.6515 4.13297 39.0746C5.12109 38.5772 5.18378 38.5814 5.05989 39.1361ZM11.7953 43.6812C12.475 44.0057 13.1228 44.6538 13.4628 45.3498C13.6812 45.7965 13.7271 46.0513 13.7263 46.8107C13.7255 47.6491 13.6932 47.7908 13.3608 48.4123C12.9546 49.172 12.6168 49.5002 11.8068 49.9225C11.3413 50.1652 11.1181 50.2095 10.3434 50.2123C9.58577 50.215 9.33724 50.17 8.89158 49.9495C6.09597 48.5663 6.32881 44.5966 9.26852 43.5218C9.94723 43.2736 11.0932 43.3459 11.7953 43.6812ZM42.7679 43.6812C43.4477 44.0057 44.0954 44.6538 44.4355 45.3498C44.6538 45.7965 44.6997 46.0513 44.699 46.8107C44.6981 47.6491 44.6659 47.7908 44.3334 48.4123C43.9272 49.172 43.5894 49.5002 42.7794 49.9225C42.314 50.1652 42.0907 50.2095 41.3161 50.2123C40.5584 50.215 40.3099 50.17 39.8642 49.9495C37.0686 48.5663 37.3015 44.5966 40.2412 43.5218C40.9199 43.2736 42.0659 43.3459 42.7679 43.6812ZM9.48307 46.8107V47.6764H10.3434H11.2038V46.8107V45.945H10.3434H9.48307V46.8107ZM40.4557 46.8107V47.6764H41.3161H42.1764V46.8107V45.945H41.3161H40.4557V46.8107Z" fill="white"/>
<path fill-rule="evenodd" clip-rule="evenodd" d="M0.283223 0.328771L0.0192024 0.594323V9.58576V18.5772L0.283223 18.8427L0.547136 19.1084H3.72527H6.90331L6.87577 27.7311L6.84824 36.3536L5.34263 36.8C3.53062 37.3371 2.67199 37.7783 1.84637 38.5962C1.1439 39.2922 0.749748 39.9157 0.355922 40.9542C0.0968491 41.6377 0.0824382 41.7958 0.0423243 44.3984L0.000274658 47.1261L0.273759 47.4013L0.547136 47.6764H2.906H5.26487L5.33413 48.0475C5.46802 48.7659 6.12501 49.8926 6.77199 50.5136C8.83695 52.4955 11.8499 52.4955 13.9148 50.5136C14.5618 49.8926 15.2188 48.7659 15.3527 48.0475L15.422 47.6764H25.8297H36.2375L36.3068 48.0475C36.4407 48.7659 37.0977 49.8926 37.7446 50.5136C39.8096 52.4955 42.8226 52.4955 44.8875 50.5136C45.5345 49.8926 46.1915 48.7659 46.3254 48.0475L46.3946 47.6764H47.9026C48.7723 47.6764 49.598 47.6206 49.8533 47.5448C50.4441 47.3691 51.335 46.4727 51.5095 45.8783C51.715 45.1782 51.6865 38.8516 51.4737 37.943C51.2098 36.8163 50.7065 35.9153 49.8661 35.0653C49.0439 34.2336 48.2792 33.7785 47.0354 33.3805L46.2481 33.1286L45.1297 30.9069C43.4609 27.592 42.4382 26.4392 40.1869 25.3354C38.1617 24.3424 38.29 24.3567 31.422 24.3567C24.7942 24.3567 24.6933 24.3656 23.0306 25.0946C20.9557 26.0042 20.1381 26.8099 17.3071 30.7342C16.0592 32.464 15.029 33.8929 15.0179 33.9094C15.0068 33.9259 14.4223 34.1094 13.7191 34.3173C13.0159 34.525 12.3559 34.7218 12.2523 34.7543C12.0742 34.8105 12.0641 34.3902 12.0641 26.961V19.1084H15.2415H18.419L18.6829 18.8427L18.9469 18.5772V9.58576V0.594323L18.6829 0.328771L18.419 0.0631104H9.48307H0.547136L0.283223 0.328771ZM34.1661 0.187338C32.3529 0.420967 30.0995 1.18505 28.4896 2.11178C26.1843 3.439 24.0227 5.61406 22.7037 7.93369C21.7462 9.61757 21.0219 11.8274 20.7799 13.8032C20.4288 16.6705 21.0094 20.0637 22.2802 22.57L22.4893 22.9825L23.2186 22.5979C23.6196 22.3863 23.9631 22.2012 23.9818 22.1865C24.0006 22.1719 23.8972 21.9238 23.7521 21.635C23.3656 20.8665 22.872 19.4023 22.6451 18.3509C22.3697 17.0754 22.367 14.2275 22.64 12.9654C23.8515 7.36319 27.9123 3.26943 33.4654 2.05215C34.7331 1.77427 37.5516 1.77578 38.8426 2.05486C40.508 2.4151 42.2699 3.13698 43.6015 4.00484C44.541 4.6171 44.8781 4.89661 45.8659 5.88177C50.5447 10.5479 51.2355 17.892 47.5174 23.4369C47.2181 23.8833 46.5414 24.6976 46.0138 25.2463L45.0544 26.2442L45.5782 26.8962C45.8662 27.2547 46.1321 27.5483 46.1692 27.5485C46.3674 27.5497 48.379 25.2574 48.9896 24.3345C50.8195 21.5687 51.5815 18.9738 51.5725 15.5374C51.5656 12.815 51.1562 11.0627 49.9651 8.65676C47.0613 2.79113 40.6461 -0.64795 34.1661 0.187338ZM17.2262 9.58576V17.377H9.48307H1.73991V9.58576V1.7945H9.48307H17.2262V9.58576ZM5.45329 3.78344L5.18131 4.0571V9.85142V15.6456H6.04166H6.90202V13.0582V10.4707L9.07978 10.434L11.2575 10.3973L11.9352 10.0276C12.6904 9.61563 13.0162 9.27573 13.4369 8.46111C13.6794 7.99147 13.7227 7.77029 13.7247 6.98867C13.7269 6.1457 13.6964 6.01174 13.3602 5.38443C12.9639 4.64502 12.511 4.20774 11.7448 3.82521C11.2844 3.59526 11.1046 3.57989 8.49141 3.5458L5.72527 3.50977L5.45329 3.78344ZM29.9609 9.38081C24.5105 14.8651 24.109 15.2945 24.109 15.6394C24.109 15.9577 24.2288 16.1302 24.9634 16.8693C25.7031 17.6136 25.8333 17.8019 25.9336 18.2727C26.2143 19.5895 27.1127 20.6993 28.3914 21.3089C29.0411 21.6186 29.2076 21.6514 30.1315 21.6514C31.0554 21.6514 31.2219 21.6186 31.8716 21.3089C32.7274 20.9009 33.4485 20.2616 33.7957 19.6029L34.0487 19.1231L34.5075 19.5486C35.3186 20.301 35.3441 20.288 37.7262 17.9025L39.7949 15.8309L39.8576 16.1982C39.9479 16.7281 40.4557 20.8114 40.4557 21.0084C40.4557 21.0996 40.5746 21.2937 40.7197 21.4398C40.974 21.6958 41.0371 21.7055 42.4404 21.7055H43.8971V22.5712V23.4369H44.7575H45.6178V19.1084V14.7799H44.7575H43.8971V17.377V19.9741H42.9971H42.0971L42.0421 19.6224C42.0118 19.429 41.85 18.1393 41.6826 16.7564L41.3781 14.242L42.6536 12.9427L43.929 11.6434L43.8591 10.7275C43.7136 8.82395 42.984 7.25953 41.5853 5.85212C40.1844 4.44255 38.632 3.71061 36.7316 3.56355L35.8129 3.49256L29.9609 9.38081ZM11.2702 5.53452C11.8344 5.95882 12.0104 6.30456 12.0104 6.98867C12.0104 7.67279 11.8344 8.01853 11.2702 8.44283C10.9994 8.64659 10.7968 8.66888 8.93782 8.69961L6.90202 8.73316V6.98867V5.24419L8.93782 5.27773C10.7968 5.30847 10.9994 5.33076 11.2702 5.53452ZM37.9284 5.54848C40.1293 6.23649 41.7649 8.17078 42.1199 10.5056C42.1822 10.9159 42.1576 10.9662 41.6473 11.4716C41.169 11.9451 41.1006 11.9814 41.0352 11.7962C40.4808 10.2272 39.882 9.24468 38.9191 8.32412C37.9565 7.40367 37.1756 6.94149 35.6779 6.40563C35.4939 6.33983 35.5299 6.27101 36.0005 5.78968C36.5027 5.27622 36.5527 5.25144 36.9605 5.3142C37.1971 5.35056 37.6327 5.45607 37.9284 5.54848ZM35.3474 8.14557C37.5333 8.82893 39.1919 10.7909 39.5378 13.1026L39.6026 13.5355L37.45 15.6968L35.2974 17.8581L33.7547 16.319C31.8358 14.4047 31.8799 14.4153 30.6837 15.5784C29.641 16.5924 29.3061 16.7676 28.4108 16.7671C27.6173 16.7667 27.0548 16.53 26.5325 15.977L26.2136 15.6392L30.0815 11.7434L33.9493 7.84744L34.3795 7.91248C34.6161 7.94819 35.0516 8.05315 35.3474 8.14557ZM32.3119 17.352C32.6989 17.7508 32.7048 17.7695 32.5786 18.1907C32.4044 18.7713 31.505 19.6702 30.9256 19.8425C29.949 20.1329 29.1232 19.9278 28.3847 19.2115C27.7982 18.6428 27.7468 18.478 28.1754 18.5413C29.0335 18.668 30.5125 18.123 31.3304 17.3789C31.5879 17.1447 31.8249 16.9511 31.8573 16.9486C31.8896 16.9461 32.0942 17.1277 32.3119 17.352ZM10.3434 27.2166V35.3248L9.77882 35.488C9.46823 35.5777 9.08118 35.6838 8.91846 35.7238L8.62272 35.7965V27.4524V19.1084H9.48307H10.3434V27.2166ZM38.036 26.2912C39.5847 26.7485 41.0219 27.6977 41.9922 28.9042C42.3001 29.287 42.9703 30.4649 43.6348 31.791L44.7575 34.031V35.4035C44.7575 37.1281 44.868 37.5148 45.5604 38.2115C46.2615 38.9169 46.6284 39.0194 48.4533 39.0194H49.9196V42.2165V45.4138L49.6556 45.6793C49.4006 45.936 49.3408 45.945 47.8931 45.945H46.3946L46.3254 45.5738C46.1915 44.8554 45.5345 43.7287 44.8875 43.1078C42.8226 41.1259 39.8096 41.1259 37.7446 43.1078C37.0977 43.7287 36.4407 44.8554 36.3068 45.5738L36.2375 45.945H25.8297H15.422L15.3527 45.5738C15.2188 44.8554 14.5618 43.7287 13.9148 43.1078C11.8499 41.1259 8.83695 41.1259 6.77199 43.1078C6.12501 43.7287 5.46802 44.8554 5.33413 45.5738L5.26487 45.945H3.50244H1.73991V45.0508V44.1565L2.30451 44.0236C3.26983 43.7962 4.35957 43.1835 5.06957 42.4691C6.08705 41.4453 6.60423 40.4073 6.8362 38.9236L6.96106 38.1246L10.8838 36.9627C13.0413 36.3236 15.0809 35.7213 15.4164 35.624L16.0263 35.4473L18.4215 32.131C19.7389 30.3069 21.0964 28.5409 21.4382 28.2064C22.1432 27.5166 22.9404 26.9999 23.9033 26.6085C25.2586 26.0577 25.4572 26.0439 31.6371 26.0733C36.7627 26.0977 37.4612 26.1215 38.036 26.2912ZM24.7367 27.9713C23.9635 28.2222 23.5238 28.4986 22.9652 29.0844C22.3153 29.7659 18.9469 35.2216 18.9469 35.5928C18.9469 35.7653 19.0584 36.0031 19.211 36.1567L19.4749 36.4223H30.9919H42.5088L42.7728 36.1567C42.9179 36.0106 43.0368 35.7653 43.0368 35.6114C43.0368 35.4575 42.3848 34.0254 41.5882 32.4289C40.2384 29.7242 40.0955 29.4851 39.4947 28.9254C39.1019 28.5594 38.607 28.2261 38.228 28.0721L37.6058 27.8195L31.4758 27.7965C25.7955 27.7752 25.3011 27.788 24.7367 27.9713ZM30.1315 32.0938V34.6909H25.776C23.3804 34.6909 21.4204 34.6654 21.4204 34.6342C21.4204 34.4208 24.1217 30.2866 24.4046 30.0671C25.0532 29.5637 25.4011 29.5066 27.8462 29.5015L30.1315 29.4968V32.0938ZM37.4505 29.6612C38.3592 29.9838 38.5467 30.2227 39.7014 32.5289L40.7838 34.6909H36.3181H31.8522V32.0938V29.4968H34.4197C36.4419 29.4968 37.0857 29.5317 37.4505 29.6612ZM47.8315 35.6103C48.2752 35.8719 49.3819 36.9984 49.3819 37.1886C49.3819 37.2432 48.8474 37.288 48.194 37.288C47.0762 37.288 46.9905 37.2723 46.7422 37.0224C46.5059 36.7846 46.4782 36.6659 46.4782 35.891V35.0252L46.9317 35.1862C47.1812 35.2747 47.5861 35.4656 47.8315 35.6103ZM24.9694 39.0194V39.8851H26.6901H28.4108V39.0194V38.1537H26.6901H24.9694V39.0194ZM39.5954 39.0194V39.8851H41.3161H43.0368V39.0194V38.1537H41.3161H39.5954V39.0194ZM5.05989 39.1361C4.79136 40.3388 3.93412 41.4173 2.78824 41.9941C1.80013 42.4915 1.73743 42.4874 1.86132 41.9327C2.12986 40.7299 2.98709 39.6515 4.13297 39.0746C5.12109 38.5772 5.18378 38.5814 5.05989 39.1361ZM11.7953 43.6812C12.475 44.0057 13.1228 44.6538 13.4628 45.3498C13.6812 45.7965 13.7271 46.0513 13.7263 46.8107C13.7255 47.6491 13.6932 47.7908 13.3608 48.4123C12.9546 49.172 12.6168 49.5002 11.8068 49.9225C11.3413 50.1652 11.1181 50.2095 10.3434 50.2123C9.58577 50.215 9.33724 50.17 8.89158 49.9495C6.09597 48.5663 6.32881 44.5966 9.26852 43.5218C9.94723 43.2736 11.0932 43.3459 11.7953 43.6812ZM42.7679 43.6812C43.4477 44.0057 44.0954 44.6538 44.4355 45.3498C44.6538 45.7965 44.6997 46.0513 44.699 46.8107C44.6981 47.6491 44.6659 47.7908 44.3334 48.4123C43.9272 49.172 43.5894 49.5002 42.7794 49.9225C42.314 50.1652 42.0907 50.2095 41.3161 50.2123C40.5584 50.215 40.3099 50.17 39.8642 49.9495C37.0686 48.5663 37.3015 44.5966 40.2412 43.5218C40.9199 43.2736 42.0659 43.3459 42.7679 43.6812ZM9.48307 46.8107V47.6764H10.3434H11.2038V46.8107V45.945H10.3434H9.48307V46.8107ZM40.4557 46.8107V47.6764H41.3161H42.1764V46.8107V45.945H41.3161H40.4557V46.8107Z" fill="url(#paint0_linear_102_113)"/>
<defs>
<linearGradient id="paint0_linear_102_113" x1="51.6494" y1="52" x2="0.000274658" y2="52" gradientUnits="userSpaceOnUse">
<stop stop-color="#D3AA90"/>
<stop offset="1" stop-color="#BE8D71"/>
</linearGradient>
</defs>
</svg>
