<svg width="51" height="51" viewBox="0 0 51 51" fill="none" xmlns="http://www.w3.org/2000/svg">
<path fill-rule="evenodd" clip-rule="evenodd" d="M6.03951 0.146594C5.53002 0.428011 5.5437 0.205251 5.53996 8.22462L5.53651 15.7039H3.26763C0.801687 15.7039 0.564266 15.7475 0.338756 16.2406C0.16827 16.6134 0.16827 49.3218 0.338756 49.6945C0.601277 50.2688 -1.15487 50.2312 25.42 50.2312C51.9948 50.2312 50.2387 50.2688 50.5012 49.6945C50.5909 49.4983 50.6189 45.5256 50.6189 32.9581C50.6189 15.0369 50.6516 16.0806 50.0802 15.8211C49.904 15.7411 49.1049 15.7039 47.5628 15.7039H45.3035V8.24423C45.3035 0.14571 45.3189 0.378378 44.7648 0.126878C44.3657 -0.0543908 6.36827 -0.0350673 6.03951 0.146594ZM43.3348 8.83767V15.7039H36.4888C29.058 15.7039 29.2339 15.6913 28.9828 16.2406C28.834 16.5659 28.834 16.8037 28.9828 17.1289C29.2382 17.6876 28.8232 17.6657 39.1465 17.6657H48.6502V21.5892V25.5128H25.42H2.18979V21.5892V17.6657H11.684C18.8352 17.6657 21.2418 17.6367 21.4362 17.5485C21.8994 17.3382 22.0893 16.7483 21.8572 16.2406C21.6061 15.6913 21.782 15.7039 14.3512 15.7039H7.50517V8.83767V1.97144H25.42H43.3348V8.83767ZM14.1057 4.04014C13.8651 4.08722 13.3422 4.28006 12.9434 4.46869C11.066 5.35718 9.93627 7.4762 10.248 9.5243C10.8016 13.1612 15.1527 14.9979 17.8797 12.7457C18.7755 12.0059 19.4311 10.5127 19.453 9.16313C19.4644 8.45365 19.4547 8.42158 19.1433 8.14369L18.8218 7.85678H17.3913C15.8245 7.85678 15.509 7.9378 15.3006 8.39353C15.1458 8.73174 15.1521 8.98412 15.3232 9.3139C15.5173 9.68791 15.8645 9.81856 16.6641 9.81856C17.4763 9.81856 17.5063 9.88438 17.0528 10.6723C16.6192 11.4258 16.0513 11.7313 15.0845 11.7313C14.2233 11.7313 13.6041 11.4822 13.0209 10.901C12.4452 10.3274 12.1934 9.69948 12.1934 8.83767C12.1934 7.96282 12.4492 7.33868 13.0431 6.76437C13.669 6.15906 14.2192 5.94375 15.1337 5.94611C15.8328 5.94787 15.9927 5.98505 16.5577 6.27696C17.1004 6.5574 17.244 6.5932 17.5326 6.52022C18.2275 6.34425 18.5029 5.4587 18.0225 4.9453C17.3104 4.18443 15.5038 3.76696 14.1057 4.04014ZM21.9527 4.08614C21.621 4.26555 21.4827 4.51205 21.4827 4.92402C21.4827 5.16502 21.7723 5.67881 22.6885 7.06393L23.8943 8.88672L23.9435 11.0284L23.9927 13.1702L24.3142 13.4561C24.491 13.6134 24.7479 13.7421 24.885 13.7421C25.2114 13.7421 25.683 13.495 25.8108 13.2571C25.8707 13.1456 25.9126 12.2531 25.913 11.0757L25.9138 9.0829L27.1631 7.17967C28.5138 5.12186 28.6044 4.87743 28.2104 4.35157C27.9448 3.99708 27.4901 3.8675 27.0905 4.03249C26.8613 4.12705 26.5653 4.49498 25.8958 5.51707C25.4062 6.26441 24.9771 6.87422 24.9422 6.87217C24.9073 6.87011 24.5243 6.31492 24.0911 5.6385C23.658 4.96208 23.1785 4.30164 23.0254 4.17089C22.7107 3.90203 22.3463 3.87329 21.9527 4.08614ZM32.3854 4.08673C32.2372 4.16687 32.0501 4.35922 31.9697 4.5142C31.8137 4.81475 30.4401 12.2111 30.4401 12.7502C30.4401 13.4503 31.3488 13.8907 31.9643 13.4889C32.2761 13.2852 32.3357 13.0762 32.7585 10.7014C32.9553 9.59541 33.1271 8.67936 33.1403 8.66563C33.1534 8.65199 33.4446 9.601 33.7876 10.7745C34.1305 11.9482 34.4759 13.0238 34.5553 13.1648C34.7788 13.5625 35.2152 13.7744 35.6822 13.7119C36.3921 13.6171 36.5034 13.4143 37.2355 10.8794L37.8961 8.59245L38.003 9.13194C38.0618 9.42866 38.2651 10.466 38.4548 11.437C38.7585 12.9915 38.8302 13.229 39.0548 13.4233C39.5869 13.8835 40.5082 13.5937 40.628 12.9287C40.6864 12.6047 39.3024 5.12677 39.0836 4.58375C38.9451 4.24004 38.467 3.93391 38.0686 3.93391C37.7017 3.93391 37.1621 4.25221 37.031 4.54608C36.9767 4.66752 36.6247 5.84331 36.2487 7.15878C35.8727 8.47425 35.55 9.56559 35.5315 9.58393C35.513 9.60238 35.2178 8.65846 34.8754 7.4865C34.0375 4.61867 33.9328 4.35157 33.5555 4.12234C33.1877 3.89889 32.7571 3.88575 32.3854 4.08673ZM24.9387 15.8408C24.0853 16.3122 24.4424 17.6657 25.42 17.6657C25.9188 17.6657 26.4043 17.1865 26.4043 16.6943C26.4043 15.9579 25.5876 15.4823 24.9387 15.8408ZM14.9861 35.5179V43.5612H8.58794H2.18979V35.5179V27.4746H8.58794H14.9861V35.5179ZM24.4357 37.872V48.2695H20.6952H16.9547V37.872V27.4746H20.6952H24.4357V37.872ZM33.8852 37.872V48.2695H30.1448H26.4043V37.872V27.4746H30.1448H33.8852V37.872ZM48.6502 35.5179V43.5612H42.252H35.8539V35.5179V27.4746H42.252H48.6502V35.5179ZM8.62692 30.5696C8.45889 30.6535 7.36264 31.684 6.1907 32.8595C4.08886 34.968 4.06002 35.0025 4.06002 35.412C4.06002 35.9974 4.46468 36.4007 5.05212 36.4007C5.46308 36.4007 5.49773 36.372 7.61542 34.2757C8.79603 33.1069 9.83292 32.0017 9.91964 31.8197C10.3036 31.0133 9.43013 30.1686 8.62692 30.5696ZM42.291 30.5696C42.123 30.6535 41.0267 31.684 39.8548 32.8595C37.753 34.968 37.7241 35.0025 37.7241 35.412C37.7241 35.7402 37.7845 35.8874 38.0118 36.114C38.2392 36.3406 38.387 36.4007 38.7162 36.4007C39.1272 36.4007 39.1618 36.372 41.2795 34.2757C42.4601 33.1069 43.497 32.0017 43.5837 31.8197C43.9677 31.0133 43.0942 30.1686 42.291 30.5696ZM8.76472 37.6558L6.52084 39.8918V40.3398C6.52084 40.9672 6.85995 41.3051 7.48952 41.3051H7.93917L10.1829 39.0691L12.4268 36.8332V36.3851C12.4268 35.7577 12.0877 35.4198 11.4581 35.4198H11.0085L8.76472 37.6558ZM42.4288 37.6558L40.1849 39.8918V40.3398C40.1849 40.6932 40.2398 40.8426 40.4444 41.0466C40.6491 41.2505 40.7991 41.3051 41.1536 41.3051H41.6033L43.8471 39.0691L46.0909 36.8332V36.3851C46.0909 35.7577 45.7518 35.4198 45.1223 35.4198H44.6726L42.4288 37.6558ZM14.9861 46.8962V48.2695H8.58794H2.18979V46.8962V45.523H8.58794H14.9861V46.8962ZM48.6502 46.8962V48.2695H42.252H35.8539V46.8962V45.523H42.252H48.6502V46.8962Z" fill="white"/>
<path fill-rule="evenodd" clip-rule="evenodd" d="M6.03951 0.146594C5.53002 0.428011 5.5437 0.205251 5.53996 8.22462L5.53651 15.7039H3.26763C0.801687 15.7039 0.564266 15.7475 0.338756 16.2406C0.16827 16.6134 0.16827 49.3218 0.338756 49.6945C0.601277 50.2688 -1.15487 50.2312 25.42 50.2312C51.9948 50.2312 50.2387 50.2688 50.5012 49.6945C50.5909 49.4983 50.6189 45.5256 50.6189 32.9581C50.6189 15.0369 50.6516 16.0806 50.0802 15.8211C49.904 15.7411 49.1049 15.7039 47.5628 15.7039H45.3035V8.24423C45.3035 0.14571 45.3189 0.378378 44.7648 0.126878C44.3657 -0.0543908 6.36827 -0.0350673 6.03951 0.146594ZM43.3348 8.83767V15.7039H36.4888C29.058 15.7039 29.2339 15.6913 28.9828 16.2406C28.834 16.5659 28.834 16.8037 28.9828 17.1289C29.2382 17.6876 28.8232 17.6657 39.1465 17.6657H48.6502V21.5892V25.5128H25.42H2.18979V21.5892V17.6657H11.684C18.8352 17.6657 21.2418 17.6367 21.4362 17.5485C21.8994 17.3382 22.0893 16.7483 21.8572 16.2406C21.6061 15.6913 21.782 15.7039 14.3512 15.7039H7.50517V8.83767V1.97144H25.42H43.3348V8.83767ZM14.1057 4.04014C13.8651 4.08722 13.3422 4.28006 12.9434 4.46869C11.066 5.35718 9.93627 7.4762 10.248 9.5243C10.8016 13.1612 15.1527 14.9979 17.8797 12.7457C18.7755 12.0059 19.4311 10.5127 19.453 9.16313C19.4644 8.45365 19.4547 8.42158 19.1433 8.14369L18.8218 7.85678H17.3913C15.8245 7.85678 15.509 7.9378 15.3006 8.39353C15.1458 8.73174 15.1521 8.98412 15.3232 9.3139C15.5173 9.68791 15.8645 9.81856 16.6641 9.81856C17.4763 9.81856 17.5063 9.88438 17.0528 10.6723C16.6192 11.4258 16.0513 11.7313 15.0845 11.7313C14.2233 11.7313 13.6041 11.4822 13.0209 10.901C12.4452 10.3274 12.1934 9.69948 12.1934 8.83767C12.1934 7.96282 12.4492 7.33868 13.0431 6.76437C13.669 6.15906 14.2192 5.94375 15.1337 5.94611C15.8328 5.94787 15.9927 5.98505 16.5577 6.27696C17.1004 6.5574 17.244 6.5932 17.5326 6.52022C18.2275 6.34425 18.5029 5.4587 18.0225 4.9453C17.3104 4.18443 15.5038 3.76696 14.1057 4.04014ZM21.9527 4.08614C21.621 4.26555 21.4827 4.51205 21.4827 4.92402C21.4827 5.16502 21.7723 5.67881 22.6885 7.06393L23.8943 8.88672L23.9435 11.0284L23.9927 13.1702L24.3142 13.4561C24.491 13.6134 24.7479 13.7421 24.885 13.7421C25.2114 13.7421 25.683 13.495 25.8108 13.2571C25.8707 13.1456 25.9126 12.2531 25.913 11.0757L25.9138 9.0829L27.1631 7.17967C28.5138 5.12186 28.6044 4.87743 28.2104 4.35157C27.9448 3.99708 27.4901 3.8675 27.0905 4.03249C26.8613 4.12705 26.5653 4.49498 25.8958 5.51707C25.4062 6.26441 24.9771 6.87422 24.9422 6.87217C24.9073 6.87011 24.5243 6.31492 24.0911 5.6385C23.658 4.96208 23.1785 4.30164 23.0254 4.17089C22.7107 3.90203 22.3463 3.87329 21.9527 4.08614ZM32.3854 4.08673C32.2372 4.16687 32.0501 4.35922 31.9697 4.5142C31.8137 4.81475 30.4401 12.2111 30.4401 12.7502C30.4401 13.4503 31.3488 13.8907 31.9643 13.4889C32.2761 13.2852 32.3357 13.0762 32.7585 10.7014C32.9553 9.59541 33.1271 8.67936 33.1403 8.66563C33.1534 8.65199 33.4446 9.601 33.7876 10.7745C34.1305 11.9482 34.4759 13.0238 34.5553 13.1648C34.7788 13.5625 35.2152 13.7744 35.6822 13.7119C36.3921 13.6171 36.5034 13.4143 37.2355 10.8794L37.8961 8.59245L38.003 9.13194C38.0618 9.42866 38.2651 10.466 38.4548 11.437C38.7585 12.9915 38.8302 13.229 39.0548 13.4233C39.5869 13.8835 40.5082 13.5937 40.628 12.9287C40.6864 12.6047 39.3024 5.12677 39.0836 4.58375C38.9451 4.24004 38.467 3.93391 38.0686 3.93391C37.7017 3.93391 37.1621 4.25221 37.031 4.54608C36.9767 4.66752 36.6247 5.84331 36.2487 7.15878C35.8727 8.47425 35.55 9.56559 35.5315 9.58393C35.513 9.60238 35.2178 8.65846 34.8754 7.4865C34.0375 4.61867 33.9328 4.35157 33.5555 4.12234C33.1877 3.89889 32.7571 3.88575 32.3854 4.08673ZM24.9387 15.8408C24.0853 16.3122 24.4424 17.6657 25.42 17.6657C25.9188 17.6657 26.4043 17.1865 26.4043 16.6943C26.4043 15.9579 25.5876 15.4823 24.9387 15.8408ZM14.9861 35.5179V43.5612H8.58794H2.18979V35.5179V27.4746H8.58794H14.9861V35.5179ZM24.4357 37.872V48.2695H20.6952H16.9547V37.872V27.4746H20.6952H24.4357V37.872ZM33.8852 37.872V48.2695H30.1448H26.4043V37.872V27.4746H30.1448H33.8852V37.872ZM48.6502 35.5179V43.5612H42.252H35.8539V35.5179V27.4746H42.252H48.6502V35.5179ZM8.62692 30.5696C8.45889 30.6535 7.36264 31.684 6.1907 32.8595C4.08886 34.968 4.06002 35.0025 4.06002 35.412C4.06002 35.9974 4.46468 36.4007 5.05212 36.4007C5.46308 36.4007 5.49773 36.372 7.61542 34.2757C8.79603 33.1069 9.83292 32.0017 9.91964 31.8197C10.3036 31.0133 9.43013 30.1686 8.62692 30.5696ZM42.291 30.5696C42.123 30.6535 41.0267 31.684 39.8548 32.8595C37.753 34.968 37.7241 35.0025 37.7241 35.412C37.7241 35.7402 37.7845 35.8874 38.0118 36.114C38.2392 36.3406 38.387 36.4007 38.7162 36.4007C39.1272 36.4007 39.1618 36.372 41.2795 34.2757C42.4601 33.1069 43.497 32.0017 43.5837 31.8197C43.9677 31.0133 43.0942 30.1686 42.291 30.5696ZM8.76472 37.6558L6.52084 39.8918V40.3398C6.52084 40.9672 6.85995 41.3051 7.48952 41.3051H7.93917L10.1829 39.0691L12.4268 36.8332V36.3851C12.4268 35.7577 12.0877 35.4198 11.4581 35.4198H11.0085L8.76472 37.6558ZM42.4288 37.6558L40.1849 39.8918V40.3398C40.1849 40.6932 40.2398 40.8426 40.4444 41.0466C40.6491 41.2505 40.7991 41.3051 41.1536 41.3051H41.6033L43.8471 39.0691L46.0909 36.8332V36.3851C46.0909 35.7577 45.7518 35.4198 45.1223 35.4198H44.6726L42.4288 37.6558ZM14.9861 46.8962V48.2695H8.58794H2.18979V46.8962V45.523H8.58794H14.9861V46.8962ZM48.6502 46.8962V48.2695H42.252H35.8539V46.8962V45.523H42.252H48.6502V46.8962Z" fill="url(#paint0_linear_102_91)"/>
<defs>
<linearGradient id="paint0_linear_102_91" x1="50.6192" y1="50.2317" x2="0.210892" y2="50.2317" gradientUnits="userSpaceOnUse">
<stop stop-color="#D3AA90"/>
<stop offset="1" stop-color="#BE8D71"/>
</linearGradient>
</defs>
</svg>
