<svg width="58" height="60" viewBox="0 0 58 60" fill="none" xmlns="http://www.w3.org/2000/svg">
<path fill-rule="evenodd" clip-rule="evenodd" d="M2.24468 0.142006C1.67649 0.34178 1.18798 0.776595 0.930525 1.31165L0.688171 1.81537V23.7449V45.6744L0.956467 46.1858C1.10393 46.467 1.44567 46.8537 1.71581 47.0451L2.20686 47.3932L18.2446 47.4238C32.9254 47.4518 34.3002 47.4706 34.4916 47.6448C34.6868 47.8225 34.7007 48.1412 34.7007 52.4643C34.7007 55.4164 34.7461 57.2751 34.8261 57.5949C34.9878 58.2407 35.5388 58.9089 36.1337 59.1809C36.5591 59.3753 36.955 59.3956 40.3662 59.3979C44.5476 59.4007 44.5372 59.4026 44.6864 58.6251C44.7436 58.3271 44.7 58.1981 44.4613 57.958L44.1655 57.6603H40.5505C37.6116 57.6603 36.8935 57.6296 36.7116 57.4958C36.4976 57.3384 36.4852 57.1105 36.4301 52.294L36.3725 47.2569L36.0424 46.7778C35.8362 46.4786 35.4922 46.1884 35.1262 46.0049L34.5401 45.711H29.778H25.0158V44.7192V43.7274L30.06 43.7621L35.1042 43.7968L35.8796 44.1664C36.8096 44.6097 37.5634 45.353 38.0089 46.2659L38.3325 46.9291L38.3902 51.087L38.4478 55.2449L38.72 55.4665C38.9813 55.6793 39.2748 55.6881 46.0546 55.6881C53.0249 55.6881 53.121 55.685 53.4208 55.4476L53.7246 55.2072V42.9182V30.6293H54.7046H55.6847V43.9626C55.6847 55.9289 55.6661 57.3144 55.5035 57.478C55.3446 57.6378 54.741 57.6603 50.6189 57.6603C46.0352 57.6603 45.9078 57.6665 45.6118 57.9008C45.1896 58.2349 45.1916 58.8275 45.6163 59.1636C45.9201 59.4041 45.9943 59.4071 50.8334 59.375C55.5547 59.3438 55.7599 59.3332 56.2035 59.1001C56.4571 58.9668 56.8203 58.6361 57.0106 58.3651L57.3565 57.8724V29.7012V1.5301L57.0106 1.03739C56.8203 0.766386 56.4571 0.435634 56.2035 0.302335L55.7423 0.0599846L34.7829 0.0300534L13.8233 0.00012207L13.5395 0.285861C13.1779 0.649561 13.1776 1.09424 13.5386 1.45736L13.8215 1.74217H34.5719C53.2822 1.74217 55.3401 1.76004 55.5035 1.92443C55.6644 2.08638 55.6847 2.92515 55.6847 9.40725V16.7078H54.7046H53.7246V10.4516V4.19526L53.4208 3.95488L53.117 3.71439H29.0511H4.98528L4.68147 3.95488L4.37766 4.19526V23.7147V43.2342L4.64446 43.4866C4.90526 43.733 4.9847 43.7388 8.10336 43.7388H11.2955V44.7249V45.711H7.03767C3.32074 45.711 2.75694 45.6878 2.59875 45.5287C2.43538 45.3642 2.41762 43.2262 2.41762 23.7266C2.41762 4.22693 2.43538 2.08893 2.59875 1.92443C2.75671 1.7656 3.30552 1.74217 6.87003 1.74217H10.9601L11.243 1.45736C11.6038 1.09447 11.6038 0.649677 11.243 0.28679L10.9601 0.00197827L6.77526 0.0111433C4.17716 0.0168279 2.45947 0.0663653 2.24468 0.142006ZM9.45071 12.9782V20.5019L9.71359 20.8945C9.85817 21.1103 10.1047 21.3521 10.2612 21.432C10.4763 21.5414 11.8103 21.5773 15.7073 21.5786L20.8684 21.5803L21.2992 21.1832L21.7298 20.7861L21.761 13.1203L21.7923 5.45458H24.0958H26.3993V12.624V19.7935L26.0139 19.9338C25.6535 20.0649 25.3616 20.4597 25.3616 20.8161C25.3616 20.9002 25.4692 21.1066 25.6007 21.2747C25.8362 21.5761 25.8601 21.5803 27.2938 21.5803C28.6282 21.5803 28.77 21.5596 29.0149 21.3281C29.5352 20.8364 29.2335 20.0334 28.4711 19.8801L28.1288 19.8112V12.6329V5.45458H29.4474H30.7659L30.8021 8.32589C30.8364 11.0469 30.8518 11.2228 31.0983 11.687C31.4861 12.4172 31.9615 12.91 32.6462 13.2917C33.1911 13.5953 33.3688 13.6334 34.2395 13.6321C35.0416 13.6309 35.3137 13.5813 35.7383 13.3585C36.4445 12.9881 36.9679 12.4695 37.3339 11.7773C37.6389 11.2007 37.641 11.1799 37.6768 8.32589L37.713 5.45458H38.7844H39.8557L39.9204 6.31504C40.0337 7.82216 40.7057 8.8795 41.8944 9.42082C42.4496 9.67373 42.621 9.68904 44.9044 9.68904C47.5948 9.68904 47.8978 9.6221 48.7938 8.83055C49.4787 8.22542 49.8045 7.429 49.8045 6.35994V5.45458H50.8998H51.9952V20.5942V35.7339H49.9152C48.0838 35.7339 47.7829 35.7608 47.3966 35.9591C46.8235 36.2533 46.2733 36.8932 46.122 37.442C46.0456 37.7184 46.0008 39.8533 46.0004 43.225L45.9997 48.5697L46.3168 49.199C46.5548 49.6712 46.7753 49.9153 47.2008 50.1769L47.7677 50.5255L49.8814 50.5617L51.9952 50.5979V52.2729V53.9479H46.0574H40.1196V50.6079C40.1196 46.9077 40.0594 46.4582 39.3954 45.2015C38.9603 44.3781 37.9757 43.3276 37.228 42.8893C36.1182 42.2387 35.472 42.0886 33.5189 42.0276L31.703 41.9709V35.7781V29.5852H36.9518H42.2007L42.2706 29.9369C42.3461 30.3165 42.7952 30.7453 43.1173 30.7453C43.2271 30.7453 43.4535 30.6371 43.6206 30.5049C43.9231 30.2654 43.9244 30.2576 43.9244 28.6288C43.9244 26.7553 43.8513 26.5689 43.1173 26.5689C42.6067 26.5689 42.3606 26.8073 42.2495 27.41L42.1692 27.845H36.302C30.5884 27.845 30.4287 27.8511 30.2041 28.0771C29.9787 28.3039 29.9735 28.4637 29.9735 35.1538V41.9986H18.0403H6.10711V40.7224V39.4463L13.4573 39.4461C21.6514 39.446 21.3197 39.4775 21.8716 38.646C22.1285 38.2591 22.1333 38.1907 22.1333 34.9218C22.1333 31.6529 22.1285 31.5845 21.8716 31.1976C21.3197 30.3661 21.6514 30.3977 13.4573 30.3975L6.10711 30.3973V29.3532V28.3091H14.0049C21.8844 28.3091 21.9027 28.3097 21.9027 28.5463C21.9027 28.8792 22.4107 29.3532 22.7675 29.3532C22.9318 29.3532 23.1935 29.225 23.3491 29.0684C23.6185 28.7975 23.6322 28.7156 23.6322 27.381C23.6322 26.0464 23.6185 25.9645 23.3491 25.6936C23.1935 25.537 22.9318 25.4088 22.7675 25.4088C22.3853 25.4088 21.9027 25.8913 21.9027 26.2736V26.5689H14.0049H6.10711V16.0117V5.45458H7.77891H9.45071V12.9782ZM20.058 6.49869V7.54281H15.6191H11.1802V6.49869V5.45458H15.6191H20.058V6.49869ZM48.0751 6.15645C48.0751 6.99534 47.8619 7.4638 47.3525 7.74386C47.0341 7.91903 46.6682 7.94885 44.8416 7.94885C42.9929 7.94885 42.6614 7.92112 42.3931 7.7442C41.9064 7.4232 41.712 7.02307 41.6471 6.20866L41.5869 5.45458H44.831H48.0751V6.15645ZM35.9687 8.15187C35.9686 10.864 35.9068 11.1608 35.2399 11.653C34.7869 11.9874 33.6931 11.9898 33.2508 11.6575C32.5702 11.1463 32.51 10.8615 32.51 8.15373V5.6866H34.2395H35.9689L35.9687 8.15187ZM20.058 14.5616V19.8402H15.6191H11.1802V14.5616V9.283H15.6191H20.058V14.5616ZM44.2378 15.3593C41.5517 16.3673 41.3933 19.9442 43.982 21.1317C44.6603 21.4428 45.789 21.4178 46.5194 21.0756C47.602 20.5683 48.2137 19.5878 48.2308 18.332C48.2478 17.0983 47.6417 16.0946 46.5375 15.5278C45.9382 15.2202 44.8256 15.1386 44.2378 15.3593ZM46.0595 17.2898C46.9984 18.1775 46.4635 19.6081 45.1927 19.6081C44.2671 19.6081 43.641 18.7899 43.9188 17.943C44.0459 17.5553 44.4031 17.1478 44.7315 17.0159C45.0577 16.885 45.7912 17.0362 46.0595 17.2898ZM55.6847 23.6732V28.8985L54.7335 28.8648L53.7823 28.8311L53.7522 23.7846C53.7357 21.009 53.747 18.6728 53.7774 18.593C53.8152 18.4937 54.1242 18.448 54.7587 18.448H55.6847V23.6732ZM8.18245 34.9218V37.7061H7.14478H6.10711V34.9218V32.1375H7.14478H8.18245V34.9218ZM20.4039 34.9218V37.7061H15.1579H9.9119V34.9218V32.1375H15.1579H20.4039V34.9218ZM51.9952 43.1587V48.8433H50.129C48.3717 48.8433 48.2473 48.8286 47.996 48.5911L47.7292 48.3388V43.1643C47.7292 38.6687 47.7527 37.9559 47.9087 37.732C48.0821 37.4828 48.1537 37.4741 50.0417 37.4741H51.9952V43.1587ZM23.2863 44.7249V45.711H18.1556H13.0249V44.7249V43.7388H18.1556H23.2863V44.7249Z" fill="white"/>
<path fill-rule="evenodd" clip-rule="evenodd" d="M2.24468 0.142006C1.67649 0.34178 1.18798 0.776595 0.930525 1.31165L0.688171 1.81537V23.7449V45.6744L0.956467 46.1858C1.10393 46.467 1.44567 46.8537 1.71581 47.0451L2.20686 47.3932L18.2446 47.4238C32.9254 47.4518 34.3002 47.4706 34.4916 47.6448C34.6868 47.8225 34.7007 48.1412 34.7007 52.4643C34.7007 55.4164 34.7461 57.2751 34.8261 57.5949C34.9878 58.2407 35.5388 58.9089 36.1337 59.1809C36.5591 59.3753 36.955 59.3956 40.3662 59.3979C44.5476 59.4007 44.5372 59.4026 44.6864 58.6251C44.7436 58.3271 44.7 58.1981 44.4613 57.958L44.1655 57.6603H40.5505C37.6116 57.6603 36.8935 57.6296 36.7116 57.4958C36.4976 57.3384 36.4852 57.1105 36.4301 52.294L36.3725 47.2569L36.0424 46.7778C35.8362 46.4786 35.4922 46.1884 35.1262 46.0049L34.5401 45.711H29.778H25.0158V44.7192V43.7274L30.06 43.7621L35.1042 43.7968L35.8796 44.1664C36.8096 44.6097 37.5634 45.353 38.0089 46.2659L38.3325 46.9291L38.3902 51.087L38.4478 55.2449L38.72 55.4665C38.9813 55.6793 39.2748 55.6881 46.0546 55.6881C53.0249 55.6881 53.121 55.685 53.4208 55.4476L53.7246 55.2072V42.9182V30.6293H54.7046H55.6847V43.9626C55.6847 55.9289 55.6661 57.3144 55.5035 57.478C55.3446 57.6378 54.741 57.6603 50.6189 57.6603C46.0352 57.6603 45.9078 57.6665 45.6118 57.9008C45.1896 58.2349 45.1916 58.8275 45.6163 59.1636C45.9201 59.4041 45.9943 59.4071 50.8334 59.375C55.5547 59.3438 55.7599 59.3332 56.2035 59.1001C56.4571 58.9668 56.8203 58.6361 57.0106 58.3651L57.3565 57.8724V29.7012V1.5301L57.0106 1.03739C56.8203 0.766386 56.4571 0.435634 56.2035 0.302335L55.7423 0.0599846L34.7829 0.0300534L13.8233 0.00012207L13.5395 0.285861C13.1779 0.649561 13.1776 1.09424 13.5386 1.45736L13.8215 1.74217H34.5719C53.2822 1.74217 55.3401 1.76004 55.5035 1.92443C55.6644 2.08638 55.6847 2.92515 55.6847 9.40725V16.7078H54.7046H53.7246V10.4516V4.19526L53.4208 3.95488L53.117 3.71439H29.0511H4.98528L4.68147 3.95488L4.37766 4.19526V23.7147V43.2342L4.64446 43.4866C4.90526 43.733 4.9847 43.7388 8.10336 43.7388H11.2955V44.7249V45.711H7.03767C3.32074 45.711 2.75694 45.6878 2.59875 45.5287C2.43538 45.3642 2.41762 43.2262 2.41762 23.7266C2.41762 4.22693 2.43538 2.08893 2.59875 1.92443C2.75671 1.7656 3.30552 1.74217 6.87003 1.74217H10.9601L11.243 1.45736C11.6038 1.09447 11.6038 0.649677 11.243 0.28679L10.9601 0.00197827L6.77526 0.0111433C4.17716 0.0168279 2.45947 0.0663653 2.24468 0.142006ZM9.45071 12.9782V20.5019L9.71359 20.8945C9.85817 21.1103 10.1047 21.3521 10.2612 21.432C10.4763 21.5414 11.8103 21.5773 15.7073 21.5786L20.8684 21.5803L21.2992 21.1832L21.7298 20.7861L21.761 13.1203L21.7923 5.45458H24.0958H26.3993V12.624V19.7935L26.0139 19.9338C25.6535 20.0649 25.3616 20.4597 25.3616 20.8161C25.3616 20.9002 25.4692 21.1066 25.6007 21.2747C25.8362 21.5761 25.8601 21.5803 27.2938 21.5803C28.6282 21.5803 28.77 21.5596 29.0149 21.3281C29.5352 20.8364 29.2335 20.0334 28.4711 19.8801L28.1288 19.8112V12.6329V5.45458H29.4474H30.7659L30.8021 8.32589C30.8364 11.0469 30.8518 11.2228 31.0983 11.687C31.4861 12.4172 31.9615 12.91 32.6462 13.2917C33.1911 13.5953 33.3688 13.6334 34.2395 13.6321C35.0416 13.6309 35.3137 13.5813 35.7383 13.3585C36.4445 12.9881 36.9679 12.4695 37.3339 11.7773C37.6389 11.2007 37.641 11.1799 37.6768 8.32589L37.713 5.45458H38.7844H39.8557L39.9204 6.31504C40.0337 7.82216 40.7057 8.8795 41.8944 9.42082C42.4496 9.67373 42.621 9.68904 44.9044 9.68904C47.5948 9.68904 47.8978 9.6221 48.7938 8.83055C49.4787 8.22542 49.8045 7.429 49.8045 6.35994V5.45458H50.8998H51.9952V20.5942V35.7339H49.9152C48.0838 35.7339 47.7829 35.7608 47.3966 35.9591C46.8235 36.2533 46.2733 36.8932 46.122 37.442C46.0456 37.7184 46.0008 39.8533 46.0004 43.225L45.9997 48.5697L46.3168 49.199C46.5548 49.6712 46.7753 49.9153 47.2008 50.1769L47.7677 50.5255L49.8814 50.5617L51.9952 50.5979V52.2729V53.9479H46.0574H40.1196V50.6079C40.1196 46.9077 40.0594 46.4582 39.3954 45.2015C38.9603 44.3781 37.9757 43.3276 37.228 42.8893C36.1182 42.2387 35.472 42.0886 33.5189 42.0276L31.703 41.9709V35.7781V29.5852H36.9518H42.2007L42.2706 29.9369C42.3461 30.3165 42.7952 30.7453 43.1173 30.7453C43.2271 30.7453 43.4535 30.6371 43.6206 30.5049C43.9231 30.2654 43.9244 30.2576 43.9244 28.6288C43.9244 26.7553 43.8513 26.5689 43.1173 26.5689C42.6067 26.5689 42.3606 26.8073 42.2495 27.41L42.1692 27.845H36.302C30.5884 27.845 30.4287 27.8511 30.2041 28.0771C29.9787 28.3039 29.9735 28.4637 29.9735 35.1538V41.9986H18.0403H6.10711V40.7224V39.4463L13.4573 39.4461C21.6514 39.446 21.3197 39.4775 21.8716 38.646C22.1285 38.2591 22.1333 38.1907 22.1333 34.9218C22.1333 31.6529 22.1285 31.5845 21.8716 31.1976C21.3197 30.3661 21.6514 30.3977 13.4573 30.3975L6.10711 30.3973V29.3532V28.3091H14.0049C21.8844 28.3091 21.9027 28.3097 21.9027 28.5463C21.9027 28.8792 22.4107 29.3532 22.7675 29.3532C22.9318 29.3532 23.1935 29.225 23.3491 29.0684C23.6185 28.7975 23.6322 28.7156 23.6322 27.381C23.6322 26.0464 23.6185 25.9645 23.3491 25.6936C23.1935 25.537 22.9318 25.4088 22.7675 25.4088C22.3853 25.4088 21.9027 25.8913 21.9027 26.2736V26.5689H14.0049H6.10711V16.0117V5.45458H7.77891H9.45071V12.9782ZM20.058 6.49869V7.54281H15.6191H11.1802V6.49869V5.45458H15.6191H20.058V6.49869ZM48.0751 6.15645C48.0751 6.99534 47.8619 7.4638 47.3525 7.74386C47.0341 7.91903 46.6682 7.94885 44.8416 7.94885C42.9929 7.94885 42.6614 7.92112 42.3931 7.7442C41.9064 7.4232 41.712 7.02307 41.6471 6.20866L41.5869 5.45458H44.831H48.0751V6.15645ZM35.9687 8.15187C35.9686 10.864 35.9068 11.1608 35.2399 11.653C34.7869 11.9874 33.6931 11.9898 33.2508 11.6575C32.5702 11.1463 32.51 10.8615 32.51 8.15373V5.6866H34.2395H35.9689L35.9687 8.15187ZM20.058 14.5616V19.8402H15.6191H11.1802V14.5616V9.283H15.6191H20.058V14.5616ZM44.2378 15.3593C41.5517 16.3673 41.3933 19.9442 43.982 21.1317C44.6603 21.4428 45.789 21.4178 46.5194 21.0756C47.602 20.5683 48.2137 19.5878 48.2308 18.332C48.2478 17.0983 47.6417 16.0946 46.5375 15.5278C45.9382 15.2202 44.8256 15.1386 44.2378 15.3593ZM46.0595 17.2898C46.9984 18.1775 46.4635 19.6081 45.1927 19.6081C44.2671 19.6081 43.641 18.7899 43.9188 17.943C44.0459 17.5553 44.4031 17.1478 44.7315 17.0159C45.0577 16.885 45.7912 17.0362 46.0595 17.2898ZM55.6847 23.6732V28.8985L54.7335 28.8648L53.7823 28.8311L53.7522 23.7846C53.7357 21.009 53.747 18.6728 53.7774 18.593C53.8152 18.4937 54.1242 18.448 54.7587 18.448H55.6847V23.6732ZM8.18245 34.9218V37.7061H7.14478H6.10711V34.9218V32.1375H7.14478H8.18245V34.9218ZM20.4039 34.9218V37.7061H15.1579H9.9119V34.9218V32.1375H15.1579H20.4039V34.9218ZM51.9952 43.1587V48.8433H50.129C48.3717 48.8433 48.2473 48.8286 47.996 48.5911L47.7292 48.3388V43.1643C47.7292 38.6687 47.7527 37.9559 47.9087 37.732C48.0821 37.4828 48.1537 37.4741 50.0417 37.4741H51.9952V43.1587ZM23.2863 44.7249V45.711H18.1556H13.0249V44.7249V43.7388H18.1556H23.2863V44.7249Z" fill="url(#paint0_linear_102_95)"/>
<defs>
<linearGradient id="paint0_linear_102_95" x1="57.3565" y1="59.3982" x2="0.688171" y2="59.3982" gradientUnits="userSpaceOnUse">
<stop stop-color="#D3AA90"/>
<stop offset="1" stop-color="#BE8D71"/>
</linearGradient>
</defs>
</svg>
