<svg width="54" height="50" viewBox="0 0 54 50" fill="none" xmlns="http://www.w3.org/2000/svg">
<path fill-rule="evenodd" clip-rule="evenodd" d="M15.7411 0.302625C14.1494 0.588041 12.7793 1.32454 11.5067 2.57895C10.5008 3.5704 9.9193 4.50303 9.473 5.84038C9.20276 6.65026 9.18625 6.84128 9.1424 9.66709L9.0962 12.6413H5.81039H2.52446L2.25065 12.9143C2.10002 13.0644 1.97662 13.277 1.9764 13.3868C1.97628 13.4966 1.57472 21.5668 1.08412 31.3207C0.593517 41.0745 0.191953 49.1448 0.191841 49.2545C0.191618 49.3644 0.314799 49.5769 0.465427 49.727L0.739236 50H26.9699H53.2005L53.4743 49.727C53.6249 49.5769 53.7482 49.3596 53.7482 49.2439C53.7482 49.1284 53.3466 43.8398 52.8556 37.4915C52.3647 31.1432 51.963 25.8796 51.963 25.7947C51.963 25.7096 51.8397 25.5173 51.6891 25.3672L51.4153 25.0942H44.8271H38.2391L38.2383 24.7885C38.2379 24.6203 38.1127 22.056 37.9602 19.0901C37.8076 16.1242 37.6824 13.5827 37.682 13.4424C37.6815 13.302 37.5579 13.0644 37.4073 12.9143L37.1335 12.6413H33.8464H30.5595L30.5126 9.72268C30.4598 6.426 30.4016 6.08688 29.6218 4.52471C29.0258 3.33068 27.642 1.88392 26.4864 1.2466C25.1135 0.489307 24.2195 0.263598 22.5626 0.255482C21.4866 0.250256 20.9486 0.298289 20.4788 0.441497C19.8929 0.620174 19.7967 0.621508 19.1957 0.45962C18.407 0.247254 16.5262 0.161752 15.7411 0.302625ZM16.6904 2.7236C15.8206 3.64901 15.2317 4.62956 14.8409 5.80336C14.5564 6.65794 14.5429 6.80959 14.4983 9.66709L14.4519 12.6413H12.6774H10.9029V10.1601C10.9029 7.36208 10.9918 6.69062 11.5096 5.58098C12.4903 3.47922 14.6537 2.03747 16.9136 1.97987L17.4013 1.96742L16.6904 2.7236ZM24.5525 2.33789C25.5641 2.70381 26.1695 3.08418 26.9019 3.81412C27.6284 4.53794 28.0025 5.12623 28.4059 6.17917C28.6758 6.88353 28.6897 7.03831 28.7312 9.77828L28.7745 12.6413H26.9796H25.1846V10.0938C25.1846 7.40044 25.0773 6.46569 24.6329 5.28678C24.3099 4.42987 23.6159 3.37615 22.8591 2.59318L22.2279 1.94029L23.0329 2.00989C23.4756 2.04814 24.1595 2.1958 24.5525 2.33789ZM20.5451 2.97366C21.6683 3.68347 22.5035 4.7522 23.0502 6.17917C23.3201 6.88353 23.334 7.03831 23.3755 9.77828L23.4188 12.6413H19.829H16.2391L16.2824 9.77828C16.3239 7.03831 16.3379 6.88353 16.6078 6.17917C16.9945 5.16982 17.3925 4.52304 18.0167 3.88984C18.612 3.28598 19.551 2.63454 19.8263 2.63454C19.9265 2.63454 20.25 2.7872 20.5451 2.97366ZM9.11763 17.2959V20.1717L7.8837 20.9847C7.20509 21.4317 6.60258 21.8856 6.54478 21.9932C6.48498 22.1046 6.43979 23.8442 6.43979 26.0371V29.8854L6.71371 30.1582L6.98752 30.4312H10.0102H13.033L13.3068 30.1582L13.5807 29.8854V26.0371C13.5807 23.8442 13.5355 22.1046 13.4757 21.9932C13.4179 21.8856 12.8154 21.4317 12.1368 20.9847L10.9029 20.1717V17.2959V14.4203H17.1511H23.3994V15.9263C23.3994 17.3772 23.4095 17.4425 23.6733 17.7053C23.846 17.8774 24.0747 17.9783 24.292 17.9783C24.5094 17.9783 24.7381 17.8774 24.9107 17.7053C25.1746 17.4425 25.1846 17.3772 25.1846 15.9263V14.4203H26.9678C28.7276 14.4203 28.7515 14.4235 28.8008 14.6705C28.8419 14.8762 29.3235 24.5005 29.3154 24.9552C29.3135 25.0625 28.7006 25.0942 26.6301 25.0942C23.9825 25.0942 23.9438 25.0976 23.6916 25.3488C23.4978 25.5421 23.4205 25.777 23.3716 26.3217C23.3363 26.7168 22.9412 31.8058 22.4938 37.6305L21.6803 48.221H11.8391H1.99793L2.04223 47.8041C2.06655 47.5748 2.442 40.0822 2.8766 31.1539C3.31107 22.2256 3.6891 14.8081 3.71643 14.6705L3.76619 14.4203H6.44191H9.11763V17.2959ZM32.6794 19.4237C32.8433 22.145 32.9813 24.5342 32.9862 24.7329L32.995 25.0942H32.0466C31.1034 25.0942 31.0982 25.0927 31.0982 24.8096C31.0982 24.4827 30.6761 15.8866 30.6165 14.9998L30.577 14.4119L31.4792 14.4439L32.3813 14.4759L32.6794 19.4237ZM35.9417 14.6705C35.9828 14.8762 36.4644 24.5005 36.4563 24.9552C36.4545 25.0539 36.2109 25.0942 35.6171 25.0942C34.8946 25.0942 34.7802 25.0676 34.7799 24.8996C34.7798 24.7926 34.6544 22.6287 34.5013 20.0908C34.3482 17.553 34.2228 15.239 34.2227 14.9484L34.2223 14.4203H35.057C35.8335 14.4203 35.8952 14.4378 35.9417 14.6705ZM10.9243 22.3286L11.7955 22.8985V25.7753V28.6522H10.0102H8.22502V25.7765V22.9007L9.08973 22.3306C9.56538 22.0169 9.97666 21.7598 10.0038 21.7594C10.0309 21.759 10.4452 22.0151 10.9243 22.3286ZM43.9109 37.4081C44.3553 43.2024 44.717 48.0057 44.7147 48.082C44.7086 48.2862 23.5129 48.2862 23.5069 48.082C23.5045 48.0057 23.8663 43.2024 24.3107 37.4081L25.1186 26.8732H34.1108H43.1029L43.9109 37.4081ZM46.7228 27.0678C46.7249 27.1747 47.0976 30.9148 47.5509 35.379L48.375 43.4956L47.3801 44.9966C46.8328 45.8222 46.385 46.4167 46.3846 46.3178C46.3844 46.219 46.0578 41.922 45.6589 36.7688C45.2601 31.6156 44.9337 27.2811 44.9337 27.1364C44.9337 26.8815 44.9619 26.8732 45.8263 26.8732C46.6005 26.8732 46.7195 26.899 46.7228 27.0678ZM50.967 36.2595C51.3642 41.4219 51.6583 45.6266 51.6206 45.6034C51.5828 45.5801 51.2352 45.0826 50.8481 44.4976L50.1445 43.4342L49.3282 35.3483C48.8793 30.901 48.5102 27.1747 48.508 27.0678C48.5047 26.8988 48.6185 26.8732 49.3744 26.8732H50.2447L50.967 36.2595ZM29.0229 30.7101L28.7429 30.9891L28.7769 35.2471L28.8109 39.5051L29.2276 40.3449C29.7295 41.3566 30.3759 41.987 31.4128 42.4766L32.1582 42.8285H34.1108H36.0634L36.8087 42.4766C37.8457 41.987 38.492 41.3566 38.9939 40.3449L39.4107 39.5051L39.4447 35.2471L39.4786 30.9891L39.1987 30.7101C38.8301 30.343 38.32 30.3404 37.9551 30.7041L37.6812 30.977V34.8885C37.6812 37.6345 37.6408 38.9363 37.5455 39.2576C37.3644 39.8684 36.4402 40.7894 35.8273 40.9699C35.2337 41.1447 32.9879 41.1447 32.3943 40.9699C31.7814 40.7894 30.8571 39.8684 30.676 39.2576C30.5807 38.9363 30.5403 37.6345 30.5403 34.8885V30.977L30.2664 30.7041C29.9015 30.3404 29.3914 30.343 29.0229 30.7101ZM50.2619 46.834L51.1829 48.221H49.2852H47.3875L48.3084 46.834C48.815 46.0711 49.2545 45.4469 49.2852 45.4469C49.3159 45.4469 49.7554 46.0711 50.2619 46.834Z" fill="white"/>
<path fill-rule="evenodd" clip-rule="evenodd" d="M15.7411 0.302625C14.1494 0.588041 12.7793 1.32454 11.5067 2.57895C10.5008 3.5704 9.9193 4.50303 9.473 5.84038C9.20276 6.65026 9.18625 6.84128 9.1424 9.66709L9.0962 12.6413H5.81039H2.52446L2.25065 12.9143C2.10002 13.0644 1.97662 13.277 1.9764 13.3868C1.97628 13.4966 1.57472 21.5668 1.08412 31.3207C0.593517 41.0745 0.191953 49.1448 0.191841 49.2545C0.191618 49.3644 0.314799 49.5769 0.465427 49.727L0.739236 50H26.9699H53.2005L53.4743 49.727C53.6249 49.5769 53.7482 49.3596 53.7482 49.2439C53.7482 49.1284 53.3466 43.8398 52.8556 37.4915C52.3647 31.1432 51.963 25.8796 51.963 25.7947C51.963 25.7096 51.8397 25.5173 51.6891 25.3672L51.4153 25.0942H44.8271H38.2391L38.2383 24.7885C38.2379 24.6203 38.1127 22.056 37.9602 19.0901C37.8076 16.1242 37.6824 13.5827 37.682 13.4424C37.6815 13.302 37.5579 13.0644 37.4073 12.9143L37.1335 12.6413H33.8464H30.5595L30.5126 9.72268C30.4598 6.426 30.4016 6.08688 29.6218 4.52471C29.0258 3.33068 27.642 1.88392 26.4864 1.2466C25.1135 0.489307 24.2195 0.263598 22.5626 0.255482C21.4866 0.250256 20.9486 0.298289 20.4788 0.441497C19.8929 0.620174 19.7967 0.621508 19.1957 0.45962C18.407 0.247254 16.5262 0.161752 15.7411 0.302625ZM16.6904 2.7236C15.8206 3.64901 15.2317 4.62956 14.8409 5.80336C14.5564 6.65794 14.5429 6.80959 14.4983 9.66709L14.4519 12.6413H12.6774H10.9029V10.1601C10.9029 7.36208 10.9918 6.69062 11.5096 5.58098C12.4903 3.47922 14.6537 2.03747 16.9136 1.97987L17.4013 1.96742L16.6904 2.7236ZM24.5525 2.33789C25.5641 2.70381 26.1695 3.08418 26.9019 3.81412C27.6284 4.53794 28.0025 5.12623 28.4059 6.17917C28.6758 6.88353 28.6897 7.03831 28.7312 9.77828L28.7745 12.6413H26.9796H25.1846V10.0938C25.1846 7.40044 25.0773 6.46569 24.6329 5.28678C24.3099 4.42987 23.6159 3.37615 22.8591 2.59318L22.2279 1.94029L23.0329 2.00989C23.4756 2.04814 24.1595 2.1958 24.5525 2.33789ZM20.5451 2.97366C21.6683 3.68347 22.5035 4.7522 23.0502 6.17917C23.3201 6.88353 23.334 7.03831 23.3755 9.77828L23.4188 12.6413H19.829H16.2391L16.2824 9.77828C16.3239 7.03831 16.3379 6.88353 16.6078 6.17917C16.9945 5.16982 17.3925 4.52304 18.0167 3.88984C18.612 3.28598 19.551 2.63454 19.8263 2.63454C19.9265 2.63454 20.25 2.7872 20.5451 2.97366ZM9.11763 17.2959V20.1717L7.8837 20.9847C7.20509 21.4317 6.60258 21.8856 6.54478 21.9932C6.48498 22.1046 6.43979 23.8442 6.43979 26.0371V29.8854L6.71371 30.1582L6.98752 30.4312H10.0102H13.033L13.3068 30.1582L13.5807 29.8854V26.0371C13.5807 23.8442 13.5355 22.1046 13.4757 21.9932C13.4179 21.8856 12.8154 21.4317 12.1368 20.9847L10.9029 20.1717V17.2959V14.4203H17.1511H23.3994V15.9263C23.3994 17.3772 23.4095 17.4425 23.6733 17.7053C23.846 17.8774 24.0747 17.9783 24.292 17.9783C24.5094 17.9783 24.7381 17.8774 24.9107 17.7053C25.1746 17.4425 25.1846 17.3772 25.1846 15.9263V14.4203H26.9678C28.7276 14.4203 28.7515 14.4235 28.8008 14.6705C28.8419 14.8762 29.3235 24.5005 29.3154 24.9552C29.3135 25.0625 28.7006 25.0942 26.6301 25.0942C23.9825 25.0942 23.9438 25.0976 23.6916 25.3488C23.4978 25.5421 23.4205 25.777 23.3716 26.3217C23.3363 26.7168 22.9412 31.8058 22.4938 37.6305L21.6803 48.221H11.8391H1.99793L2.04223 47.8041C2.06655 47.5748 2.442 40.0822 2.8766 31.1539C3.31107 22.2256 3.6891 14.8081 3.71643 14.6705L3.76619 14.4203H6.44191H9.11763V17.2959ZM32.6794 19.4237C32.8433 22.145 32.9813 24.5342 32.9862 24.7329L32.995 25.0942H32.0466C31.1034 25.0942 31.0982 25.0927 31.0982 24.8096C31.0982 24.4827 30.6761 15.8866 30.6165 14.9998L30.577 14.4119L31.4792 14.4439L32.3813 14.4759L32.6794 19.4237ZM35.9417 14.6705C35.9828 14.8762 36.4644 24.5005 36.4563 24.9552C36.4545 25.0539 36.2109 25.0942 35.6171 25.0942C34.8946 25.0942 34.7802 25.0676 34.7799 24.8996C34.7798 24.7926 34.6544 22.6287 34.5013 20.0908C34.3482 17.553 34.2228 15.239 34.2227 14.9484L34.2223 14.4203H35.057C35.8335 14.4203 35.8952 14.4378 35.9417 14.6705ZM10.9243 22.3286L11.7955 22.8985V25.7753V28.6522H10.0102H8.22502V25.7765V22.9007L9.08973 22.3306C9.56538 22.0169 9.97666 21.7598 10.0038 21.7594C10.0309 21.759 10.4452 22.0151 10.9243 22.3286ZM43.9109 37.4081C44.3553 43.2024 44.717 48.0057 44.7147 48.082C44.7086 48.2862 23.5129 48.2862 23.5069 48.082C23.5045 48.0057 23.8663 43.2024 24.3107 37.4081L25.1186 26.8732H34.1108H43.1029L43.9109 37.4081ZM46.7228 27.0678C46.7249 27.1747 47.0976 30.9148 47.5509 35.379L48.375 43.4956L47.3801 44.9966C46.8328 45.8222 46.385 46.4167 46.3846 46.3178C46.3844 46.219 46.0578 41.922 45.6589 36.7688C45.2601 31.6156 44.9337 27.2811 44.9337 27.1364C44.9337 26.8815 44.9619 26.8732 45.8263 26.8732C46.6005 26.8732 46.7195 26.899 46.7228 27.0678ZM50.967 36.2595C51.3642 41.4219 51.6583 45.6266 51.6206 45.6034C51.5828 45.5801 51.2352 45.0826 50.8481 44.4976L50.1445 43.4342L49.3282 35.3483C48.8793 30.901 48.5102 27.1747 48.508 27.0678C48.5047 26.8988 48.6185 26.8732 49.3744 26.8732H50.2447L50.967 36.2595ZM29.0229 30.7101L28.7429 30.9891L28.7769 35.2471L28.8109 39.5051L29.2276 40.3449C29.7295 41.3566 30.3759 41.987 31.4128 42.4766L32.1582 42.8285H34.1108H36.0634L36.8087 42.4766C37.8457 41.987 38.492 41.3566 38.9939 40.3449L39.4107 39.5051L39.4447 35.2471L39.4786 30.9891L39.1987 30.7101C38.8301 30.343 38.32 30.3404 37.9551 30.7041L37.6812 30.977V34.8885C37.6812 37.6345 37.6408 38.9363 37.5455 39.2576C37.3644 39.8684 36.4402 40.7894 35.8273 40.9699C35.2337 41.1447 32.9879 41.1447 32.3943 40.9699C31.7814 40.7894 30.8571 39.8684 30.676 39.2576C30.5807 38.9363 30.5403 37.6345 30.5403 34.8885V30.977L30.2664 30.7041C29.9015 30.3404 29.3914 30.343 29.0229 30.7101ZM50.2619 46.834L51.1829 48.221H49.2852H47.3875L48.3084 46.834C48.815 46.0711 49.2545 45.4469 49.2852 45.4469C49.3159 45.4469 49.7554 46.0711 50.2619 46.834Z" fill="url(#paint0_linear_102_107)"/>
<defs>
<linearGradient id="paint0_linear_102_107" x1="53.7482" y1="50" x2="0.191841" y2="50" gradientUnits="userSpaceOnUse">
<stop stop-color="#D3AA90"/>
<stop offset="1" stop-color="#BE8D71"/>
</linearGradient>
</defs>
</svg>
