<svg width="59" height="58" viewBox="0 0 59 58" fill="none" xmlns="http://www.w3.org/2000/svg">
<path fill-rule="evenodd" clip-rule="evenodd" d="M13.8991 0.0675785C10.3708 0.827159 8.05255 4.06628 8.55709 7.53201C8.64741 8.15249 8.6517 8.46933 8.5701 8.49846C8.50341 8.52224 8.11817 8.7939 7.71408 9.10206C5.10426 11.0925 4.01083 14.58 5.06382 17.5556C5.23622 18.0431 5.4036 18.5221 5.4357 18.6202C5.47483 18.7395 5.30589 18.9018 4.92447 19.1112C2.99661 20.1692 1.53404 22.1578 1.02758 24.4097C0.366272 27.3503 1.57866 30.6751 3.97098 32.4817C6.78278 34.605 10.562 34.7427 13.4297 32.8264L14.1974 32.3136V38.0096V43.7057H8.76361H3.32971L3.03693 43.9976L2.74404 44.2893V47.802V51.3146H2.08249C1.28636 51.3146 0.835144 51.6587 0.835144 52.2657C0.835144 52.8728 1.28636 53.2168 2.08249 53.2168H2.74404V54.8272C2.74404 56.3786 2.75477 56.4483 3.03693 56.7294C3.2215 56.9134 3.46608 57.0213 3.69848 57.0213C3.93089 57.0213 4.17547 56.9134 4.36003 56.7294C4.64219 56.4483 4.65293 56.3786 4.65293 54.8272V53.2168H9.42516H14.1974V54.8272C14.1974 56.3786 14.2081 56.4483 14.4903 56.7294C14.8777 57.1155 15.426 57.1155 15.8134 56.7294C16.0955 56.4483 16.1063 56.3786 16.1063 54.8272V53.2168H17.0607H18.0152V54.8272C18.0152 56.3786 18.0259 56.4483 18.3081 56.7294C18.6955 57.1155 19.2438 57.1155 19.6312 56.7294C19.9133 56.4483 19.9241 56.3786 19.9241 54.8272V53.2168H20.5856C21.3818 53.2168 21.833 52.8728 21.833 52.2657C21.833 51.6587 21.3818 51.3146 20.5856 51.3146H19.9241V47.802V44.2893L19.6312 43.9976C19.3491 43.7164 19.2791 43.7057 17.7223 43.7057H16.1063V38.0096V32.3136L16.874 32.8264C19.5627 34.6232 23.1488 34.6232 25.8375 32.8264L26.6052 32.3136L27.3729 32.8264C30.0616 34.6232 33.6477 34.6232 36.3364 32.8264L37.1041 32.3136V38.999V45.6844L36.5374 45.9404C36.2257 46.0811 35.779 46.3541 35.5447 46.547C34.999 46.9964 34.3689 48.1732 34.2819 48.9054C34.2151 49.4671 34.2028 49.4812 33.4222 49.8964C30.6481 51.3717 30.7415 55.2643 33.5846 56.6675L34.1811 56.9618H44.7397H55.2982L55.8948 56.6675C56.6599 56.2899 57.3743 55.5753 57.74 54.8218C58.1586 53.9592 58.1609 52.455 57.7447 51.6118C57.3612 50.8344 56.6272 50.1143 55.872 49.7742C55.2836 49.5092 55.2629 49.4829 55.186 48.9053C55.099 48.2514 54.7014 47.3833 54.2373 46.8336C54.073 46.6391 53.601 46.3006 53.1886 46.0815C52.5362 45.735 52.3218 45.6821 51.5419 45.6752C51.0488 45.671 50.5013 45.7076 50.3253 45.7568C50.0681 45.8286 49.991 45.8013 49.9325 45.6172C49.8103 45.2337 48.9588 44.445 48.3169 44.1209C47.441 43.6785 46.4339 43.6113 45.4853 43.9318L44.7397 44.1838L43.994 43.9318C43.0454 43.6113 42.0384 43.6785 41.1624 44.1209C40.5161 44.4472 39.6688 45.2344 39.5449 45.6238C39.5013 45.7604 39.3864 45.8432 39.2713 45.8211C39.0892 45.7863 39.07 45.2213 39.0419 39.0477L39.0111 32.3122L39.7797 32.8258C41.7941 34.1719 44.379 34.532 46.7082 33.791C47.9843 33.385 49.0207 32.7545 49.9754 31.8032C50.9203 30.8614 51.5535 29.8345 51.9826 28.5474C52.2581 27.7212 52.2997 27.4011 52.2997 26.1102C52.2997 24.8193 52.2581 24.4991 51.9826 23.673C51.8082 23.1498 51.4628 22.3778 51.2151 21.9574C50.6351 20.973 49.4002 19.7438 48.4598 19.2146C47.9564 18.9314 47.7382 18.7416 47.7766 18.6202C47.8076 18.5221 47.9722 18.049 48.1422 17.5688C49.1932 14.6007 48.094 11.0832 45.4963 9.10206C45.0922 8.7939 44.7023 8.522 44.6299 8.49798C44.5341 8.46612 44.5348 8.26033 44.6325 7.74138C44.9029 6.30472 44.553 4.5013 43.7331 3.10721C43.0057 1.87041 41.5726 0.778652 39.9674 0.238422C39.057 -0.0679549 37.0601 -0.0679549 36.1497 0.238422C32.9111 1.32839 30.9949 4.31084 31.4638 7.53201C31.5541 8.15249 31.5584 8.46933 31.4768 8.49846C31.1188 8.62615 29.8107 9.75488 29.3118 10.3666C27.5308 12.5501 27.0858 15.4178 28.1242 18.0198C28.3479 18.5804 28.3905 18.7999 28.2823 18.8358C28.2009 18.8629 27.7903 19.1149 27.3698 19.3959L26.6052 19.9068L25.8406 19.3959C25.4201 19.1149 25.0095 18.8629 24.9281 18.8358C24.8199 18.7999 24.8625 18.5804 25.0862 18.0198C26.357 14.8356 25.3389 11.1989 22.5896 9.10206C22.1855 8.7939 21.7956 8.522 21.7232 8.49798C21.6274 8.46612 21.6281 8.26033 21.7258 7.74138C21.7996 7.34928 21.8294 6.62287 21.792 6.12698C21.5372 2.74163 18.8496 0.149017 15.4501 0.00908515C14.8595 -0.0152871 14.1616 0.0111063 13.8991 0.0675785ZM17.1119 2.31101C18.1719 2.80535 18.8862 3.49823 19.3966 4.52734C19.9265 5.59567 20.0516 6.77945 19.7428 7.8013C19.464 8.72399 19.4174 9.25542 19.5954 9.47941C19.6793 9.5851 20.093 9.84511 20.5149 10.0573C23.4598 11.5387 24.5838 15.0787 23.0061 17.9035C22.2316 19.2904 22.2597 19.2014 22.4621 19.6242C22.6065 19.9263 22.7936 20.0606 23.3527 20.2637C27.7144 21.8485 28.9584 27.2183 25.713 30.4522C24.1661 31.9939 22.0398 32.6036 19.9352 32.1093C18.5841 31.792 17.1955 30.9018 16.4485 29.8741L16.1063 29.4034V24.8782V20.3531L18.0152 18.4383C19.6895 16.7586 19.9241 16.4761 19.9241 16.1397C19.9241 15.6282 19.4688 15.1724 18.9577 15.1724C18.6355 15.1724 18.3877 15.3582 17.3417 16.3839L16.1063 17.5954V15.7245C16.1063 13.8968 16.0996 13.8471 15.8134 13.5621C15.6288 13.378 15.3842 13.2702 15.1518 13.2702C14.9194 13.2702 14.6749 13.378 14.4903 13.5621L14.1974 13.8538V19.0534V24.2531L12.962 23.0417C11.916 22.016 11.6682 21.8302 11.346 21.8302C10.8349 21.8302 10.3796 22.286 10.3796 22.7975C10.3796 23.1339 10.6142 23.4164 12.2885 25.0961L14.1974 27.0109V28.2071C14.1974 29.3354 14.1779 29.4301 13.8552 29.8741C13.1081 30.9018 11.7195 31.792 10.3685 32.1093C8.26384 32.6036 6.13757 31.9939 4.59065 30.4522C1.3453 27.2183 2.5893 21.8485 6.951 20.2637C7.51007 20.0606 7.69714 19.9263 7.84162 19.6242C8.04396 19.2014 8.07211 19.2904 7.29758 17.9035C5.71356 15.0673 6.84708 11.537 9.82233 10.0404C10.2257 9.8375 10.6244 9.5851 10.7083 9.47941C10.8863 9.25542 10.8397 8.72399 10.5608 7.8013C9.96717 5.83654 10.9936 3.46554 12.869 2.46937C13.8088 1.97028 14.323 1.85733 15.4202 1.9094C16.1362 1.94341 16.5177 2.03388 17.1119 2.31101ZM40.0186 2.31101C41.0787 2.80535 41.7929 3.49823 42.3033 4.52734C42.8332 5.59567 42.9583 6.77945 42.6496 7.8013C42.3707 8.72399 42.3241 9.25542 42.5021 9.47941C42.586 9.5851 42.9997 9.84511 43.4216 10.0573C46.3665 11.5387 47.4905 15.0787 45.9128 17.9035C45.1383 19.2904 45.1664 19.2014 45.3688 19.6242C45.5133 19.9263 45.7003 20.0606 46.2594 20.2637C50.6095 21.8443 51.8707 27.2579 48.6323 30.4483C47.0593 31.9977 44.9468 32.6038 42.8419 32.1093C41.4909 31.792 40.1023 30.9018 39.3552 29.8741L39.013 29.4034V24.8782V20.3531L40.9219 18.4383C42.5962 16.7586 42.8308 16.4761 42.8308 16.1397C42.8308 15.6282 42.3755 15.1724 41.8644 15.1724C41.5422 15.1724 41.2944 15.3582 40.2484 16.3839L39.013 17.5954V15.7245C39.013 13.8968 39.0063 13.8471 38.7201 13.5621C38.5355 13.378 38.291 13.2702 38.0586 13.2702C37.8261 13.2702 37.5816 13.378 37.397 13.5621L37.1041 13.8538V19.0534V24.2531L35.8687 23.0417C34.8227 22.016 34.5749 21.8302 34.2527 21.8302C33.7416 21.8302 33.2863 22.286 33.2863 22.7975C33.2863 23.1339 33.5209 23.4164 35.1952 25.0961L37.1041 27.0109V28.2071C37.1041 29.3354 37.0847 29.4301 36.7619 29.8741C35.7335 31.2887 33.7011 32.2888 31.8547 32.2888C30.9513 32.2888 29.7982 31.9989 29.0024 31.5713C27.8238 30.9382 27.8537 31.0001 28.3385 30.198C28.5709 29.8133 28.9033 29.0705 29.0771 28.5474C29.351 27.7227 29.393 27.3988 29.393 26.1102C29.393 24.8215 29.351 24.4977 29.0771 23.673C28.9033 23.1498 28.5704 22.4062 28.3373 22.0204C28.1042 21.6347 27.9285 21.304 27.947 21.2855C28.1402 21.0931 29.5104 20.3693 29.9688 20.2176C30.4252 20.0665 30.5998 19.9347 30.7445 19.6323C30.9512 19.2004 30.9799 19.2924 30.2043 17.9035C28.6203 15.0673 29.7538 11.537 32.729 10.0404C33.1324 9.8375 33.5311 9.5851 33.615 9.47941C33.793 9.25542 33.7464 8.72399 33.4675 7.8013C32.8739 5.83654 33.9003 3.46554 35.7758 2.46937C36.7155 1.97028 37.2297 1.85733 38.3269 1.9094C39.0429 1.94341 39.4244 2.03388 40.0186 2.31101ZM18.0152 46.559V47.5102H11.3341H4.65293V46.559V45.6079H11.3341H18.0152V46.559ZM43.9692 46.0044C44.5593 46.404 44.9201 46.404 45.5102 46.0044C46.7259 45.1811 48.2528 45.8181 48.5096 47.256C48.6819 48.2202 49.4288 48.4889 50.2895 47.8965C50.9052 47.4729 51.9367 47.4338 52.4486 47.8148C53.1553 48.3405 53.2723 48.6271 53.2444 49.7627C53.2212 50.7053 53.2442 50.8286 53.483 51.0458C53.653 51.2005 53.9738 51.3065 54.3825 51.3433C55.4959 51.4432 56.1334 52.1253 56.1334 53.2168C56.1334 53.9687 55.938 54.3486 55.312 54.8144C54.9852 55.0576 54.8987 55.0596 44.7397 55.0596C34.5807 55.0596 34.4942 55.0576 34.1674 54.8144C33.5414 54.3486 33.346 53.9687 33.346 53.2168C33.346 52.1253 33.9834 51.4432 35.0969 51.3433C35.5055 51.3065 35.8263 51.2005 35.9964 51.0458C36.2352 50.8286 36.2581 50.7053 36.235 49.7627C36.207 48.6271 36.3241 48.3405 37.0307 47.8148C37.5427 47.4338 38.5742 47.4729 39.1898 47.8965C39.742 48.2765 40.3192 48.3209 40.6057 48.0054C40.7145 47.8856 40.8838 47.5185 40.9818 47.1896C41.0799 46.8608 41.2653 46.4583 41.3939 46.2955C41.9836 45.5484 43.1081 45.4213 43.9692 46.0044ZM44.0781 48.7531C43.8934 48.9371 43.7852 49.1808 43.7852 49.4124C43.7852 49.644 43.8934 49.8877 44.0781 50.0716C44.2627 50.2557 44.5073 50.3635 44.7397 50.3635C44.9721 50.3635 45.2167 50.2557 45.4012 50.0716C45.5859 49.8877 45.6941 49.644 45.6941 49.4124C45.6941 49.1808 45.5859 48.9371 45.4012 48.7531C45.2167 48.5691 44.9721 48.4613 44.7397 48.4613C44.5073 48.4613 44.2627 48.5691 44.0781 48.7531ZM14.1974 50.3635V51.3146H9.42516H4.65293V50.3635V49.4124H9.42516H14.1974V50.3635ZM18.0152 50.3635V51.3146H17.0607H16.1063V50.3635V49.4124H17.0607H18.0152V50.3635ZM24.0348 49.7043L23.7419 49.996V53.2168V56.4376L24.0348 56.7294C24.3251 57.0189 24.346 57.0213 26.6052 57.0213C28.8644 57.0213 28.8853 57.0189 29.1756 56.7294L29.4685 56.4376V53.2168V49.996L29.1756 49.7043C28.8853 49.4148 28.8644 49.4124 26.6052 49.4124C24.346 49.4124 24.3251 49.4148 24.0348 49.7043ZM49.8048 50.6554C49.6201 50.8393 49.5119 51.083 49.5119 51.3146C49.5119 51.5462 49.6201 51.7899 49.8048 51.9738C49.9894 52.1579 50.234 52.2657 50.4664 52.2657C50.6988 52.2657 50.9433 52.1579 51.1279 51.9738C51.3126 51.7899 51.4208 51.5462 51.4208 51.3146C51.4208 51.083 51.3126 50.8393 51.1279 50.6554C50.9433 50.4713 50.6988 50.3635 50.4664 50.3635C50.234 50.3635 49.9894 50.4713 49.8048 50.6554ZM27.5596 53.2168V55.119H26.6052H25.6508V53.2168V51.3146H26.6052H27.5596V53.2168ZM38.3514 51.6065C38.1668 51.7904 38.0586 52.0341 38.0586 52.2657C38.0586 52.4973 38.1668 52.741 38.3514 52.925C38.536 53.109 38.7806 53.2168 39.013 53.2168C39.2454 53.2168 39.49 53.109 39.6746 52.925C39.8592 52.741 39.9674 52.4973 39.9674 52.2657C39.9674 52.0341 39.8592 51.7904 39.6746 51.6065C39.49 51.4224 39.2454 51.3146 39.013 51.3146C38.7806 51.3146 38.536 51.4224 38.3514 51.6065Z" fill="white"/>
<path fill-rule="evenodd" clip-rule="evenodd" d="M13.8991 0.0675785C10.3708 0.827159 8.05255 4.06628 8.55709 7.53201C8.64741 8.15249 8.6517 8.46933 8.5701 8.49846C8.50341 8.52224 8.11817 8.7939 7.71408 9.10206C5.10426 11.0925 4.01083 14.58 5.06382 17.5556C5.23622 18.0431 5.4036 18.5221 5.4357 18.6202C5.47483 18.7395 5.30589 18.9018 4.92447 19.1112C2.99661 20.1692 1.53404 22.1578 1.02758 24.4097C0.366272 27.3503 1.57866 30.6751 3.97098 32.4817C6.78278 34.605 10.562 34.7427 13.4297 32.8264L14.1974 32.3136V38.0096V43.7057H8.76361H3.32971L3.03693 43.9976L2.74404 44.2893V47.802V51.3146H2.08249C1.28636 51.3146 0.835144 51.6587 0.835144 52.2657C0.835144 52.8728 1.28636 53.2168 2.08249 53.2168H2.74404V54.8272C2.74404 56.3786 2.75477 56.4483 3.03693 56.7294C3.2215 56.9134 3.46608 57.0213 3.69848 57.0213C3.93089 57.0213 4.17547 56.9134 4.36003 56.7294C4.64219 56.4483 4.65293 56.3786 4.65293 54.8272V53.2168H9.42516H14.1974V54.8272C14.1974 56.3786 14.2081 56.4483 14.4903 56.7294C14.8777 57.1155 15.426 57.1155 15.8134 56.7294C16.0955 56.4483 16.1063 56.3786 16.1063 54.8272V53.2168H17.0607H18.0152V54.8272C18.0152 56.3786 18.0259 56.4483 18.3081 56.7294C18.6955 57.1155 19.2438 57.1155 19.6312 56.7294C19.9133 56.4483 19.9241 56.3786 19.9241 54.8272V53.2168H20.5856C21.3818 53.2168 21.833 52.8728 21.833 52.2657C21.833 51.6587 21.3818 51.3146 20.5856 51.3146H19.9241V47.802V44.2893L19.6312 43.9976C19.3491 43.7164 19.2791 43.7057 17.7223 43.7057H16.1063V38.0096V32.3136L16.874 32.8264C19.5627 34.6232 23.1488 34.6232 25.8375 32.8264L26.6052 32.3136L27.3729 32.8264C30.0616 34.6232 33.6477 34.6232 36.3364 32.8264L37.1041 32.3136V38.999V45.6844L36.5374 45.9404C36.2257 46.0811 35.779 46.3541 35.5447 46.547C34.999 46.9964 34.3689 48.1732 34.2819 48.9054C34.2151 49.4671 34.2028 49.4812 33.4222 49.8964C30.6481 51.3717 30.7415 55.2643 33.5846 56.6675L34.1811 56.9618H44.7397H55.2982L55.8948 56.6675C56.6599 56.2899 57.3743 55.5753 57.74 54.8218C58.1586 53.9592 58.1609 52.455 57.7447 51.6118C57.3612 50.8344 56.6272 50.1143 55.872 49.7742C55.2836 49.5092 55.2629 49.4829 55.186 48.9053C55.099 48.2514 54.7014 47.3833 54.2373 46.8336C54.073 46.6391 53.601 46.3006 53.1886 46.0815C52.5362 45.735 52.3218 45.6821 51.5419 45.6752C51.0488 45.671 50.5013 45.7076 50.3253 45.7568C50.0681 45.8286 49.991 45.8013 49.9325 45.6172C49.8103 45.2337 48.9588 44.445 48.3169 44.1209C47.441 43.6785 46.4339 43.6113 45.4853 43.9318L44.7397 44.1838L43.994 43.9318C43.0454 43.6113 42.0384 43.6785 41.1624 44.1209C40.5161 44.4472 39.6688 45.2344 39.5449 45.6238C39.5013 45.7604 39.3864 45.8432 39.2713 45.8211C39.0892 45.7863 39.07 45.2213 39.0419 39.0477L39.0111 32.3122L39.7797 32.8258C41.7941 34.1719 44.379 34.532 46.7082 33.791C47.9843 33.385 49.0207 32.7545 49.9754 31.8032C50.9203 30.8614 51.5535 29.8345 51.9826 28.5474C52.2581 27.7212 52.2997 27.4011 52.2997 26.1102C52.2997 24.8193 52.2581 24.4991 51.9826 23.673C51.8082 23.1498 51.4628 22.3778 51.2151 21.9574C50.6351 20.973 49.4002 19.7438 48.4598 19.2146C47.9564 18.9314 47.7382 18.7416 47.7766 18.6202C47.8076 18.5221 47.9722 18.049 48.1422 17.5688C49.1932 14.6007 48.094 11.0832 45.4963 9.10206C45.0922 8.7939 44.7023 8.522 44.6299 8.49798C44.5341 8.46612 44.5348 8.26033 44.6325 7.74138C44.9029 6.30472 44.553 4.5013 43.7331 3.10721C43.0057 1.87041 41.5726 0.778652 39.9674 0.238422C39.057 -0.0679549 37.0601 -0.0679549 36.1497 0.238422C32.9111 1.32839 30.9949 4.31084 31.4638 7.53201C31.5541 8.15249 31.5584 8.46933 31.4768 8.49846C31.1188 8.62615 29.8107 9.75488 29.3118 10.3666C27.5308 12.5501 27.0858 15.4178 28.1242 18.0198C28.3479 18.5804 28.3905 18.7999 28.2823 18.8358C28.2009 18.8629 27.7903 19.1149 27.3698 19.3959L26.6052 19.9068L25.8406 19.3959C25.4201 19.1149 25.0095 18.8629 24.9281 18.8358C24.8199 18.7999 24.8625 18.5804 25.0862 18.0198C26.357 14.8356 25.3389 11.1989 22.5896 9.10206C22.1855 8.7939 21.7956 8.522 21.7232 8.49798C21.6274 8.46612 21.6281 8.26033 21.7258 7.74138C21.7996 7.34928 21.8294 6.62287 21.792 6.12698C21.5372 2.74163 18.8496 0.149017 15.4501 0.00908515C14.8595 -0.0152871 14.1616 0.0111063 13.8991 0.0675785ZM17.1119 2.31101C18.1719 2.80535 18.8862 3.49823 19.3966 4.52734C19.9265 5.59567 20.0516 6.77945 19.7428 7.8013C19.464 8.72399 19.4174 9.25542 19.5954 9.47941C19.6793 9.5851 20.093 9.84511 20.5149 10.0573C23.4598 11.5387 24.5838 15.0787 23.0061 17.9035C22.2316 19.2904 22.2597 19.2014 22.4621 19.6242C22.6065 19.9263 22.7936 20.0606 23.3527 20.2637C27.7144 21.8485 28.9584 27.2183 25.713 30.4522C24.1661 31.9939 22.0398 32.6036 19.9352 32.1093C18.5841 31.792 17.1955 30.9018 16.4485 29.8741L16.1063 29.4034V24.8782V20.3531L18.0152 18.4383C19.6895 16.7586 19.9241 16.4761 19.9241 16.1397C19.9241 15.6282 19.4688 15.1724 18.9577 15.1724C18.6355 15.1724 18.3877 15.3582 17.3417 16.3839L16.1063 17.5954V15.7245C16.1063 13.8968 16.0996 13.8471 15.8134 13.5621C15.6288 13.378 15.3842 13.2702 15.1518 13.2702C14.9194 13.2702 14.6749 13.378 14.4903 13.5621L14.1974 13.8538V19.0534V24.2531L12.962 23.0417C11.916 22.016 11.6682 21.8302 11.346 21.8302C10.8349 21.8302 10.3796 22.286 10.3796 22.7975C10.3796 23.1339 10.6142 23.4164 12.2885 25.0961L14.1974 27.0109V28.2071C14.1974 29.3354 14.1779 29.4301 13.8552 29.8741C13.1081 30.9018 11.7195 31.792 10.3685 32.1093C8.26384 32.6036 6.13757 31.9939 4.59065 30.4522C1.3453 27.2183 2.5893 21.8485 6.951 20.2637C7.51007 20.0606 7.69714 19.9263 7.84162 19.6242C8.04396 19.2014 8.07211 19.2904 7.29758 17.9035C5.71356 15.0673 6.84708 11.537 9.82233 10.0404C10.2257 9.8375 10.6244 9.5851 10.7083 9.47941C10.8863 9.25542 10.8397 8.72399 10.5608 7.8013C9.96717 5.83654 10.9936 3.46554 12.869 2.46937C13.8088 1.97028 14.323 1.85733 15.4202 1.9094C16.1362 1.94341 16.5177 2.03388 17.1119 2.31101ZM40.0186 2.31101C41.0787 2.80535 41.7929 3.49823 42.3033 4.52734C42.8332 5.59567 42.9583 6.77945 42.6496 7.8013C42.3707 8.72399 42.3241 9.25542 42.5021 9.47941C42.586 9.5851 42.9997 9.84511 43.4216 10.0573C46.3665 11.5387 47.4905 15.0787 45.9128 17.9035C45.1383 19.2904 45.1664 19.2014 45.3688 19.6242C45.5133 19.9263 45.7003 20.0606 46.2594 20.2637C50.6095 21.8443 51.8707 27.2579 48.6323 30.4483C47.0593 31.9977 44.9468 32.6038 42.8419 32.1093C41.4909 31.792 40.1023 30.9018 39.3552 29.8741L39.013 29.4034V24.8782V20.3531L40.9219 18.4383C42.5962 16.7586 42.8308 16.4761 42.8308 16.1397C42.8308 15.6282 42.3755 15.1724 41.8644 15.1724C41.5422 15.1724 41.2944 15.3582 40.2484 16.3839L39.013 17.5954V15.7245C39.013 13.8968 39.0063 13.8471 38.7201 13.5621C38.5355 13.378 38.291 13.2702 38.0586 13.2702C37.8261 13.2702 37.5816 13.378 37.397 13.5621L37.1041 13.8538V19.0534V24.2531L35.8687 23.0417C34.8227 22.016 34.5749 21.8302 34.2527 21.8302C33.7416 21.8302 33.2863 22.286 33.2863 22.7975C33.2863 23.1339 33.5209 23.4164 35.1952 25.0961L37.1041 27.0109V28.2071C37.1041 29.3354 37.0847 29.4301 36.7619 29.8741C35.7335 31.2887 33.7011 32.2888 31.8547 32.2888C30.9513 32.2888 29.7982 31.9989 29.0024 31.5713C27.8238 30.9382 27.8537 31.0001 28.3385 30.198C28.5709 29.8133 28.9033 29.0705 29.0771 28.5474C29.351 27.7227 29.393 27.3988 29.393 26.1102C29.393 24.8215 29.351 24.4977 29.0771 23.673C28.9033 23.1498 28.5704 22.4062 28.3373 22.0204C28.1042 21.6347 27.9285 21.304 27.947 21.2855C28.1402 21.0931 29.5104 20.3693 29.9688 20.2176C30.4252 20.0665 30.5998 19.9347 30.7445 19.6323C30.9512 19.2004 30.9799 19.2924 30.2043 17.9035C28.6203 15.0673 29.7538 11.537 32.729 10.0404C33.1324 9.8375 33.5311 9.5851 33.615 9.47941C33.793 9.25542 33.7464 8.72399 33.4675 7.8013C32.8739 5.83654 33.9003 3.46554 35.7758 2.46937C36.7155 1.97028 37.2297 1.85733 38.3269 1.9094C39.0429 1.94341 39.4244 2.03388 40.0186 2.31101ZM18.0152 46.559V47.5102H11.3341H4.65293V46.559V45.6079H11.3341H18.0152V46.559ZM43.9692 46.0044C44.5593 46.404 44.9201 46.404 45.5102 46.0044C46.7259 45.1811 48.2528 45.8181 48.5096 47.256C48.6819 48.2202 49.4288 48.4889 50.2895 47.8965C50.9052 47.4729 51.9367 47.4338 52.4486 47.8148C53.1553 48.3405 53.2723 48.6271 53.2444 49.7627C53.2212 50.7053 53.2442 50.8286 53.483 51.0458C53.653 51.2005 53.9738 51.3065 54.3825 51.3433C55.4959 51.4432 56.1334 52.1253 56.1334 53.2168C56.1334 53.9687 55.938 54.3486 55.312 54.8144C54.9852 55.0576 54.8987 55.0596 44.7397 55.0596C34.5807 55.0596 34.4942 55.0576 34.1674 54.8144C33.5414 54.3486 33.346 53.9687 33.346 53.2168C33.346 52.1253 33.9834 51.4432 35.0969 51.3433C35.5055 51.3065 35.8263 51.2005 35.9964 51.0458C36.2352 50.8286 36.2581 50.7053 36.235 49.7627C36.207 48.6271 36.3241 48.3405 37.0307 47.8148C37.5427 47.4338 38.5742 47.4729 39.1898 47.8965C39.742 48.2765 40.3192 48.3209 40.6057 48.0054C40.7145 47.8856 40.8838 47.5185 40.9818 47.1896C41.0799 46.8608 41.2653 46.4583 41.3939 46.2955C41.9836 45.5484 43.1081 45.4213 43.9692 46.0044ZM44.0781 48.7531C43.8934 48.9371 43.7852 49.1808 43.7852 49.4124C43.7852 49.644 43.8934 49.8877 44.0781 50.0716C44.2627 50.2557 44.5073 50.3635 44.7397 50.3635C44.9721 50.3635 45.2167 50.2557 45.4012 50.0716C45.5859 49.8877 45.6941 49.644 45.6941 49.4124C45.6941 49.1808 45.5859 48.9371 45.4012 48.7531C45.2167 48.5691 44.9721 48.4613 44.7397 48.4613C44.5073 48.4613 44.2627 48.5691 44.0781 48.7531ZM14.1974 50.3635V51.3146H9.42516H4.65293V50.3635V49.4124H9.42516H14.1974V50.3635ZM18.0152 50.3635V51.3146H17.0607H16.1063V50.3635V49.4124H17.0607H18.0152V50.3635ZM24.0348 49.7043L23.7419 49.996V53.2168V56.4376L24.0348 56.7294C24.3251 57.0189 24.346 57.0213 26.6052 57.0213C28.8644 57.0213 28.8853 57.0189 29.1756 56.7294L29.4685 56.4376V53.2168V49.996L29.1756 49.7043C28.8853 49.4148 28.8644 49.4124 26.6052 49.4124C24.346 49.4124 24.3251 49.4148 24.0348 49.7043ZM49.8048 50.6554C49.6201 50.8393 49.5119 51.083 49.5119 51.3146C49.5119 51.5462 49.6201 51.7899 49.8048 51.9738C49.9894 52.1579 50.234 52.2657 50.4664 52.2657C50.6988 52.2657 50.9433 52.1579 51.1279 51.9738C51.3126 51.7899 51.4208 51.5462 51.4208 51.3146C51.4208 51.083 51.3126 50.8393 51.1279 50.6554C50.9433 50.4713 50.6988 50.3635 50.4664 50.3635C50.234 50.3635 49.9894 50.4713 49.8048 50.6554ZM27.5596 53.2168V55.119H26.6052H25.6508V53.2168V51.3146H26.6052H27.5596V53.2168ZM38.3514 51.6065C38.1668 51.7904 38.0586 52.0341 38.0586 52.2657C38.0586 52.4973 38.1668 52.741 38.3514 52.925C38.536 53.109 38.7806 53.2168 39.013 53.2168C39.2454 53.2168 39.49 53.109 39.6746 52.925C39.8592 52.741 39.9674 52.4973 39.9674 52.2657C39.9674 52.0341 39.8592 51.7904 39.6746 51.6065C39.49 51.4224 39.2454 51.3146 39.013 51.3146C38.7806 51.3146 38.536 51.4224 38.3514 51.6065Z" fill="url(#paint0_linear_102_101)"/>
<defs>
<linearGradient id="paint0_linear_102_101" x1="58.0554" y1="57.0212" x2="0.835144" y2="57.0212" gradientUnits="userSpaceOnUse">
<stop stop-color="#D3AA90"/>
<stop offset="1" stop-color="#BE8D71"/>
</linearGradient>
</defs>
</svg>
