<svg width="65" height="56" viewBox="0 0 65 56" fill="none" xmlns="http://www.w3.org/2000/svg">
<path fill-rule="evenodd" clip-rule="evenodd" d="M12.8702 0.224623C12.6018 0.440894 12.5735 0.570186 12.5352 1.75188C12.4958 2.97057 12.5103 3.06225 12.7949 3.39197C13.1828 3.84134 13.8125 3.87277 14.1484 3.45953C14.3393 3.22445 14.3773 2.95572 14.3773 1.83948C14.3773 0.540987 14.3675 0.493477 14.0502 0.244791C13.6424 -0.0749137 13.25 -0.0815951 12.8702 0.224623ZM6.10054 3.01672C5.74482 3.26491 5.64177 3.75053 5.85706 4.16513C6.10029 4.6338 7.48006 5.92399 7.75669 5.94132C8.53466 5.99031 8.91434 5.71094 8.91434 5.08972C8.91434 4.72288 8.7836 4.53172 7.99718 3.74793C7.01981 2.77397 6.65155 2.63206 6.10054 3.01672ZM19.0162 3.72467C18.0813 4.62798 17.8898 4.96068 18.0376 5.42464C18.1461 5.76538 18.7652 6.07605 19.1459 5.98078C19.3114 5.93934 19.8426 5.49875 20.3265 5.0015C21.3111 3.98968 21.4365 3.5877 20.9187 3.10295C20.4036 2.6208 20.0335 2.74168 19.0162 3.72467ZM12.0538 5.97707C9.79549 6.70544 8.34793 9.0353 8.7651 11.2704C9.25962 13.9202 11.7001 15.6822 14.232 15.2172C15.8502 14.9201 17.091 13.9806 17.8211 12.4998C18.1263 11.8808 18.1641 11.6674 18.1641 10.5668C18.1641 9.47043 18.1243 9.24352 17.8139 8.57417C17.3702 7.61754 16.409 6.66473 15.4327 6.21339C14.8319 5.93575 14.4835 5.86325 13.6324 5.83875C12.9959 5.82044 12.3693 5.87525 12.0538 5.97707ZM14.6888 7.88998C16.1695 8.56032 16.7824 10.3619 16.0367 11.8529C15.1694 13.5871 12.9305 13.9665 11.4792 12.625C10.529 11.7467 10.2904 10.2094 10.9346 9.1172C11.304 8.49103 11.8538 8.01717 12.4529 7.80857C13.0497 7.60059 14.1371 7.64018 14.6888 7.88998ZM3.20305 9.88627C2.82759 10.2604 2.87192 10.9169 3.29517 11.2486C3.60334 11.4902 3.75704 11.5116 4.92041 11.4742C6.0952 11.4364 6.22556 11.4078 6.44234 11.1407C6.76354 10.7452 6.74281 10.2362 6.39218 9.9078C6.13406 9.66629 5.9693 9.63882 4.77812 9.63882C3.61687 9.63882 3.42033 9.66976 3.20305 9.88627ZM20.6042 9.85534C20.4631 9.97449 20.3115 10.2235 20.2675 10.409C20.2033 10.6792 20.2619 10.8204 20.563 11.1204C20.9256 11.4817 20.9775 11.4947 22.0597 11.4947C23.3039 11.4947 23.719 11.3664 23.9239 10.9185C24.1177 10.4945 24.0979 10.3368 23.8043 9.96484C23.5547 9.6486 23.5071 9.63882 22.204 9.63882C21.1056 9.63882 20.8143 9.67829 20.6042 9.85534ZM6.63889 16.0583C6.10178 16.6082 5.68622 17.1407 5.68622 17.2788C5.68622 17.4136 5.80206 17.6705 5.9436 17.8498C6.14002 18.0987 6.31123 18.1758 6.66757 18.1758C7.08462 18.1758 7.22864 18.0787 8.02425 17.2611C8.74027 16.5252 8.91434 16.2712 8.91434 15.962C8.91434 15.4534 8.53094 15.0827 8.00463 15.0827C7.65227 15.0827 7.452 15.2257 6.63889 16.0583ZM18.2353 15.4087C17.8012 15.9586 17.9119 16.2749 18.8923 17.2883C19.7454 18.1703 20.1252 18.3657 20.6027 18.1686C21.0212 17.9959 21.206 17.7135 21.206 17.247C21.206 17.0082 20.9633 16.6738 20.3017 16.0016C19.5048 15.192 19.3435 15.0827 18.945 15.0827C18.6042 15.0827 18.4291 15.1631 18.2353 15.4087ZM12.8197 17.6135C12.5372 17.895 12.5149 18.0064 12.5149 19.1433C12.5149 20.1965 12.5512 20.4155 12.7723 20.6955C13.0948 21.104 13.7593 21.1425 14.129 20.774C14.3468 20.557 14.3773 20.3617 14.3773 19.1871C14.3773 17.9471 14.356 17.8278 14.09 17.5787C13.7087 17.2219 13.1987 17.2359 12.8197 17.6135ZM29.835 23.1246C27.8051 23.3544 26.2837 24.1099 24.7426 25.6535C22.7991 27.5999 22.1993 29.2241 22.1993 32.5406V34.4934L18.6736 34.5313C15.4112 34.5665 15.1283 34.5869 14.8867 34.805C14.5516 35.1075 14.5313 35.8687 14.8505 36.1566C15.0458 36.3328 15.5392 36.3637 18.6063 36.3923L22.1372 36.4252L22.1686 40.6318L22.1999 44.8385L21.7341 45.1043C21.4778 45.2507 20.9329 45.6637 20.5232 46.0223C19.2519 47.1349 17.8811 47.5604 16.5111 47.2675C15.5624 47.0649 14.904 46.7142 14.006 45.9337C11.3007 43.5824 7.89823 43.6104 5.12751 46.0068C4.17732 46.8287 3.3724 47.1976 2.17328 47.3611C1.62338 47.4359 1.36016 47.5385 1.19466 47.7422C0.6799 48.3756 1.17206 49.2323 2.049 49.2288C3.40704 49.2236 5.03613 48.5423 6.28913 47.4555C8.44341 45.5871 10.7418 45.561 12.8356 47.3815C14.5618 48.8823 16.5404 49.481 18.4642 49.0846C19.7303 48.8236 20.5994 48.3864 21.7431 47.4351C22.9334 46.445 23.786 46.1033 25.0549 46.1076C26.3225 46.112 27.1176 46.4331 28.3023 47.4197C30.218 49.0149 32.1172 49.5368 34.214 49.0441C35.2825 48.7931 36.056 48.3777 37.1228 47.4821C38.399 46.4104 39.1355 46.0951 40.3864 46.085C41.7178 46.0743 42.4344 46.3376 43.4848 47.2234C44.6721 48.2248 45.2219 48.5689 46.0876 48.8521C48.3612 49.596 50.6686 49.0956 52.6155 47.4363C53.5753 46.6185 54.2013 46.298 55.2012 46.1127C56.5918 45.855 57.8575 46.2771 59.2092 47.4493C60.4695 48.5423 62.0955 49.2236 63.4565 49.2288C64.0226 49.2311 64.5373 48.79 64.5373 48.3027C64.5373 47.8409 64.0215 47.3748 63.5102 47.3748C62.9603 47.3748 61.8497 47.0446 61.3255 46.7251C61.0954 46.585 60.5926 46.196 60.2081 45.8607C57.6624 43.6408 54.1429 43.6532 51.5628 45.8909C51.1531 46.2463 50.4569 46.7084 50.0156 46.9179C49.3237 47.2465 49.0765 47.2985 48.2153 47.2965C46.9353 47.2934 46.07 46.9671 45.1011 46.1222C44.705 45.7769 44.167 45.3533 43.9057 45.1808L43.4304 44.8674V40.6154V36.3633H53.7307H64.031L64.2842 36.0925C64.7472 35.5973 64.5455 34.893 63.8673 34.636C63.6563 34.5561 61.9101 34.5075 59.2525 34.5075H54.9771L54.9747 32.93C54.9733 32.0624 54.9174 30.9748 54.8505 30.5131C54.5747 28.6135 53.7339 26.9501 52.3542 25.5752C51.6457 24.8692 51.442 24.7332 51.0921 24.7332C50.5858 24.7332 50.135 25.1583 50.135 25.6355C50.135 25.8764 50.3622 26.1953 50.9795 26.8202C52.5482 28.4085 52.9882 29.5965 53.082 32.4969L53.147 34.5075H52.086H51.0251L50.9822 32.4351C50.9417 30.4758 50.921 30.3252 50.6022 29.6765C50.1253 28.706 49.2839 27.8805 48.296 27.4142C47.5347 27.0548 47.3621 27.0222 46.224 27.0234C45.114 27.0245 44.9061 27.0618 44.2626 27.3754C43.345 27.8225 42.4354 28.7284 41.9837 29.645L41.6301 30.3627L41.568 37.2767L41.5059 44.1908L40.4816 44.2052L39.4572 44.2198L39.4594 37.7243C39.4619 30.5681 39.495 30.1729 40.2132 28.7154C40.7064 27.7146 41.8182 26.5321 42.8261 25.9363C44.0336 25.2226 45.0143 24.9574 46.4396 24.9594C47.8036 24.9614 48.0928 24.8307 48.224 24.1537C48.2856 23.836 48.2387 23.6984 47.9817 23.4423C47.6812 23.1429 47.591 23.1248 46.3927 23.1248C45.6576 23.1248 44.7791 23.2076 44.3075 23.3212C42.4659 23.765 40.2888 25.1917 39.3332 26.581C38.4475 27.8685 38.5768 27.8276 38.0551 26.9853C37.8019 26.5766 37.1772 25.8535 36.6667 25.3786C34.8457 23.6838 32.3036 22.8451 29.835 23.1246ZM32.758 25.2334C34.3343 25.6869 35.9788 27.0506 36.779 28.5681C37.446 29.8328 37.595 30.5834 37.595 32.6776V34.5075H36.6017H35.6084V32.8632C35.6084 31.7772 35.5431 30.9689 35.416 30.4827C35.0591 29.1174 34.084 27.9632 32.7677 27.3481C32.1593 27.0638 31.9106 27.0221 30.8257 27.0221C29.671 27.0221 29.522 27.0513 28.7557 27.4272C27.7329 27.929 26.8006 28.9066 26.3985 29.8991C26.1108 30.6089 26.1102 30.6224 26.0753 37.415L26.0404 44.2198H25.0512H24.062L24.0618 37.4947C24.0617 30.0806 24.0702 29.9821 24.8447 28.5068C25.0592 28.0985 25.5999 27.3961 26.0463 26.946C27.844 25.1336 30.2641 24.5161 32.758 25.2334ZM32.0844 29.1133C32.7714 29.4322 33.3038 30.0243 33.5689 30.7645C33.6746 31.0598 33.7371 31.8255 33.7406 32.8681L33.746 34.5075H30.8169H27.8879L27.9327 32.6825C27.9719 31.0856 28.0122 30.7926 28.2541 30.3373C28.9769 28.978 30.6443 28.4451 32.0844 29.1133ZM47.3764 29.008C47.9868 29.2617 48.6211 29.8748 48.9058 30.4864C49.0958 30.8943 49.1367 31.2911 49.139 32.7444L49.1417 34.5075H46.286H43.4304V32.7085C43.4304 31.1795 43.466 30.8408 43.6678 30.4505C43.9695 29.8673 44.6099 29.2539 45.1686 29.0131C45.7357 28.7687 46.7948 28.7663 47.3764 29.008ZM1.60029 34.6396C0.95727 34.9016 0.772026 35.6119 1.22136 36.0925C1.47402 36.3628 1.48507 36.3633 6.67527 36.3633H11.8761L12.1334 36.0373C12.4684 35.6129 12.4582 35.3417 12.0913 34.9165L11.7917 34.5693L6.84561 34.5435C3.81739 34.5276 1.78342 34.5649 1.60029 34.6396ZM37.595 37.415V38.4666H32.7528H27.9106V37.415V36.3633H32.7528H37.595V37.415ZM37.595 41.3123V42.3021H32.7528H27.9106V41.3123V40.3225H32.7528H37.595V41.3123ZM37.595 44.5024C37.595 44.7548 37.4943 44.9063 37.2185 45.0686C37.0114 45.1905 36.4817 45.5948 36.0414 45.9671C34.8358 46.9862 34.0474 47.3076 32.7528 47.3076C31.4605 47.3076 30.6905 46.9946 29.4937 45.9829C29.0567 45.6135 28.5216 45.2067 28.3048 45.079C28.0122 44.9068 27.9106 44.7583 27.9106 44.5024V44.158H32.7528H37.595V44.5024ZM8.66602 50.7211C7.29519 50.93 6.28168 51.4264 5.10019 52.4672C4.20091 53.2594 3.34459 53.6609 2.32823 53.7668C1.74208 53.8278 1.46309 53.9227 1.25252 54.1325C0.649606 54.7333 1.13519 55.6661 2.049 55.6625C3.38097 55.6573 5.02073 54.9813 6.24493 53.9323C7.63464 52.7417 8.94538 52.3035 10.3458 52.5615C11.3291 52.7426 11.955 53.0658 12.8967 53.8784C13.8956 54.7404 14.9057 55.2396 16.1776 55.4998C18.079 55.8888 20.0248 55.3286 21.7033 53.909C22.692 53.0727 23.2844 52.7624 24.2561 52.572C25.6882 52.2911 26.9345 52.7002 28.4029 53.9327C29.2935 54.6801 30.3592 55.2895 30.7805 55.2919C31.1767 55.2944 31.6353 54.8039 31.6353 54.3779C31.6353 53.9314 31.3459 53.602 30.6421 53.2473C30.4031 53.1269 29.8444 52.7214 29.4005 52.3462C27.8391 51.0264 26.0077 50.4583 24.1564 50.7196C22.7504 50.918 21.7584 51.3986 20.4742 52.5032C19.6113 53.2454 19.0711 53.5138 18.0684 53.6979C16.6211 53.9636 15.3505 53.5493 13.987 52.367C13.5529 51.9906 12.944 51.5535 12.6338 51.3955C11.4619 50.7989 9.89867 50.5333 8.66602 50.7211ZM39.3997 50.7261C38.3938 50.8765 37.0778 51.5238 36.1044 52.3471C35.6603 52.7228 35.0634 53.1489 34.7779 53.2939C33.9308 53.7246 33.6593 54.3194 34.0536 54.8803C34.5245 55.5503 35.5571 55.2298 37.0999 53.9349C38.5712 52.7 39.8165 52.291 41.2494 52.572C42.2211 52.7624 42.8136 53.0727 43.8023 53.909C46.5059 56.1955 49.9347 56.1861 52.6016 53.8846C54.7892 51.9968 57.0202 52.0128 59.2606 53.9323C60.4848 54.9813 62.1246 55.6573 63.4565 55.6625C64.3704 55.6661 64.8559 54.7333 64.253 54.1325C64.0415 53.9217 63.7635 53.8279 63.1666 53.7659C62.1935 53.665 61.3477 53.2708 60.4394 52.4948C58.9019 51.1813 57.7121 50.6997 55.9704 50.6858C54.2197 50.6718 52.8979 51.1711 51.5186 52.367C50.1551 53.5493 48.8844 53.9636 47.4371 53.6979C46.4162 53.5104 45.9058 53.2512 44.9066 52.4135C44.4702 52.0476 43.9177 51.6319 43.6787 51.4898C42.5759 50.8339 40.7995 50.5169 39.3997 50.7261Z" fill="white"/>
<path fill-rule="evenodd" clip-rule="evenodd" d="M12.8702 0.224623C12.6018 0.440894 12.5735 0.570186 12.5352 1.75188C12.4958 2.97057 12.5103 3.06225 12.7949 3.39197C13.1828 3.84134 13.8125 3.87277 14.1484 3.45953C14.3393 3.22445 14.3773 2.95572 14.3773 1.83948C14.3773 0.540987 14.3675 0.493477 14.0502 0.244791C13.6424 -0.0749137 13.25 -0.0815951 12.8702 0.224623ZM6.10054 3.01672C5.74482 3.26491 5.64177 3.75053 5.85706 4.16513C6.10029 4.6338 7.48006 5.92399 7.75669 5.94132C8.53466 5.99031 8.91434 5.71094 8.91434 5.08972C8.91434 4.72288 8.7836 4.53172 7.99718 3.74793C7.01981 2.77397 6.65155 2.63206 6.10054 3.01672ZM19.0162 3.72467C18.0813 4.62798 17.8898 4.96068 18.0376 5.42464C18.1461 5.76538 18.7652 6.07605 19.1459 5.98078C19.3114 5.93934 19.8426 5.49875 20.3265 5.0015C21.3111 3.98968 21.4365 3.5877 20.9187 3.10295C20.4036 2.6208 20.0335 2.74168 19.0162 3.72467ZM12.0538 5.97707C9.79549 6.70544 8.34793 9.0353 8.7651 11.2704C9.25962 13.9202 11.7001 15.6822 14.232 15.2172C15.8502 14.9201 17.091 13.9806 17.8211 12.4998C18.1263 11.8808 18.1641 11.6674 18.1641 10.5668C18.1641 9.47043 18.1243 9.24352 17.8139 8.57417C17.3702 7.61754 16.409 6.66473 15.4327 6.21339C14.8319 5.93575 14.4835 5.86325 13.6324 5.83875C12.9959 5.82044 12.3693 5.87525 12.0538 5.97707ZM14.6888 7.88998C16.1695 8.56032 16.7824 10.3619 16.0367 11.8529C15.1694 13.5871 12.9305 13.9665 11.4792 12.625C10.529 11.7467 10.2904 10.2094 10.9346 9.1172C11.304 8.49103 11.8538 8.01717 12.4529 7.80857C13.0497 7.60059 14.1371 7.64018 14.6888 7.88998ZM3.20305 9.88627C2.82759 10.2604 2.87192 10.9169 3.29517 11.2486C3.60334 11.4902 3.75704 11.5116 4.92041 11.4742C6.0952 11.4364 6.22556 11.4078 6.44234 11.1407C6.76354 10.7452 6.74281 10.2362 6.39218 9.9078C6.13406 9.66629 5.9693 9.63882 4.77812 9.63882C3.61687 9.63882 3.42033 9.66976 3.20305 9.88627ZM20.6042 9.85534C20.4631 9.97449 20.3115 10.2235 20.2675 10.409C20.2033 10.6792 20.2619 10.8204 20.563 11.1204C20.9256 11.4817 20.9775 11.4947 22.0597 11.4947C23.3039 11.4947 23.719 11.3664 23.9239 10.9185C24.1177 10.4945 24.0979 10.3368 23.8043 9.96484C23.5547 9.6486 23.5071 9.63882 22.204 9.63882C21.1056 9.63882 20.8143 9.67829 20.6042 9.85534ZM6.63889 16.0583C6.10178 16.6082 5.68622 17.1407 5.68622 17.2788C5.68622 17.4136 5.80206 17.6705 5.9436 17.8498C6.14002 18.0987 6.31123 18.1758 6.66757 18.1758C7.08462 18.1758 7.22864 18.0787 8.02425 17.2611C8.74027 16.5252 8.91434 16.2712 8.91434 15.962C8.91434 15.4534 8.53094 15.0827 8.00463 15.0827C7.65227 15.0827 7.452 15.2257 6.63889 16.0583ZM18.2353 15.4087C17.8012 15.9586 17.9119 16.2749 18.8923 17.2883C19.7454 18.1703 20.1252 18.3657 20.6027 18.1686C21.0212 17.9959 21.206 17.7135 21.206 17.247C21.206 17.0082 20.9633 16.6738 20.3017 16.0016C19.5048 15.192 19.3435 15.0827 18.945 15.0827C18.6042 15.0827 18.4291 15.1631 18.2353 15.4087ZM12.8197 17.6135C12.5372 17.895 12.5149 18.0064 12.5149 19.1433C12.5149 20.1965 12.5512 20.4155 12.7723 20.6955C13.0948 21.104 13.7593 21.1425 14.129 20.774C14.3468 20.557 14.3773 20.3617 14.3773 19.1871C14.3773 17.9471 14.356 17.8278 14.09 17.5787C13.7087 17.2219 13.1987 17.2359 12.8197 17.6135ZM29.835 23.1246C27.8051 23.3544 26.2837 24.1099 24.7426 25.6535C22.7991 27.5999 22.1993 29.2241 22.1993 32.5406V34.4934L18.6736 34.5313C15.4112 34.5665 15.1283 34.5869 14.8867 34.805C14.5516 35.1075 14.5313 35.8687 14.8505 36.1566C15.0458 36.3328 15.5392 36.3637 18.6063 36.3923L22.1372 36.4252L22.1686 40.6318L22.1999 44.8385L21.7341 45.1043C21.4778 45.2507 20.9329 45.6637 20.5232 46.0223C19.2519 47.1349 17.8811 47.5604 16.5111 47.2675C15.5624 47.0649 14.904 46.7142 14.006 45.9337C11.3007 43.5824 7.89823 43.6104 5.12751 46.0068C4.17732 46.8287 3.3724 47.1976 2.17328 47.3611C1.62338 47.4359 1.36016 47.5385 1.19466 47.7422C0.6799 48.3756 1.17206 49.2323 2.049 49.2288C3.40704 49.2236 5.03613 48.5423 6.28913 47.4555C8.44341 45.5871 10.7418 45.561 12.8356 47.3815C14.5618 48.8823 16.5404 49.481 18.4642 49.0846C19.7303 48.8236 20.5994 48.3864 21.7431 47.4351C22.9334 46.445 23.786 46.1033 25.0549 46.1076C26.3225 46.112 27.1176 46.4331 28.3023 47.4197C30.218 49.0149 32.1172 49.5368 34.214 49.0441C35.2825 48.7931 36.056 48.3777 37.1228 47.4821C38.399 46.4104 39.1355 46.0951 40.3864 46.085C41.7178 46.0743 42.4344 46.3376 43.4848 47.2234C44.6721 48.2248 45.2219 48.5689 46.0876 48.8521C48.3612 49.596 50.6686 49.0956 52.6155 47.4363C53.5753 46.6185 54.2013 46.298 55.2012 46.1127C56.5918 45.855 57.8575 46.2771 59.2092 47.4493C60.4695 48.5423 62.0955 49.2236 63.4565 49.2288C64.0226 49.2311 64.5373 48.79 64.5373 48.3027C64.5373 47.8409 64.0215 47.3748 63.5102 47.3748C62.9603 47.3748 61.8497 47.0446 61.3255 46.7251C61.0954 46.585 60.5926 46.196 60.2081 45.8607C57.6624 43.6408 54.1429 43.6532 51.5628 45.8909C51.1531 46.2463 50.4569 46.7084 50.0156 46.9179C49.3237 47.2465 49.0765 47.2985 48.2153 47.2965C46.9353 47.2934 46.07 46.9671 45.1011 46.1222C44.705 45.7769 44.167 45.3533 43.9057 45.1808L43.4304 44.8674V40.6154V36.3633H53.7307H64.031L64.2842 36.0925C64.7472 35.5973 64.5455 34.893 63.8673 34.636C63.6563 34.5561 61.9101 34.5075 59.2525 34.5075H54.9771L54.9747 32.93C54.9733 32.0624 54.9174 30.9748 54.8505 30.5131C54.5747 28.6135 53.7339 26.9501 52.3542 25.5752C51.6457 24.8692 51.442 24.7332 51.0921 24.7332C50.5858 24.7332 50.135 25.1583 50.135 25.6355C50.135 25.8764 50.3622 26.1953 50.9795 26.8202C52.5482 28.4085 52.9882 29.5965 53.082 32.4969L53.147 34.5075H52.086H51.0251L50.9822 32.4351C50.9417 30.4758 50.921 30.3252 50.6022 29.6765C50.1253 28.706 49.2839 27.8805 48.296 27.4142C47.5347 27.0548 47.3621 27.0222 46.224 27.0234C45.114 27.0245 44.9061 27.0618 44.2626 27.3754C43.345 27.8225 42.4354 28.7284 41.9837 29.645L41.6301 30.3627L41.568 37.2767L41.5059 44.1908L40.4816 44.2052L39.4572 44.2198L39.4594 37.7243C39.4619 30.5681 39.495 30.1729 40.2132 28.7154C40.7064 27.7146 41.8182 26.5321 42.8261 25.9363C44.0336 25.2226 45.0143 24.9574 46.4396 24.9594C47.8036 24.9614 48.0928 24.8307 48.224 24.1537C48.2856 23.836 48.2387 23.6984 47.9817 23.4423C47.6812 23.1429 47.591 23.1248 46.3927 23.1248C45.6576 23.1248 44.7791 23.2076 44.3075 23.3212C42.4659 23.765 40.2888 25.1917 39.3332 26.581C38.4475 27.8685 38.5768 27.8276 38.0551 26.9853C37.8019 26.5766 37.1772 25.8535 36.6667 25.3786C34.8457 23.6838 32.3036 22.8451 29.835 23.1246ZM32.758 25.2334C34.3343 25.6869 35.9788 27.0506 36.779 28.5681C37.446 29.8328 37.595 30.5834 37.595 32.6776V34.5075H36.6017H35.6084V32.8632C35.6084 31.7772 35.5431 30.9689 35.416 30.4827C35.0591 29.1174 34.084 27.9632 32.7677 27.3481C32.1593 27.0638 31.9106 27.0221 30.8257 27.0221C29.671 27.0221 29.522 27.0513 28.7557 27.4272C27.7329 27.929 26.8006 28.9066 26.3985 29.8991C26.1108 30.6089 26.1102 30.6224 26.0753 37.415L26.0404 44.2198H25.0512H24.062L24.0618 37.4947C24.0617 30.0806 24.0702 29.9821 24.8447 28.5068C25.0592 28.0985 25.5999 27.3961 26.0463 26.946C27.844 25.1336 30.2641 24.5161 32.758 25.2334ZM32.0844 29.1133C32.7714 29.4322 33.3038 30.0243 33.5689 30.7645C33.6746 31.0598 33.7371 31.8255 33.7406 32.8681L33.746 34.5075H30.8169H27.8879L27.9327 32.6825C27.9719 31.0856 28.0122 30.7926 28.2541 30.3373C28.9769 28.978 30.6443 28.4451 32.0844 29.1133ZM47.3764 29.008C47.9868 29.2617 48.6211 29.8748 48.9058 30.4864C49.0958 30.8943 49.1367 31.2911 49.139 32.7444L49.1417 34.5075H46.286H43.4304V32.7085C43.4304 31.1795 43.466 30.8408 43.6678 30.4505C43.9695 29.8673 44.6099 29.2539 45.1686 29.0131C45.7357 28.7687 46.7948 28.7663 47.3764 29.008ZM1.60029 34.6396C0.95727 34.9016 0.772026 35.6119 1.22136 36.0925C1.47402 36.3628 1.48507 36.3633 6.67527 36.3633H11.8761L12.1334 36.0373C12.4684 35.6129 12.4582 35.3417 12.0913 34.9165L11.7917 34.5693L6.84561 34.5435C3.81739 34.5276 1.78342 34.5649 1.60029 34.6396ZM37.595 37.415V38.4666H32.7528H27.9106V37.415V36.3633H32.7528H37.595V37.415ZM37.595 41.3123V42.3021H32.7528H27.9106V41.3123V40.3225H32.7528H37.595V41.3123ZM37.595 44.5024C37.595 44.7548 37.4943 44.9063 37.2185 45.0686C37.0114 45.1905 36.4817 45.5948 36.0414 45.9671C34.8358 46.9862 34.0474 47.3076 32.7528 47.3076C31.4605 47.3076 30.6905 46.9946 29.4937 45.9829C29.0567 45.6135 28.5216 45.2067 28.3048 45.079C28.0122 44.9068 27.9106 44.7583 27.9106 44.5024V44.158H32.7528H37.595V44.5024ZM8.66602 50.7211C7.29519 50.93 6.28168 51.4264 5.10019 52.4672C4.20091 53.2594 3.34459 53.6609 2.32823 53.7668C1.74208 53.8278 1.46309 53.9227 1.25252 54.1325C0.649606 54.7333 1.13519 55.6661 2.049 55.6625C3.38097 55.6573 5.02073 54.9813 6.24493 53.9323C7.63464 52.7417 8.94538 52.3035 10.3458 52.5615C11.3291 52.7426 11.955 53.0658 12.8967 53.8784C13.8956 54.7404 14.9057 55.2396 16.1776 55.4998C18.079 55.8888 20.0248 55.3286 21.7033 53.909C22.692 53.0727 23.2844 52.7624 24.2561 52.572C25.6882 52.2911 26.9345 52.7002 28.4029 53.9327C29.2935 54.6801 30.3592 55.2895 30.7805 55.2919C31.1767 55.2944 31.6353 54.8039 31.6353 54.3779C31.6353 53.9314 31.3459 53.602 30.6421 53.2473C30.4031 53.1269 29.8444 52.7214 29.4005 52.3462C27.8391 51.0264 26.0077 50.4583 24.1564 50.7196C22.7504 50.918 21.7584 51.3986 20.4742 52.5032C19.6113 53.2454 19.0711 53.5138 18.0684 53.6979C16.6211 53.9636 15.3505 53.5493 13.987 52.367C13.5529 51.9906 12.944 51.5535 12.6338 51.3955C11.4619 50.7989 9.89867 50.5333 8.66602 50.7211ZM39.3997 50.7261C38.3938 50.8765 37.0778 51.5238 36.1044 52.3471C35.6603 52.7228 35.0634 53.1489 34.7779 53.2939C33.9308 53.7246 33.6593 54.3194 34.0536 54.8803C34.5245 55.5503 35.5571 55.2298 37.0999 53.9349C38.5712 52.7 39.8165 52.291 41.2494 52.572C42.2211 52.7624 42.8136 53.0727 43.8023 53.909C46.5059 56.1955 49.9347 56.1861 52.6016 53.8846C54.7892 51.9968 57.0202 52.0128 59.2606 53.9323C60.4848 54.9813 62.1246 55.6573 63.4565 55.6625C64.3704 55.6661 64.8559 54.7333 64.253 54.1325C64.0415 53.9217 63.7635 53.8279 63.1666 53.7659C62.1935 53.665 61.3477 53.2708 60.4394 52.4948C58.9019 51.1813 57.7121 50.6997 55.9704 50.6858C54.2197 50.6718 52.8979 51.1711 51.5186 52.367C50.1551 53.5493 48.8844 53.9636 47.4371 53.6979C46.4162 53.5104 45.9058 53.2512 44.9066 52.4135C44.4702 52.0476 43.9177 51.6319 43.6787 51.4898C42.5759 50.8339 40.7995 50.5169 39.3997 50.7261Z" fill="url(#paint0_linear_1072_133)"/>
<defs>
<linearGradient id="paint0_linear_1072_133" x1="64.5373" y1="55.6625" x2="0.974243" y2="55.6625" gradientUnits="userSpaceOnUse">
<stop stop-color="#D3AA90"/>
<stop offset="1" stop-color="#BE8D71"/>
</linearGradient>
</defs>
</svg>
